<svg width="311" height="116" viewBox="0 0 311 116" fill="none" xmlns="http://www.w3.org/2000/svg">
<path d="M149.5 21.3687C134.939 46.4791 84.7539 90.2671 0.500118 64.536" stroke="url(#paint0_radial_3834_1531)" stroke-linecap="round"/>
<path d="M310 0.368652C310 0.368652 234.5 69.3687 138.646 61.3687C42.7916 53.3687 30.5004 22.3687 30.5004 22.3687" stroke="url(#paint1_radial_3834_1531)"/>
<path d="M136.558 44.8107C139.84 43.9504 141.803 40.5925 140.943 37.3107C140.082 34.0289 136.725 32.066 133.443 32.9263C130.161 33.7867 128.198 37.1445 129.058 40.4263C129.919 43.7081 133.277 45.6711 136.558 44.8107Z" fill="url(#paint2_radial_3834_1531)"/>
<path fill-rule="evenodd" clip-rule="evenodd" d="M134.256 34.8204C133.559 34.2551 132.238 34.7462 131.31 35.9155C130.382 37.0848 130.193 38.4908 130.89 39.0525C131.587 39.6177 132.907 39.1267 133.835 37.9574C134.763 36.7881 134.953 35.3821 134.256 34.8204Z" fill="url(#paint3_radial_3834_1531)"/>
<path d="M180.558 66.8107C183.84 65.9504 185.803 62.5925 184.943 59.3107C184.082 56.0289 180.724 54.066 177.443 54.9263C174.161 55.7867 172.198 59.1445 173.058 62.4263C173.919 65.7081 177.276 67.6711 180.558 66.8107Z" fill="url(#paint4_radial_3834_1531)"/>
<path fill-rule="evenodd" clip-rule="evenodd" d="M178.255 56.8204C177.558 56.2551 176.238 56.7462 175.31 57.9155C174.382 59.0848 174.193 60.4908 174.89 61.0525C175.587 61.6177 176.907 61.1267 177.835 59.9574C178.763 58.7881 178.952 57.3821 178.255 56.8204Z" fill="url(#paint5_radial_3834_1531)"/>
<path d="M141.557 68.8091C144.838 67.9489 146.801 64.5915 145.941 61.3101C145.081 58.0288 141.723 56.0661 138.442 56.9263C135.16 57.7865 133.198 61.144 134.058 64.4253C134.918 67.7067 138.276 69.6694 141.557 68.8091Z" fill="url(#paint6_radial_3834_1531)"/>
<path fill-rule="evenodd" clip-rule="evenodd" d="M139.255 58.8191C138.558 58.254 137.238 58.7449 136.31 59.9141C135.382 61.0833 135.193 62.4891 135.89 63.0507C136.587 63.6158 137.907 63.1249 138.835 61.9557C139.763 60.7865 139.952 59.3807 139.255 58.8191Z" fill="url(#paint7_radial_3834_1531)"/>
<path d="M39.557 77.8089C42.8383 76.9487 44.8011 73.5912 43.9408 70.3099C43.0806 67.0285 39.7232 65.0658 36.4418 65.926C33.1604 66.7863 31.1977 70.1437 32.058 73.4251C32.9182 76.7064 36.2756 78.6691 39.557 77.8089Z" fill="url(#paint8_radial_3834_1531)"/>
<path fill-rule="evenodd" clip-rule="evenodd" d="M37.2553 67.8189C36.5584 67.2537 35.2383 67.7447 34.3104 68.9138C33.3825 70.083 33.1934 71.4888 33.8902 72.0504C34.587 72.6156 35.9071 72.1246 36.8351 70.9555C37.763 69.7863 37.9521 68.3805 37.2553 67.8189Z" fill="url(#paint9_radial_3834_1531)"/>
<path d="M237.557 52.8091C240.838 51.9489 242.801 48.5915 241.941 45.3101C241.081 42.0288 237.723 40.0661 234.442 40.9263C231.16 41.7865 229.198 45.144 230.058 48.4253C230.918 51.7067 234.276 53.6694 237.557 52.8091Z" fill="url(#paint10_radial_3834_1531)"/>
<path fill-rule="evenodd" clip-rule="evenodd" d="M235.255 42.8191C234.558 42.254 233.238 42.7449 232.31 43.9141C231.382 45.0833 231.193 46.4891 231.89 47.0507C232.587 47.6158 233.907 47.1249 234.835 45.9557C235.763 44.7865 235.952 43.3807 235.255 42.8191Z" fill="url(#paint11_radial_3834_1531)"/>
<path d="M71.5584 52.8107C74.8402 51.9504 76.8032 48.5925 75.9428 45.3107C75.0825 42.0289 71.7246 40.066 68.4428 40.9263C65.161 41.7867 63.1981 45.1445 64.0584 48.4263C64.9188 51.7081 68.2766 53.6711 71.5584 52.8107Z" fill="url(#paint12_radial_3834_1531)"/>
<path fill-rule="evenodd" clip-rule="evenodd" d="M69.2556 42.8204C68.5587 42.2551 67.2384 42.7462 66.3104 43.9155C65.3823 45.0848 65.1932 46.4908 65.8901 47.0525C66.5871 47.6177 67.9073 47.1267 68.8354 45.9574C69.7634 44.7881 69.9526 43.3821 69.2556 42.8204Z" fill="url(#paint13_radial_3834_1531)"/>
<path d="M208.026 82.477L190.534 91.0806L208.509 101.066L225.587 90.1699L208.026 82.477Z" fill="url(#paint14_radial_3834_1531)"/>
<path d="M207.943 79.2903L190.636 87.7108L208.607 97.5347L225.658 86.8009L207.943 79.2903Z" fill="url(#paint15_radial_3834_1531)"/>
<path d="M207.943 79.2903L190.636 87.7108L208.607 97.5347L225.658 86.8009L207.943 79.2903Z" fill="url(#paint16_radial_3834_1531)"/>
<path d="M190.451 87.8781L208.422 97.702L207.401 58.4004L190.451 87.8781Z" fill="url(#paint17_radial_3834_1531)"/>
<path d="M190.534 91.0803L208.881 115.392L208.509 101.065L190.534 91.0803Z" fill="url(#paint18_radial_3834_1531)"/>
<path d="M208.509 101.066L208.882 115.405L225.587 90.1698L208.509 101.066Z" fill="url(#paint19_radial_3834_1531)"/>
<path d="M208.509 101.066L208.882 115.405L225.587 90.1698L208.509 101.066Z" fill="url(#paint20_radial_3834_1531)"/>
<path d="M208.509 101.066L208.882 115.405L225.587 90.1698L208.509 101.066Z" fill="url(#paint21_radial_3834_1531)"/>
<path d="M207.401 58.4004L208.422 97.702L225.467 86.9683L207.401 58.4004Z" fill="url(#paint22_radial_3834_1531)"/>
<path d="M207.401 58.4004L208.422 97.702L225.467 86.9683L207.401 58.4004Z" fill="url(#paint23_radial_3834_1531)"/>
<path d="M207.401 58.4004L208.422 97.702L225.467 86.9683L207.401 58.4004Z" fill="url(#paint24_radial_3834_1531)"/>
<g style="mix-blend-mode:multiply" opacity="0.4">
<path d="M207.655 65.6435C208.762 65.514 209.307 63.5789 209.307 63.5789C209.307 63.5789 209.861 64.2756 210.59 64.4845C209.665 63.3419 209.271 61.7489 209.279 60.4737C208.971 60.4954 208.522 60.5083 208.021 60.5201C207.773 60.627 207.519 60.7244 207.255 60.7764C206.817 60.8613 206.403 61.0226 205.962 61.0931C205.845 61.1103 204.961 61.2298 204.68 61.1835C204.683 61.2917 204.686 61.3998 204.682 61.5058C204.847 62.4161 204.634 63.3618 204.294 64.2263C204.248 64.3428 204.174 64.4601 204.078 64.5778C204.646 64.2613 205.173 63.7869 205.417 63.4155C205.417 63.4155 206.278 65.8058 207.651 65.646L207.655 65.6435Z" fill="#5E4D98"/>
</g>
<path d="M203.748 59.5079C203.66 60.1216 203.548 60.9983 203.444 62.0578C203.207 64.4473 203.291 64.6549 203.477 64.7326C203.774 64.8608 204.27 64.2981 204.675 63.8579C205.208 63.28 205.436 62.904 205.59 62.5634C205.616 62.8734 205.825 63.584 206.048 64.0197C206.21 64.3387 206.642 65.0298 207.097 65.0725C207.747 65.1325 208.527 63.8603 209.007 61.9325C209.104 62.3325 209.319 62.9827 209.822 63.6096C209.87 63.6711 210.748 64.6411 211.153 64.4345C211.412 64.3034 211.391 63.8367 211.153 62.308C211.004 61.3553 210.793 60.1078 210.502 58.6381C209.884 58.4016 208.589 58.0045 206.958 58.2291C205.389 58.4426 204.284 59.125 203.75 59.5079L203.748 59.5079Z" fill="url(#paint25_linear_3834_1531)"/>
<path d="M206.964 58.2322C205.393 58.447 204.285 59.1335 203.75 59.5187C204.09 59.763 205.363 60.6209 207.127 60.4599C209.124 60.2766 210.285 58.9252 210.516 58.6437C209.897 58.4058 208.599 58.0063 206.964 58.2322Z" fill="url(#paint26_linear_3834_1531)"/>
<path d="M207.235 59.2549L207.069 59.093C206.684 58.7198 206.006 57.9161 205.776 56.7227C205.398 54.7594 206.523 53.2496 206.753 52.9682L206.866 52.8287L207.009 52.936C207.377 53.2111 207.674 53.5406 207.898 53.915C209.185 56.0885 207.431 58.9383 207.358 59.0576L207.235 59.2549ZM206.933 53.3652C206.599 53.8267 205.844 55.0807 206.148 56.6495C206.328 57.5773 206.803 58.2463 207.158 58.6346C207.313 58.3501 207.584 57.8035 207.775 57.1387C208.12 55.9372 208.052 54.9203 207.575 54.1145C207.41 53.8348 207.194 53.5827 206.933 53.3652Z" fill="url(#paint27_linear_3834_1531)"/>
<path d="M204.457 59.8503C204.872 60.0214 205.294 60.1557 205.725 60.2361C206.154 60.319 206.593 60.3505 207.026 60.3236L207.188 60.3126L207.35 60.2943C207.458 60.2845 207.566 60.2625 207.674 60.2454C207.887 60.204 208.1 60.1504 208.31 60.0846C208.728 59.9507 209.133 59.7684 209.515 59.5377C209.538 59.525 209.566 59.5317 209.581 59.5557C209.594 59.5774 209.587 59.6044 209.569 59.6194C208.855 60.1893 207.963 60.5388 207.046 60.5987C206.587 60.6335 206.124 60.5904 205.676 60.4811C205.229 60.3693 204.797 60.1889 204.413 59.9367C204.391 59.9226 204.383 59.891 204.397 59.8688C204.41 59.849 204.433 59.8411 204.455 59.8504L204.457 59.8503Z" fill="#EDF0FF"/>
<defs>
<radialGradient id="paint0_radial_3834_1531" cx="0" cy="0" r="1" gradientTransform="matrix(-60.5 -71.5 -73.2766 20.8229 101 69.8687)" gradientUnits="userSpaceOnUse">
<stop stop-opacity="0.2"/>
<stop offset="1" stop-opacity="0.02"/>
</radialGradient>
<radialGradient id="paint1_radial_3834_1531" cx="0" cy="0" r="1" gradientTransform="matrix(25 -98.6471 -128.869 -42.9711 136.5 55.6334)" gradientUnits="userSpaceOnUse">
<stop stop-opacity="0.2"/>
<stop offset="1" stop-opacity="0.02"/>
</radialGradient>
<radialGradient id="paint2_radial_3834_1531" cx="0" cy="0" r="1" gradientTransform="matrix(10.2 9 -9.63136 10.9219 132.301 35.8684)" gradientUnits="userSpaceOnUse">
<stop stop-color="#FFB6B7"/>
<stop offset="0.5" stop-color="#E23E3F"/>
<stop offset="1" stop-color="#F0A3A4" stop-opacity="0"/>
</radialGradient>
<radialGradient id="paint3_radial_3834_1531" cx="0" cy="0" r="1" gradientTransform="matrix(0.428857 4.12068 -3.68692 0.390448 132.144 35.1665)" gradientUnits="userSpaceOnUse">
<stop stop-color="white"/>
<stop offset="1" stop-color="white" stop-opacity="0"/>
</radialGradient>
<radialGradient id="paint4_radial_3834_1531" cx="0" cy="0" r="1" gradientTransform="matrix(10.2 9 -9.63136 10.9219 176.3 57.8684)" gradientUnits="userSpaceOnUse">
<stop stop-color="#FFB6B7"/>
<stop offset="0.5" stop-color="#E23E3F"/>
<stop offset="1" stop-color="#F0A3A4" stop-opacity="0"/>
</radialGradient>
<radialGradient id="paint5_radial_3834_1531" cx="0" cy="0" r="1" gradientTransform="matrix(0.428857 4.12068 -3.68692 0.390448 176.144 57.1665)" gradientUnits="userSpaceOnUse">
<stop stop-color="white"/>
<stop offset="1" stop-color="white" stop-opacity="0"/>
</radialGradient>
<radialGradient id="paint6_radial_3834_1531" cx="0" cy="0" r="1" gradientUnits="userSpaceOnUse" gradientTransform="translate(139.999 52.5014) rotate(125.605) scale(21.9731 21.9731)">
<stop stop-color="#00A3FF"/>
<stop offset="0.5" stop-color="#00A3FF" stop-opacity="0.7"/>
<stop offset="1" stop-color="#2E61FD" stop-opacity="0"/>
</radialGradient>
<radialGradient id="paint7_radial_3834_1531" cx="0" cy="0" r="1" gradientTransform="matrix(0.428801 4.12014 -3.68644 0.390397 137.144 59.1652)" gradientUnits="userSpaceOnUse">
<stop stop-color="white"/>
<stop offset="1" stop-color="white" stop-opacity="0"/>
</radialGradient>
<radialGradient id="paint8_radial_3834_1531" cx="0" cy="0" r="1" gradientUnits="userSpaceOnUse" gradientTransform="translate(37.9994 61.5012) rotate(125.605) scale(21.9731 21.9731)">
<stop stop-color="#FFAA7D"/>
<stop offset="0.5" stop-color="#FFAA7D" stop-opacity="0.7"/>
<stop offset="1" stop-color="#FFAA7D" stop-opacity="0"/>
</radialGradient>
<radialGradient id="paint9_radial_3834_1531" cx="0" cy="0" r="1" gradientTransform="matrix(0.428801 4.12014 -3.68644 0.390397 35.1439 68.1649)" gradientUnits="userSpaceOnUse">
<stop stop-color="white"/>
<stop offset="1" stop-color="white" stop-opacity="0"/>
</radialGradient>
<radialGradient id="paint10_radial_3834_1531" cx="0" cy="0" r="1" gradientUnits="userSpaceOnUse" gradientTransform="translate(235.999 36.5014) rotate(125.605) scale(21.9731 21.9731)">
<stop stop-color="#FFAA7D"/>
<stop offset="0.5" stop-color="#FFAA7D" stop-opacity="0.7"/>
<stop offset="1" stop-color="#FFAA7D" stop-opacity="0"/>
</radialGradient>
<radialGradient id="paint11_radial_3834_1531" cx="0" cy="0" r="1" gradientTransform="matrix(0.428801 4.12014 -3.68644 0.390397 233.144 43.1652)" gradientUnits="userSpaceOnUse">
<stop stop-color="white"/>
<stop offset="1" stop-color="white" stop-opacity="0"/>
</radialGradient>
<radialGradient id="paint12_radial_3834_1531" cx="0" cy="0" r="1" gradientTransform="matrix(10.2 9 -9.63136 10.9219 67.3006 43.8684)" gradientUnits="userSpaceOnUse">
<stop stop-color="#FFB6B7"/>
<stop offset="0.5" stop-color="#E23E3F"/>
<stop offset="1" stop-color="#F0A3A4" stop-opacity="0"/>
</radialGradient>
<radialGradient id="paint13_radial_3834_1531" cx="0" cy="0" r="1" gradientTransform="matrix(0.428857 4.12068 -3.68692 0.390448 67.144 43.1665)" gradientUnits="userSpaceOnUse">
<stop stop-color="white"/>
<stop offset="1" stop-color="white" stop-opacity="0"/>
</radialGradient>
<radialGradient id="paint14_radial_3834_1531" cx="0" cy="0" r="1" gradientTransform="matrix(64.443 -6.22396 -17.4169 19.4811 159.882 102.042)" gradientUnits="userSpaceOnUse">
<stop stop-color="#FFB6B7"/>
<stop offset="1" stop-color="#FFB6B7" stop-opacity="0.431373"/>
</radialGradient>
<radialGradient id="paint15_radial_3834_1531" cx="0" cy="0" r="1" gradientTransform="matrix(17.2556 -10.9436 88.8359 6.76574 190.727 95.9367)" gradientUnits="userSpaceOnUse">
<stop stop-color="#4D5CFF"/>
<stop offset="0.943718" stop-color="#8AAAFB" stop-opacity="0.29"/>
</radialGradient>
<radialGradient id="paint16_radial_3834_1531" cx="0" cy="0" r="1" gradientTransform="matrix(33.3079 0.95057 -10.1425 8.83251 185.301 87.9465)" gradientUnits="userSpaceOnUse">
<stop stop-color="#354BFF"/>
<stop offset="1" stop-color="#354BFF" stop-opacity="0"/>
</radialGradient>
<radialGradient id="paint17_radial_3834_1531" cx="0" cy="0" r="1" gradientTransform="matrix(15.0203 66.715 -34.8767 44.6771 196.094 66.8769)" gradientUnits="userSpaceOnUse">
<stop stop-color="#FFB6B7"/>
<stop offset="0.5" stop-color="#E23E3F"/>
<stop offset="1" stop-color="#F0A3A4" stop-opacity="0"/>
</radialGradient>
<radialGradient id="paint18_radial_3834_1531" cx="0" cy="0" r="1" gradientTransform="matrix(26.5851 11.1824 -1.45072 29.4894 196.853 96.0737)" gradientUnits="userSpaceOnUse">
<stop stop-color="#FFB6B7"/>
<stop offset="0.5" stop-color="#E23E3F"/>
<stop offset="1" stop-color="#F0A3A4" stop-opacity="0"/>
</radialGradient>
<radialGradient id="paint19_radial_3834_1531" cx="0" cy="0" r="1" gradientTransform="matrix(-21.2059 2.54239 -8.37424 -35.7056 227.274 106.031)" gradientUnits="userSpaceOnUse">
<stop stop-color="#FFB6B7"/>
<stop offset="0.943718" stop-color="#FFB6B7" stop-opacity="0"/>
</radialGradient>
<radialGradient id="paint20_radial_3834_1531" cx="0" cy="0" r="1" gradientTransform="matrix(23.6956 28.3333 -23.7518 8.17277 200.636 87.6185)" gradientUnits="userSpaceOnUse">
<stop stop-color="#FFB6B7"/>
<stop offset="0.364808" stop-color="#FFB6B7" stop-opacity="0.87"/>
</radialGradient>
<radialGradient id="paint21_radial_3834_1531" cx="0" cy="0" r="1" gradientTransform="matrix(14.5722 -10.2964 19.2441 11.4637 207.572 115.49)" gradientUnits="userSpaceOnUse">
<stop stop-color="#E23E3F"/>
<stop offset="1" stop-color="#ED6062" stop-opacity="0"/>
</radialGradient>
<radialGradient id="paint22_radial_3834_1531" cx="0" cy="0" r="1" gradientTransform="matrix(-21.1307 3.70684 -8.90483 -56.7326 226.64 83.1211)" gradientUnits="userSpaceOnUse">
<stop stop-color="#FF8F91"/>
<stop offset="0.943718" stop-color="#FFB6B7" stop-opacity="0"/>
</radialGradient>
<radialGradient id="paint23_radial_3834_1531" cx="0" cy="0" r="1" gradientTransform="matrix(24.0874 45.2789 -23.5863 12.5939 199.766 53.525)" gradientUnits="userSpaceOnUse">
<stop stop-color="#FFB6B7"/>
<stop offset="0.364808" stop-color="#FFB6B7" stop-opacity="0.87"/>
</radialGradient>
<radialGradient id="paint24_radial_3834_1531" cx="0" cy="0" r="1" gradientTransform="matrix(14.3901 -16.1006 19.3861 18.4673 207.116 97.8166)" gradientUnits="userSpaceOnUse">
<stop stop-color="#E23E3F"/>
<stop offset="1" stop-color="#ED6062" stop-opacity="0"/>
</radialGradient>
<linearGradient id="paint25_linear_3834_1531" x1="203.948" y1="63.9225" x2="210.968" y2="60.1057" gradientUnits="userSpaceOnUse">
<stop offset="0.1" stop-color="#C9C9C9"/>
<stop offset="1" stop-color="#767484"/>
</linearGradient>
<linearGradient id="paint26_linear_3834_1531" x1="203.679" y1="60.9964" x2="209.791" y2="49.4403" gradientUnits="userSpaceOnUse">
<stop offset="0.1" stop-color="#C9C9C9"/>
<stop offset="1" stop-color="#767484"/>
</linearGradient>
<linearGradient id="paint27_linear_3834_1531" x1="206.028" y1="59.5081" x2="210.546" y2="58.3813" gradientUnits="userSpaceOnUse">
<stop offset="0.1" stop-color="#C9C9C9"/>
<stop offset="1" stop-color="#767484"/>
</linearGradient>
</defs>
</svg>
