<svg width="105" height="115" viewBox="0 0 105 115" fill="none" xmlns="http://www.w3.org/2000/svg">
<path d="M18.4329 84.3056C19.7238 85.6974 21.1145 86.9894 22.5832 88.1911C27.4789 92.1418 33.2739 94.8687 39.3263 96.5173C42.484 97.3779 45.7119 97.9371 48.9744 98.2037C49.7583 98.2665 50.5434 98.3136 51.3296 98.345C52.0567 98.3725 52.9895 98.2096 53.6403 98.5791C54.3521 98.9829 54.9289 99.9226 55.4645 100.529C56.0973 101.248 56.7324 101.966 57.3652 102.685C59.6583 105.285 61.9533 107.886 64.246 110.488C66.3329 106.198 68.0493 101.734 69.3768 97.1484C69.526 96.6313 69.5781 95.951 70.0119 95.5885C70.3662 95.294 71.0007 95.1853 71.4222 95.014C72.55 94.5547 73.6537 94.0466 74.7292 93.479C76.5369 92.5247 78.2688 91.4295 79.9033 90.2031C86.0322 85.6049 90.6739 79.1185 92.9058 71.7753C95.0733 64.6448 94.8336 57.0233 92.2284 50.0411C89.4078 42.4788 84.4913 35.7253 78.3887 30.4715C72.0804 25.0389 64.2612 21.1629 55.9236 20.2713C48.2992 19.4564 40.2252 20.0129 32.9969 22.6907C27.8986 24.5784 23.2763 27.6711 19.6042 31.6823C16.3044 35.2888 13.3929 39.6097 11.4776 44.1097C5.7744 57.5063 8.51468 73.6123 18.4329 84.3056Z" fill="url(#paint0_radial_3789_1309)"/>
<path d="M24.4388 54.8071L27.4936 55.4175L28.8312 48.7237C28.9702 48.0278 29.1738 47.524 29.4419 47.2125C29.7163 46.9022 29.994 46.7751 30.2749 46.8312C30.4154 46.8593 30.538 46.9269 30.6427 47.0341C30.7538 47.1427 30.8457 47.2639 30.9185 47.398C30.9926 47.5257 31.0431 47.6552 31.0699 47.7867C31.1044 47.9131 31.1146 48.0115 31.1006 48.0817C31.0866 48.1519 31.0495 48.1877 30.9895 48.1889C30.9372 48.1851 30.8695 48.2081 30.7865 48.2579C30.7112 48.3026 30.627 48.4086 30.5338 48.5759C30.447 48.7444 30.3628 49.033 30.2811 49.4416L27.8241 61.7376C27.7909 61.9036 27.7105 62.007 27.5828 62.0479C27.4602 62.0964 27.3255 62.106 27.1787 62.0767C27.0638 62.0537 26.9521 62.0148 26.8435 61.9599C26.735 61.905 26.6379 61.8425 26.5524 61.7723C26.4732 61.7033 26.4087 61.6274 26.3589 61.5444C26.3142 61.4691 26.2995 61.3931 26.3148 61.3165L27.2199 56.7869L24.1651 56.1765L23.237 60.821C23.2039 60.987 23.1234 61.0904 22.9958 61.1313C22.8732 61.1798 22.7385 61.1894 22.5917 61.1601C22.4767 61.1371 22.365 61.0982 22.2565 61.0433C22.1479 60.9884 22.0509 60.9259 21.9653 60.8557C21.8862 60.7867 21.8217 60.7108 21.7719 60.6278C21.7272 60.5525 21.7125 60.4765 21.7278 60.3999L22.6329 55.8703L21.2348 55.5909C21.1326 55.5705 21.0432 55.5194 20.9666 55.4377C20.8964 55.3573 20.8389 55.2628 20.7942 55.1543C20.7571 55.0407 20.7309 54.9226 20.7156 54.8C20.7066 54.6787 20.7124 54.567 20.7328 54.4649C20.7545 54.3563 20.7947 54.2714 20.8534 54.2101C20.9198 54.1437 21.0009 54.1201 21.0966 54.1392L22.9065 54.5009L24.1733 48.1614C23.5668 48.0402 22.9878 48.0307 22.4362 48.1329C21.8923 48.2301 21.3976 48.43 20.9521 48.7326C20.5142 49.0302 20.137 49.4229 19.8204 49.9107C19.5102 50.3997 19.2894 50.9731 19.158 51.6306C19.0751 52.0456 19.042 52.4274 19.0586 52.7759C19.0753 53.1245 19.1175 53.4284 19.1852 53.6876C19.2542 53.9403 19.3334 54.1421 19.4228 54.2927C19.5122 54.4434 19.5888 54.5251 19.6526 54.5378C19.7101 54.5493 19.7548 54.5416 19.7867 54.5148C19.8186 54.488 19.8601 54.4797 19.9112 54.4899C19.9622 54.5001 19.9872 54.5416 19.9859 54.6144C19.9846 54.6871 19.977 54.7587 19.9629 54.8289C19.9221 55.0332 19.8417 55.2196 19.7217 55.3882C19.603 55.5503 19.4683 55.6761 19.3177 55.7655C19.1747 55.8498 19.024 55.8894 18.8657 55.8843C18.7074 55.8793 18.5682 55.8116 18.4482 55.6814C18.3 55.5256 18.1493 55.3163 17.9961 55.0533C17.8505 54.7852 17.7278 54.4686 17.6282 54.1034C17.5349 53.7395 17.4774 53.3297 17.4556 52.8739C17.4415 52.413 17.488 51.9144 17.5952 51.3781C17.7342 50.6822 17.9486 50.0744 18.2384 49.5547C18.5358 49.0299 18.8804 48.5842 19.2724 48.2177C19.6719 47.8461 20.113 47.5492 20.5956 47.3269C21.0795 47.0983 21.5774 46.9322 22.0894 46.8287C22.609 46.7201 23.1338 46.669 23.6636 46.6753C24.1999 46.6828 24.717 46.7364 25.215 46.8359C25.3171 46.8563 25.4116 46.8984 25.4984 46.9622C25.5866 47.0197 25.6581 47.0937 25.713 47.1844C25.7692 47.2686 25.8094 47.3663 25.8337 47.4774C25.858 47.5884 25.8586 47.7014 25.8357 47.8164L24.4388 54.8071ZM37.4821 60.2019C37.5102 60.1278 37.5645 60.0723 37.6449 60.0352C37.7317 59.9995 37.8249 59.9816 37.9245 59.9816C38.0241 59.9815 38.1231 60.0013 38.2214 60.0409C38.3261 60.0817 38.4097 60.1449 38.4723 60.2304C38.5425 60.3109 38.5815 60.4149 38.5892 60.5426C38.6045 60.6652 38.5714 60.8146 38.4897 60.9908C38.3786 61.2474 38.2325 61.4805 38.0512 61.6899C37.8776 61.8942 37.674 62.066 37.4404 62.2052C37.2067 62.3444 36.9456 62.4383 36.6571 62.4869C36.3685 62.5354 36.0583 62.5265 35.7263 62.4602C35.5475 62.4245 35.3803 62.3811 35.2245 62.33C35.0751 62.2803 34.9321 62.2152 34.7955 62.1348C34.4687 62.5076 34.0882 62.7835 33.6541 62.9623C33.2188 63.1475 32.7202 63.184 32.1584 63.0717C31.6604 62.9722 31.2524 62.7878 30.9345 62.5185C30.6152 62.2555 30.3707 61.9344 30.2008 61.5552C30.0322 61.1697 29.9344 60.7452 29.9076 60.2817C29.8871 59.8195 29.9259 59.3426 30.0241 58.851C30.1683 58.1296 30.3801 57.5014 30.6597 56.9663C30.9469 56.4262 31.2417 55.9806 31.5443 55.6294C31.8481 55.2718 32.1296 55.0094 32.3887 54.8421C32.6543 54.6761 32.8413 54.6039 32.9499 54.6256C33.0775 54.6511 33.181 54.7315 33.2602 54.8669C33.347 54.9971 33.3975 55.1433 33.4115 55.3054C33.4333 55.4625 33.4161 55.615 33.3599 55.7632C33.3101 55.9125 33.2131 56.016 33.0688 56.0735C32.968 56.1795 32.8474 56.3014 32.7069 56.4393C32.5729 56.5785 32.4337 56.7598 32.2895 56.9833C32.1529 57.2017 32.0183 57.4768 31.8855 57.8088C31.7528 58.1408 31.638 58.5494 31.541 59.0346C31.4581 59.4496 31.4211 59.8173 31.4301 60.1378C31.4455 60.4595 31.496 60.7385 31.5816 60.9747C31.6748 61.2058 31.7942 61.389 31.9398 61.5243C32.0918 61.6609 32.2635 61.7483 32.455 61.7866C32.7359 61.8427 32.9792 61.8216 33.1847 61.7233C33.3979 61.6198 33.5907 61.4691 33.763 61.2712C33.3824 60.7835 33.1315 60.2122 33.0101 59.5572C32.8963 58.8971 32.9102 58.2128 33.0518 57.5041C33.1131 57.1977 33.203 56.9136 33.3217 56.6518C33.4481 56.3849 33.5962 56.1589 33.766 55.9738C33.9421 55.7899 34.1413 55.657 34.3634 55.5753C34.5869 55.4872 34.8294 55.4692 35.0912 55.5215C35.321 55.5675 35.5215 55.6938 35.6926 55.9007C35.8638 56.1075 35.9966 56.373 36.0911 56.6973C36.1857 57.0216 36.2342 57.3931 36.2369 57.8119C36.2459 58.232 36.2032 58.6782 36.1088 59.1507C36.0361 59.5146 35.9416 59.8708 35.8255 60.2194C35.7094 60.568 35.5703 60.8987 35.4082 61.2115C35.4733 61.2511 35.5339 61.2798 35.5901 61.2977C35.654 61.3105 35.721 61.3238 35.7912 61.3379C36.0019 61.38 36.1947 61.3787 36.3696 61.334C36.5509 61.2905 36.7118 61.2164 36.8522 61.1117C36.9926 61.007 37.1152 60.8755 37.2199 60.7171C37.3245 60.5588 37.412 60.387 37.4821 60.2019ZM34.1014 57.6342C34.0134 58.0747 33.9968 58.5062 34.0518 58.9289C34.1132 59.3527 34.2262 59.7338 34.391 60.0722C34.4918 59.767 34.5709 59.4708 34.6283 59.1835C34.6947 58.8515 34.7495 58.5438 34.7929 58.2603C34.8439 57.9718 34.8707 57.7215 34.8732 57.5096C34.8821 57.2989 34.8661 57.1297 34.8252 57.002C34.792 56.8693 34.7243 56.7927 34.6222 56.7722C34.3987 56.7276 34.2251 57.0149 34.1014 57.6342ZM44.932 58.9021L47.9869 59.5126L49.3245 52.8187C49.4635 52.1228 49.6671 51.6191 49.9352 51.3075C50.2096 50.9972 50.4873 50.8701 50.7682 50.9263C50.9087 50.9543 51.0313 51.022 51.136 51.1292C51.2471 51.2377 51.339 51.359 51.4118 51.4931C51.4859 51.6207 51.5364 51.7503 51.5632 51.8818C51.5977 52.0082 51.6079 52.1065 51.5939 52.1767C51.5798 52.247 51.5428 52.2827 51.4828 52.284C51.4305 52.2802 51.3628 52.3032 51.2798 52.353C51.2045 52.3977 51.1202 52.5037 51.0271 52.671C50.9403 52.8395 50.8561 53.1281 50.7744 53.5367L48.3174 65.8327C48.2842 65.9986 48.2038 66.1021 48.0761 66.143C47.9535 66.1915 47.8188 66.2011 47.672 66.1718C47.5571 66.1488 47.4454 66.1099 47.3368 66.055C47.2283 66.0001 47.1312 65.9375 47.0457 65.8673C46.9665 65.7984 46.902 65.7224 46.8522 65.6395C46.8075 65.5641 46.7928 65.4882 46.8081 65.4116L47.7132 60.882L44.6584 60.2715L43.7303 64.916C43.6971 65.082 43.6167 65.1855 43.489 65.2263C43.3665 65.2749 43.2318 65.2845 43.0849 65.2551C42.97 65.2322 42.8583 65.1933 42.7498 65.1384C42.6412 65.0835 42.5442 65.0209 42.4586 64.9507C42.3795 64.8818 42.315 64.8058 42.2652 64.7229C42.2205 64.6475 42.2058 64.5716 42.2211 64.495L43.1262 59.9654L41.7281 59.686C41.6259 59.6656 41.5365 59.6145 41.4599 59.5328C41.3897 59.4524 41.3322 59.3579 41.2875 59.2494C41.2504 59.1358 41.2242 59.0177 41.2089 58.8951C41.1999 58.7738 41.2057 58.6621 41.2261 58.5599C41.2478 58.4514 41.288 58.3665 41.3467 58.3052C41.4131 58.2388 41.4941 58.2151 41.5899 58.2343L43.3998 58.596L44.6666 52.2564C44.0601 52.1352 43.4811 52.1258 42.9295 52.228C42.3856 52.3251 41.8909 52.525 41.4454 52.8277C41.0075 53.1253 40.6302 53.518 40.3137 54.0057C40.0035 54.4948 39.7827 55.0681 39.6513 55.7257C39.5684 56.1407 39.5353 56.5224 39.5519 56.871C39.5686 57.2196 39.6108 57.5234 39.6785 57.7826C39.7475 58.0354 39.8267 58.2371 39.9161 58.3878C40.0055 58.5384 40.0821 58.6201 40.1459 58.6329C40.2034 58.6444 40.2481 58.6367 40.28 58.6099C40.3119 58.5831 40.3534 58.5748 40.4045 58.585C40.4555 58.5952 40.4804 58.6367 40.4792 58.7094C40.4779 58.7822 40.4703 58.8537 40.4562 58.9239C40.4154 59.1282 40.335 59.3147 40.215 59.4832C40.0963 59.6454 39.9616 59.7712 39.811 59.8606C39.668 59.9449 39.5173 59.9845 39.359 59.9794C39.2007 59.9743 39.0615 59.9067 38.9415 59.7765C38.7933 59.6207 38.6426 59.4114 38.4894 59.1484C38.3438 58.8803 38.2211 58.5636 38.1215 58.1985C38.0282 57.8346 37.9707 57.4248 37.9489 56.969C37.9348 56.508 37.9813 56.0094 38.0885 55.4732C38.2275 54.7773 38.4419 54.1695 38.7317 53.6498C39.0291 53.125 39.3737 52.6793 39.7656 52.3128C40.1652 51.9412 40.6063 51.6443 41.0889 51.422C41.5728 51.1934 42.0707 51.0273 42.5827 50.9238C43.1023 50.8152 43.6271 50.764 44.1569 50.7703C44.6932 50.7779 45.2103 50.8314 45.7083 50.9309C45.8104 50.9514 45.9049 50.9935 45.9917 51.0573C46.0799 51.1147 46.1514 51.1888 46.2063 51.2794C46.2625 51.3637 46.3027 51.4614 46.327 51.5724C46.3513 51.6835 46.3519 51.7965 46.329 51.9114L44.932 58.9021ZM57.9754 64.297C58.0035 64.2229 58.0578 64.1673 58.1382 64.1303C58.225 64.0945 58.3182 64.0766 58.4178 64.0766C58.5174 64.0766 58.6164 64.0964 58.7147 64.136C58.8194 64.1768 58.903 64.24 58.9656 64.3255C59.0358 64.4059 59.0748 64.51 59.0825 64.6377C59.0978 64.7602 59.0647 64.9096 58.983 65.0858C58.8719 65.3425 58.7258 65.5755 58.5445 65.785C58.3709 65.9893 58.1673 66.161 57.9336 66.3003C57.7 66.4395 57.4389 66.5334 57.1504 66.5819C56.8618 66.6305 56.5516 66.6216 56.2196 66.5553C56.0408 66.5195 55.8736 66.4762 55.7178 66.4251C55.5684 66.3753 55.4254 66.3103 55.2887 66.2298C54.9619 66.6027 54.5815 66.8786 54.1474 67.0574C53.7121 67.2426 53.2135 67.2791 52.6517 67.1668C52.1537 67.0673 51.7457 66.8829 51.4278 66.6135C51.1085 66.3506 50.864 66.0295 50.6941 65.6503C50.5255 65.2647 50.4277 64.8402 50.4009 64.3768C50.3803 63.9146 50.4192 63.4377 50.5174 62.9461C50.6616 62.2247 50.8734 61.5964 51.153 61.0614C51.4402 60.5213 51.735 60.0756 52.0376 59.7245C52.3414 59.3669 52.6229 59.1045 52.882 58.9372C53.1476 58.7711 53.3346 58.699 53.4431 58.7207C53.5708 58.7462 53.6743 58.8266 53.7534 58.9619C53.8403 59.0921 53.8908 59.2383 53.9048 59.4005C53.9266 59.5575 53.9093 59.7101 53.8532 59.8582C53.8034 60.0076 53.7064 60.1111 53.5621 60.1685C53.4613 60.2745 53.3406 60.3965 53.2002 60.5344C53.0662 60.6736 52.927 60.8549 52.7828 61.0784C52.6462 61.2967 52.5116 61.5719 52.3788 61.9039C52.2461 62.2359 52.1313 62.6445 52.0343 63.1297C51.9514 63.5447 51.9144 63.9124 51.9234 64.2329C51.9388 64.5546 51.9893 64.8336 52.0748 65.0698C52.1681 65.3009 52.2875 65.4841 52.4331 65.6194C52.585 65.756 52.7568 65.8434 52.9483 65.8817C53.2292 65.9378 53.4724 65.9167 53.678 65.8183C53.8912 65.7149 54.084 65.5642 54.2563 65.3663C53.8757 64.8786 53.6248 64.3073 53.5033 63.6523C53.3896 62.9922 53.4035 62.3078 53.5451 61.5992C53.6064 61.2927 53.6963 61.0086 53.815 60.7469C53.9414 60.48 54.0895 60.254 54.2592 60.0688C54.4354 59.8849 54.6346 59.7521 54.8567 59.6704C55.0801 59.5822 55.3227 59.5643 55.5845 59.6166C55.8143 59.6625 56.0148 59.7889 56.1859 59.9957C56.357 60.2025 56.4899 60.4681 56.5844 60.7924C56.679 61.1167 56.7275 61.4882 56.7302 61.907C56.7392 62.3271 56.6965 62.7733 56.6021 63.2457C56.5294 63.6096 56.4349 63.9659 56.3188 64.3145C56.2027 64.6631 56.0636 64.9938 55.9015 65.3066C55.9666 65.3462 56.0272 65.3749 56.0834 65.3928C56.1473 65.4055 56.2143 65.4189 56.2845 65.433C56.4952 65.475 56.688 65.4737 56.8629 65.429C57.0442 65.3856 57.2051 65.3115 57.3455 65.2068C57.4859 65.1021 57.6085 64.9705 57.7131 64.8122C57.8178 64.6538 57.9052 64.4821 57.9754 64.297ZM54.5947 61.7292C54.5067 62.1698 54.4901 62.6013 54.5451 63.0239C54.6065 63.4478 54.7195 63.8289 54.8843 64.1672C54.9851 63.8621 55.0642 63.5658 55.1216 63.2785C55.188 62.9466 55.2428 62.6389 55.2862 62.3554C55.3372 62.0668 55.364 61.8166 55.3665 61.6046C55.3754 61.394 55.3594 61.2248 55.3185 61.0971C55.2853 60.9643 55.2176 60.8877 55.1155 60.8673C54.892 60.8227 54.7184 61.11 54.5947 61.7292ZM65.4253 62.9972L68.4802 63.6076L69.8178 56.9138C69.9568 56.2179 70.1604 55.7142 70.4285 55.4026C70.7029 55.0923 70.9806 54.9652 71.2615 55.0213C71.402 55.0494 71.5245 55.1171 71.6293 55.2243C71.7404 55.3328 71.8323 55.4541 71.9051 55.5881C71.9792 55.7158 72.0296 55.8454 72.0565 55.9769C72.091 56.1033 72.1012 56.2016 72.0872 56.2718C72.0731 56.342 72.0361 56.3778 71.9761 56.3791C71.9238 56.3753 71.8561 56.3983 71.7731 56.4481C71.6978 56.4928 71.6135 56.5988 71.5204 56.766C71.4336 56.9346 71.3493 57.2232 71.2677 57.6317L68.8107 69.9277C68.7775 70.0937 68.6971 70.1971 68.5694 70.238C68.4468 70.2866 68.3121 70.2962 68.1653 70.2668C68.0504 70.2439 67.9386 70.2049 67.8301 70.1501C67.7216 70.0952 67.6245 70.0326 67.539 69.9624C67.4598 69.8935 67.3953 69.8175 67.3455 69.7345C67.3008 69.6592 67.2861 69.5832 67.3014 69.5066L68.2065 64.977L65.1517 64.3666L64.2236 69.0111C64.1904 69.1771 64.11 69.2805 63.9823 69.3214C63.8598 69.37 63.7251 69.3796 63.5782 69.3502C63.4633 69.3273 63.3516 69.2883 63.2431 69.2334C63.1345 69.1786 63.0375 69.116 62.9519 69.0458C62.8727 68.9769 62.8083 68.9009 62.7584 68.8179C62.7137 68.7426 62.6991 68.6666 62.7144 68.59L63.6195 64.0604L62.2213 63.7811C62.1192 63.7606 62.0298 63.7096 61.9532 63.6279C61.883 63.5475 61.8255 63.453 61.7808 63.3445C61.7437 63.2308 61.7175 63.1127 61.7022 62.9902C61.6932 62.8689 61.699 62.7571 61.7194 62.655C61.7411 62.5465 61.7813 62.4616 61.84 62.4003C61.9064 62.3339 61.9874 62.3102 62.0832 62.3294L63.8931 62.691L65.1599 56.3515C64.5534 56.2303 63.9744 56.2208 63.4228 56.3231C62.8789 56.4202 62.3842 56.6201 61.9387 56.9228C61.5008 57.2203 61.1235 57.613 60.807 58.1008C60.4968 58.5899 60.276 59.1632 60.1446 59.8208C60.0617 60.2357 60.0286 60.6175 60.0452 60.9661C60.0619 61.3146 60.104 61.6185 60.1718 61.8777C60.2408 62.1305 60.3199 62.3322 60.4094 62.4829C60.4988 62.6335 60.5754 62.7152 60.6392 62.728C60.6967 62.7394 60.7414 62.7318 60.7733 62.705C60.8052 62.6781 60.8467 62.6698 60.8978 62.68C60.9488 62.6902 60.9737 62.7317 60.9725 62.8045C60.9712 62.8773 60.9636 62.9488 60.9495 63.019C60.9087 63.2233 60.8283 63.4097 60.7083 63.5783C60.5896 63.7405 60.4549 63.8663 60.3043 63.9557C60.1613 64.0399 60.0106 64.0796 59.8523 64.0745C59.694 64.0694 59.5548 64.0017 59.4347 63.8715C59.2866 63.7158 59.1359 63.5064 58.9827 63.2434C58.8371 62.9753 58.7144 62.6587 58.6148 62.2936C58.5215 61.9297 58.464 61.5198 58.4422 61.064C58.4281 60.6031 58.4746 60.1045 58.5818 59.5682C58.7208 58.8724 58.9352 58.2646 59.225 57.7449C59.5224 57.22 59.867 56.7744 60.2589 56.4079C60.6585 56.0363 61.0996 55.7393 61.5822 55.5171C62.0661 55.2885 62.564 55.1224 63.076 55.0189C63.5956 54.9103 64.1204 54.8591 64.6502 54.8654C65.1865 54.873 65.7036 54.9265 66.2016 55.026C66.3037 55.0464 66.3982 55.0885 66.485 55.1524C66.5731 55.2098 66.6447 55.2839 66.6996 55.3745C66.7558 55.4588 66.796 55.5564 66.8203 55.6675C66.8446 55.7786 66.8452 55.8916 66.8223 56.0065L65.4253 62.9972ZM78.4687 68.392C78.4968 68.318 78.5511 68.2624 78.6315 68.2254C78.7183 68.1896 78.8115 68.1717 78.9111 68.1717C79.0107 68.1717 79.1097 68.1915 79.208 68.231C79.3127 68.2719 79.3963 68.3351 79.4589 68.4206C79.5291 68.501 79.5681 68.6051 79.5758 68.7327C79.5911 68.8553 79.5579 69.0047 79.4763 69.1809C79.3652 69.4376 79.2191 69.6706 79.0378 69.88C78.8642 70.0844 78.6606 70.2561 78.4269 70.3953C78.1933 70.5345 77.9322 70.6284 77.6437 70.677C77.3551 70.7256 77.0449 70.7167 76.7129 70.6503C76.5341 70.6146 76.3669 70.5712 76.2111 70.5202C76.0617 70.4704 75.9187 70.4053 75.782 70.3249C75.4552 70.6978 75.0748 70.9736 74.6407 71.1525C74.2054 71.3377 73.7068 71.3741 73.145 71.2619C72.647 71.1624 72.239 70.978 71.9211 70.7086C71.6018 70.4456 71.3573 70.1246 71.1874 69.7454C71.0188 69.3598 70.921 68.9353 70.8941 68.4718C70.8736 68.0096 70.9125 67.5327 71.0107 67.0412C71.1549 66.3197 71.3667 65.6915 71.6463 65.1565C71.9334 64.6164 72.2283 64.1707 72.5309 63.8195C72.8347 63.462 73.1162 63.1996 73.3753 63.0322C73.6409 62.8662 73.8279 62.794 73.9364 62.8157C74.0641 62.8412 74.1676 62.9217 74.2467 63.057C74.3336 63.1872 74.384 63.3334 74.3981 63.4956C74.4198 63.6526 74.4026 63.8052 74.3465 63.9533C74.2967 64.1027 74.1997 64.2061 74.0554 64.2636C73.9546 64.3696 73.8339 64.4915 73.6935 64.6295C73.5595 64.7687 73.4203 64.95 73.2761 65.1735C73.1395 65.3918 73.0049 65.667 72.8721 65.999C72.7394 66.331 72.6246 66.7396 72.5276 67.2248C72.4447 67.6397 72.4077 68.0075 72.4167 68.3279C72.4321 68.6497 72.4826 68.9286 72.5681 69.1648C72.6614 69.3959 72.7808 69.5791 72.9264 69.7144C73.0783 69.851 73.2501 69.9385 73.4416 69.9767C73.7225 70.0329 73.9657 70.0118 74.1713 69.9134C74.3845 69.81 74.5773 69.6593 74.7496 69.4613C74.369 68.9737 74.118 68.4023 73.9966 67.7474C73.8829 67.0873 73.8968 66.4029 74.0384 65.6943C74.0997 65.3878 74.1896 65.1037 74.3083 64.842C74.4347 64.5751 74.5828 64.3491 74.7525 64.1639C74.9287 63.98 75.1279 63.8472 75.35 63.7654C75.5734 63.6773 75.816 63.6594 76.0778 63.7117C76.3076 63.7576 76.5081 63.884 76.6792 64.0908C76.8503 64.2976 76.9832 64.5632 77.0777 64.8874C77.1722 65.2117 77.2208 65.5833 77.2235 66.0021C77.2325 66.4221 77.1898 66.8684 77.0954 67.3408C77.0226 67.7047 76.9282 68.061 76.8121 68.4095C76.696 68.7581 76.5568 69.0888 76.3947 69.4017C76.4599 69.4413 76.5205 69.47 76.5767 69.4878C76.6405 69.5006 76.7076 69.514 76.7778 69.528C76.9885 69.5701 77.1813 69.5688 77.3562 69.5241C77.5375 69.4807 77.6984 69.4066 77.8388 69.3018C77.9792 69.1971 78.1018 69.0656 78.2064 68.9073C78.3111 68.7489 78.3985 68.5772 78.4687 68.392ZM75.088 65.8243C75 66.2648 74.9834 66.6964 75.0384 67.119C75.0998 67.5429 75.2128 67.924 75.3776 68.2623C75.4784 67.9571 75.5575 67.6609 75.6149 67.3736C75.6813 67.0416 75.7361 66.7339 75.7795 66.4505C75.8305 66.1619 75.8573 65.9116 75.8598 65.6997C75.8687 65.489 75.8527 65.3199 75.8118 65.1922C75.7786 65.0594 75.7109 64.9828 75.6088 64.9624C75.3853 64.9177 75.2117 65.205 75.088 65.8243ZM80.5701 70.6842C80.8382 70.7377 81.0464 70.8756 81.1945 71.0977C81.3439 71.3135 81.3919 71.5554 81.3383 71.8236C81.314 71.9449 81.2649 72.0579 81.1909 72.1626C81.1181 72.2609 81.0287 72.3426 80.9228 72.4078C80.8232 72.4742 80.7108 72.5214 80.5857 72.5496C80.4606 72.5777 80.331 72.5783 80.1969 72.5515C80.0693 72.526 79.9531 72.4763 79.8484 72.4022C79.7436 72.3282 79.6549 72.2407 79.5821 72.1399C79.5157 72.0403 79.4678 71.9311 79.4384 71.8124C79.4103 71.6873 79.4084 71.5641 79.4326 71.4428C79.4594 71.3087 79.5098 71.1893 79.5838 71.0846C79.6579 70.9799 79.7447 70.8943 79.8443 70.8279C79.9515 70.7564 80.067 70.7098 80.1909 70.6881C80.316 70.6599 80.4424 70.6586 80.5701 70.6842ZM81.6405 69.3146C81.5894 69.57 81.4918 69.743 81.3475 69.8337C81.2033 69.9244 81.0481 69.9531 80.8821 69.9199C80.78 69.8995 80.6791 69.8561 80.5795 69.7898C80.4799 69.7234 80.3931 69.643 80.319 69.5485C80.2526 69.4489 80.2015 69.3391 80.1657 69.2191C80.1376 69.094 80.137 68.9644 80.1638 68.8303L82.0946 59.1678C82.1316 58.9827 82.1277 58.8359 82.083 58.7273C82.046 58.6137 82.0351 58.5186 82.0504 58.442C82.0644 58.3717 82.1238 58.3239 82.2285 58.2983C82.3332 58.2728 82.4877 58.2804 82.692 58.3212C82.826 58.348 82.9544 58.3869 83.0769 58.438C83.2059 58.4903 83.3151 58.5586 83.4045 58.6428C83.5015 58.722 83.5718 58.819 83.6152 58.9339C83.6599 59.0424 83.6669 59.1733 83.6363 59.3265L81.6405 69.3146Z" fill="#810002"/>
<path fill-rule="evenodd" clip-rule="evenodd" d="M80.7757 40.5273C79.4717 30.0625 64.3747 22.6663 47.1002 24.0259C29.8256 25.3854 16.8652 34.9552 18.1978 45.3919C19.5019 55.8567 34.5988 63.2529 51.8734 61.8933C69.148 60.5338 82.1083 50.964 80.7757 40.5273Z" fill="url(#paint1_radial_3789_1309)"/>
<defs>
<radialGradient id="paint0_radial_3789_1309" cx="0" cy="0" r="1" gradientUnits="userSpaceOnUse" gradientTransform="translate(76.5002 34.5) rotate(135.377) scale(107.483 98.8397)">
<stop stop-color="#FFB6B7"/>
<stop offset="0.536315" stop-color="#ED6062"/>
<stop offset="1" stop-color="#F0A3A4" stop-opacity="0"/>
</radialGradient>
<radialGradient id="paint1_radial_3789_1309" cx="0" cy="0" r="1" gradientTransform="matrix(-13.3161 43.0852 -39.3111 -14.0752 56.7012 24.1442)" gradientUnits="userSpaceOnUse">
<stop stop-color="white"/>
<stop offset="1" stop-color="white" stop-opacity="0"/>
</radialGradient>
</defs>
</svg>
