<svg width="213" height="233" viewBox="0 0 213 233" fill="none" xmlns="http://www.w3.org/2000/svg">
<path d="M166.509 159.732C151.648 170.282 133.042 174.55 115.049 173.221C109.23 172.792 103.471 171.766 97.8602 170.159C95.2111 169.402 92.5978 168.517 90.0427 167.484C88.7825 166.975 87.5365 166.433 86.3015 165.863C85.032 165.275 83.6807 164.326 82.232 164.881C81.0866 165.32 80.0304 166.224 78.946 166.811C77.7932 167.438 76.598 167.99 75.3907 168.502C73.1425 169.451 70.8219 170.241 68.4584 170.84C64.0923 171.945 59.5559 172.552 55.0524 172.44C54.2701 172.421 53.4893 172.381 52.7103 172.314C57.3922 165.773 61.1581 158.615 63.8819 151.026C64.0226 150.637 64.0223 150.051 63.7211 149.718C56.3878 141.712 51.048 131.976 49.1897 121.172C47.6066 111.955 48.7906 102.333 52.4055 93.7289C59.3167 77.2764 74.3115 65.6795 90.7705 59.9653C101.334 56.299 112.584 55.0139 123.704 55.7731C141.752 57.0942 159.533 64.0405 172.732 76.6912C184.303 87.7797 191.537 103.299 190.386 119.57C189.236 135.842 179.677 150.384 166.506 159.732L166.509 159.732Z" fill="url(#paint0_radial_3789_1310)"/>
<path d="M111.526 101.083C111.63 101.216 111.614 101.358 111.477 101.511C111.341 101.663 111.137 101.793 110.867 101.902C110.593 102.021 110.29 102.1 109.956 102.138C109.623 102.176 109.313 102.141 109.028 102.035C108.753 101.932 108.508 101.758 108.292 101.514C108.077 101.27 107.916 100.952 107.812 100.56C107.721 100.16 107.691 99.6927 107.719 99.159C107.758 98.6289 107.89 98.0245 108.114 97.3457L113.338 81.5219C113.552 80.8765 113.65 80.3537 113.634 79.9535C113.629 79.557 113.564 79.2515 113.437 79.0369C113.325 78.8149 113.178 78.6615 112.997 78.5768C112.83 78.4846 112.69 78.4201 112.579 78.3834C112.457 78.343 112.295 78.3082 112.095 78.2792C111.895 78.2501 111.675 78.3007 111.434 78.4311C111.209 78.5541 110.968 78.7956 110.714 79.1558C110.463 79.5049 110.216 80.0466 109.973 80.781L103.878 99.2421C103.911 99.2532 103.939 99.2809 103.961 99.3253C103.991 99.3845 104.001 99.4308 103.99 99.4642C103.96 99.5532 103.864 99.6202 103.701 99.6651C103.546 99.7248 103.36 99.7624 103.146 99.7779C102.927 99.8044 102.688 99.7995 102.428 99.7632C102.176 99.7417 101.945 99.696 101.733 99.6262C101.511 99.5527 101.32 99.4588 101.16 99.3444C101.011 99.2336 100.99 99.0169 101.097 98.6942L107.413 79.5654C107.626 78.92 107.73 78.399 107.725 78.0025C107.732 77.6097 107.677 77.3078 107.562 77.0969C107.45 76.8749 107.303 76.7215 107.121 76.6368C106.954 76.5446 106.804 76.4765 106.67 76.4324C106.559 76.3956 106.403 76.3627 106.203 76.3337C106.018 76.2971 105.808 76.3329 105.575 76.441C105.346 76.5381 105.105 76.7426 104.854 77.0546C104.614 77.3702 104.388 77.8508 104.175 78.4962L99.1759 93.6356C98.6762 95.149 98.0456 96.2181 97.2839 96.8428C96.5223 97.4676 95.663 97.6219 94.706 97.3059C94.3833 97.1994 94.1346 97.0556 93.9599 96.8745C93.7963 96.6971 93.6809 96.5047 93.6136 96.2974C93.5463 96.09 93.5161 95.8826 93.5229 95.675C93.5409 95.4712 93.5756 95.2913 93.627 95.1355C93.6527 95.0577 93.6915 95.0149 93.7434 95.0074C93.8064 95.0035 93.8824 95.0162 93.9714 95.0456C94.0604 95.075 94.1606 95.1081 94.2718 95.1448C94.3868 95.1704 94.5128 95.1812 94.6499 95.1771C94.7759 95.1693 94.9166 95.1171 95.0719 95.0203C95.2384 94.9272 95.4085 94.7673 95.582 94.5408C95.7555 94.3142 95.9344 94.0154 96.1186 93.6443C96.3029 93.2732 96.4887 92.8039 96.6761 92.2364L101.394 77.9482C101.724 76.9467 102.126 76.1414 102.599 75.5323C103.082 74.9269 103.596 74.4733 104.14 74.1716C104.684 73.8699 105.238 73.7071 105.801 73.6833C106.375 73.6631 106.918 73.7376 107.43 73.9066C107.575 73.9543 107.764 74.0353 107.998 74.1495C108.235 74.2526 108.482 74.402 108.738 74.5977C109.006 74.7971 109.259 75.0409 109.497 75.3293C109.738 75.6065 109.941 75.9451 110.105 76.3448C110.42 76.103 110.734 75.9354 111.049 75.8419C111.367 75.7372 111.665 75.6752 111.943 75.6559C112.232 75.6402 112.492 75.658 112.722 75.7093C112.966 75.753 113.172 75.8025 113.339 75.8576C113.873 76.034 114.365 76.3012 114.814 76.6594C115.275 77.0213 115.634 77.4853 115.891 78.0516C116.16 78.6215 116.308 79.2937 116.336 80.0682C116.364 80.8426 116.213 81.7306 115.882 82.7321L110.861 97.9383C110.744 98.2944 110.676 98.6299 110.659 98.945C110.656 99.2526 110.684 99.5397 110.744 99.8063C110.819 100.066 110.926 100.304 111.063 100.523C111.205 100.73 111.359 100.916 111.526 101.083ZM124.244 94.9709C124.035 95.6052 123.708 96.2194 123.265 96.8136C122.833 97.4114 122.301 97.9392 121.669 98.3968C121.051 98.8469 120.346 99.2065 119.554 99.4756C118.777 99.7372 117.936 99.8545 117.031 99.8274C117.047 100.153 117.1 100.479 117.19 100.805C117.294 101.124 117.444 101.42 117.637 101.693C117.831 101.967 118.076 102.215 118.373 102.436C118.681 102.661 119.058 102.847 119.503 102.994C120.171 103.215 120.784 103.282 121.343 103.195C121.906 103.097 122.417 102.895 122.876 102.59C123.346 102.289 123.765 101.915 124.135 101.469C124.504 101.024 124.825 100.556 125.098 100.066C125.301 99.7132 125.539 99.5142 125.813 99.469C126.102 99.4163 126.358 99.4637 126.581 99.6113C126.815 99.7626 126.984 99.9789 127.088 100.26C127.208 100.534 127.201 100.816 127.068 101.105C126.91 101.435 126.702 101.805 126.444 102.213C126.196 102.625 125.892 103.024 125.53 103.411C125.168 103.797 124.746 104.158 124.265 104.493C123.799 104.82 123.27 105.078 122.678 105.264C122.085 105.451 121.432 105.544 120.716 105.542C120.001 105.541 119.226 105.402 118.392 105.127C117.613 104.869 116.907 104.464 116.276 103.91C115.652 103.37 115.15 102.723 114.77 101.968C114.404 101.206 114.187 100.351 114.117 99.4021C114.063 98.4462 114.212 97.434 114.565 96.3658C114.921 95.2864 115.402 94.3345 116.007 93.5101C116.616 92.6745 117.278 91.9982 117.992 91.4811C118.705 90.9639 119.436 90.6191 120.184 90.4465C120.936 90.2628 121.64 90.2793 122.297 90.4961C122.775 90.6541 123.176 90.879 123.499 91.1708C123.834 91.4663 124.083 91.814 124.247 92.2137C124.415 92.6024 124.496 93.0302 124.49 93.4971C124.495 93.9677 124.413 94.459 124.244 94.9709ZM117.402 97.1915C117.369 97.2917 117.341 97.3937 117.319 97.4975C117.297 97.6013 117.268 97.7089 117.231 97.8201C117.72 97.7595 118.189 97.6303 118.637 97.4326C119.084 97.2349 119.497 96.9762 119.874 96.6564C120.251 96.3367 120.584 95.9651 120.871 95.5419C121.163 95.1075 121.393 94.6343 121.562 94.1224C121.687 93.7441 121.718 93.4272 121.654 93.1716C121.601 92.9198 121.464 92.7571 121.241 92.6836C120.963 92.5918 120.681 92.6037 120.396 92.7194C120.123 92.8387 119.851 93.0267 119.581 93.2831C119.326 93.5321 119.079 93.833 118.839 94.1857C118.614 94.531 118.403 94.8874 118.208 95.2548C118.013 95.6222 117.845 95.9803 117.705 96.3291C117.569 96.6667 117.468 96.9542 117.402 97.1915ZM130.376 109.084C129.976 108.951 129.584 108.754 129.202 108.492C128.83 108.234 128.522 107.898 128.276 107.483C128.042 107.073 127.894 106.586 127.833 106.023C127.787 105.452 127.889 104.788 128.139 104.032C128.502 102.93 129.031 101.815 129.724 100.686C130.433 99.5504 131.309 98.3342 132.354 97.0379L129.75 96.1782L129.367 96.0514C129.245 96.3816 129.083 96.7971 128.881 97.2979C128.69 97.8025 128.465 98.333 128.207 98.8896C127.949 99.4462 127.668 100.001 127.362 100.554C127.067 101.111 126.759 101.614 126.438 102.063C126.209 102.382 125.963 102.53 125.699 102.504C125.447 102.483 125.227 102.367 125.037 102.156C124.851 101.934 124.73 101.666 124.673 101.351C124.617 101.036 124.675 100.747 124.849 100.483C125.052 100.168 125.267 99.7762 125.496 99.3087C125.728 98.83 125.951 98.3235 126.164 97.7892C126.392 97.2475 126.608 96.7077 126.81 96.1698C127.016 95.6208 127.196 95.1311 127.35 94.7008C127.005 94.3275 126.752 93.9169 126.591 93.4689C126.434 93.0098 126.438 92.5299 126.604 92.0292C126.681 91.7955 126.795 91.5988 126.947 91.439C127.113 91.2717 127.296 91.1471 127.496 91.065C127.699 90.9718 127.918 90.9267 128.151 90.9297C128.389 90.9216 128.618 90.9543 128.841 91.0278C129.041 91.094 129.238 91.1897 129.431 91.3152C129.635 91.4443 129.808 91.6124 129.949 91.8196C130.102 92.0304 130.217 92.2783 130.296 92.5634C130.375 92.8486 130.407 93.1802 130.393 93.5582C130.661 93.6834 130.885 93.7884 131.067 93.8731C131.264 93.9504 131.427 94.0166 131.557 94.0718C131.687 94.1271 131.796 94.1694 131.885 94.1988C131.974 94.2282 132.063 94.2575 132.152 94.2869L133.938 94.8767C134.038 94.9097 134.163 95.0187 134.311 95.2036C134.471 95.3921 134.613 95.6178 134.736 95.8805C134.863 96.1322 134.95 96.3895 134.999 96.6524C135.059 96.9191 135.04 97.147 134.94 97.3363C134.918 97.4031 134.826 97.5516 134.663 97.7818C134.501 98.012 134.3 98.3035 134.06 98.6562C133.82 99.009 133.549 99.4192 133.246 99.887C132.947 100.344 132.651 100.832 132.356 101.351C132.061 101.871 131.775 102.419 131.499 102.994C131.226 103.558 130.996 104.124 130.809 104.691C130.731 104.925 130.684 105.162 130.666 105.403C130.648 105.644 130.666 105.872 130.718 106.087C130.774 106.29 130.869 106.47 131.003 106.625C131.148 106.784 131.337 106.902 131.571 106.979C131.961 107.108 132.335 107.096 132.694 106.943C133.053 106.79 133.388 106.561 133.698 106.256C134.008 105.951 134.289 105.606 134.54 105.22C134.806 104.826 135.04 104.453 135.243 104.1C135.427 103.766 135.623 103.547 135.83 103.443C136.041 103.327 136.23 103.297 136.397 103.352C136.53 103.396 136.655 103.487 136.77 103.624C136.889 103.749 136.982 103.897 137.049 104.068C137.128 104.241 137.173 104.423 137.184 104.612C137.207 104.805 137.191 104.984 137.136 105.151C137.117 105.207 137.097 105.25 137.075 105.279C137.053 105.309 137.036 105.34 137.025 105.374C136.682 105.89 136.28 106.417 135.818 106.956C135.367 107.498 134.861 107.967 134.299 108.361C133.737 108.755 133.126 109.035 132.467 109.2C131.808 109.365 131.111 109.326 130.376 109.084ZM140.892 112.556C140.492 112.424 140.1 112.226 139.718 111.964C139.346 111.706 139.038 111.37 138.792 110.955C138.557 110.545 138.41 110.058 138.349 109.495C138.303 108.924 138.404 108.26 138.654 107.504C139.018 106.402 139.547 105.287 140.24 104.159C140.948 103.023 141.825 101.806 142.87 100.51L140.266 99.6503L139.882 99.5236C139.761 99.8537 139.599 100.269 139.397 100.77C139.205 101.275 138.981 101.805 138.723 102.362C138.465 102.918 138.183 103.473 137.877 104.026C137.582 104.583 137.274 105.086 136.953 105.535C136.724 105.855 136.478 106.002 136.215 105.977C135.963 105.955 135.742 105.839 135.553 105.628C135.367 105.406 135.246 105.138 135.189 104.823C135.133 104.508 135.191 104.219 135.365 103.956C135.568 103.64 135.783 103.248 136.012 102.781C136.244 102.302 136.467 101.796 136.68 101.261C136.908 100.72 137.123 100.18 137.326 99.642C137.532 99.0929 137.712 98.6033 137.866 98.1729C137.521 97.7996 137.267 97.389 137.107 96.9411C136.95 96.482 136.954 96.0021 137.119 95.5013C137.197 95.2676 137.311 95.0709 137.462 94.9111C137.629 94.7439 137.812 94.6192 138.012 94.5371C138.215 94.4439 138.434 94.3988 138.667 94.4019C138.904 94.3938 139.134 94.4265 139.357 94.5C139.557 94.5661 139.754 94.6619 139.947 94.7873C140.151 94.9165 140.324 95.0846 140.465 95.2917C140.618 95.5025 140.733 95.7505 140.812 96.0356C140.891 96.3207 140.923 96.6523 140.909 97.0303C141.176 97.1556 141.401 97.2606 141.583 97.3453C141.779 97.4225 141.943 97.4888 142.072 97.544C142.202 97.5992 142.312 97.6415 142.401 97.6709C142.49 97.7003 142.579 97.7297 142.668 97.7591L144.454 98.3488C144.554 98.3819 144.678 98.4909 144.827 98.6757C144.987 98.8643 145.129 99.0899 145.252 99.3527C145.378 99.6043 145.466 99.8616 145.515 100.125C145.575 100.391 145.555 100.619 145.456 100.808C145.434 100.875 145.342 101.024 145.179 101.254C145.017 101.484 144.816 101.776 144.576 102.128C144.336 102.481 144.065 102.891 143.762 103.359C143.463 103.816 143.166 104.304 142.871 104.824C142.576 105.343 142.291 105.891 142.014 106.466C141.742 107.03 141.512 107.596 141.324 108.163C141.247 108.397 141.2 108.634 141.182 108.875C141.164 109.116 141.181 109.344 141.234 109.559C141.29 109.762 141.385 109.942 141.519 110.097C141.664 110.256 141.853 110.374 142.087 110.451C142.476 110.58 142.851 110.568 143.21 110.415C143.569 110.262 143.903 110.033 144.214 109.728C144.524 109.423 144.805 109.078 145.056 108.692C145.321 108.298 145.556 107.925 145.759 107.573C145.943 107.239 146.139 107.019 146.346 106.915C146.557 106.8 146.746 106.769 146.913 106.824C147.046 106.869 147.171 106.959 147.286 107.096C147.405 107.221 147.498 107.369 147.565 107.54C147.643 107.714 147.688 107.895 147.7 108.084C147.723 108.277 147.707 108.456 147.652 108.623C147.633 108.679 147.613 108.722 147.591 108.751C147.569 108.781 147.552 108.813 147.541 108.846C147.198 109.362 146.795 109.889 146.334 110.428C145.883 110.97 145.377 111.439 144.815 111.833C144.252 112.228 143.642 112.507 142.983 112.672C142.323 112.837 141.627 112.798 140.892 112.556ZM158.06 111.634C158.278 111.311 158.479 111.094 158.664 110.982C158.853 110.86 159.036 110.828 159.214 110.886C159.348 110.93 159.472 111.021 159.588 111.158C159.707 111.283 159.8 111.431 159.867 111.602C159.945 111.775 159.99 111.957 160.002 112.146C160.025 112.339 160.008 112.518 159.953 112.685C159.946 112.707 159.931 112.752 159.909 112.819C159.887 112.886 159.854 112.949 159.81 113.008C159.193 113.903 158.564 114.67 157.921 115.309C157.293 115.941 156.657 116.484 156.013 116.938C155.381 117.395 154.754 117.781 154.132 118.094C153.507 118.418 152.894 118.703 152.295 118.949L150.344 124.858C150.046 125.76 149.69 126.481 149.277 127.024C148.871 127.581 148.438 127.993 147.98 128.261C147.517 128.541 147.047 128.694 146.569 128.721C146.091 128.748 145.635 128.69 145.201 128.547C144.723 128.389 144.318 128.138 143.987 127.795C143.653 127.462 143.394 127.068 143.211 126.613C143.039 126.161 142.949 125.669 142.94 125.135C142.942 124.605 143.033 124.067 143.213 123.522C143.5 122.654 143.865 121.923 144.308 121.329C144.762 120.738 145.276 120.229 145.849 119.801C146.422 119.374 147.045 118.999 147.719 118.679C148.389 118.369 149.09 118.058 149.823 117.745L151.256 113.405C150.616 113.959 149.952 114.363 149.264 114.617C148.572 114.882 147.858 114.893 147.124 114.651C146.556 114.463 146.083 114.177 145.704 113.793C145.336 113.412 145.066 112.959 144.894 112.433C144.726 111.896 144.657 111.3 144.689 110.644C144.735 109.981 144.881 109.276 145.128 108.53C145.425 107.629 145.786 106.742 146.21 105.87C146.644 105.002 147.061 104.226 147.459 103.543C147.92 102.745 148.4 101.984 148.898 101.26C149.001 101.134 149.088 101.002 149.158 100.865C149.243 100.72 149.356 100.603 149.496 100.514C149.637 100.424 149.826 100.375 150.063 100.367C150.311 100.363 150.663 100.436 151.12 100.587C151.542 100.726 151.789 100.894 151.86 101.09C151.935 101.276 151.923 101.463 151.823 101.652C151.735 101.845 151.6 102.029 151.419 102.203C151.249 102.382 151.125 102.532 151.048 102.655C150.682 103.238 150.352 103.77 150.057 104.253C149.762 104.736 149.482 105.229 149.216 105.734C148.966 106.231 148.723 106.762 148.487 107.326C148.255 107.879 148.022 108.511 147.787 109.223C147.478 110.158 147.378 110.909 147.487 111.475C147.607 112.046 147.918 112.414 148.419 112.579C148.764 112.693 149.123 112.67 149.497 112.509C149.882 112.352 150.261 112.101 150.634 111.756C151.022 111.402 151.396 110.983 151.754 110.496C152.115 109.999 152.446 109.466 152.744 108.898L154.563 103.39C154.669 103.067 154.724 102.826 154.728 102.667C154.731 102.507 154.753 102.366 154.793 102.244C154.848 102.077 154.976 101.971 155.176 101.926C155.39 101.874 155.62 101.888 155.865 101.969C156.433 102.156 156.828 102.453 157.052 102.86C157.29 103.26 157.341 103.665 157.205 104.077L153.242 116.078C154.093 115.594 154.926 114.999 155.739 114.293C156.552 113.586 157.326 112.7 158.06 111.634ZM145.912 126.394C146.179 126.482 146.416 126.437 146.623 126.259C146.83 126.08 147.006 125.848 147.149 125.562C147.3 125.291 147.426 125.006 147.525 124.705C147.624 124.405 147.701 124.171 147.756 124.004L148.963 120.349C148.223 120.721 147.565 121.201 146.988 121.788C146.423 122.379 145.971 123.186 145.633 124.21C145.457 124.744 145.388 125.215 145.426 125.623C145.472 126.045 145.634 126.302 145.912 126.394Z" fill="#006381"/>
<path d="M67.4587 103.075C67.8816 103.215 68.3506 103.29 68.8657 103.299C69.3845 103.298 69.9143 103.244 70.455 103.139C71.0106 103.026 71.553 102.86 72.0823 102.64C72.6264 102.412 73.1241 102.138 73.5753 101.818C74.0413 101.491 74.446 101.125 74.7895 100.72C75.1367 100.304 75.3893 99.8566 75.5473 99.3781C75.6134 99.1778 75.6443 98.9535 75.6399 98.7052C75.6466 98.4606 75.5977 98.2162 75.4933 97.9719C75.3999 97.7313 75.2399 97.5057 75.0133 97.2951C74.7903 97.0734 74.4841 96.8982 74.0946 96.7696C73.3379 96.5198 72.5558 96.459 71.7483 96.5873C70.9519 96.7193 70.1578 96.9939 69.366 97.4112C68.5741 97.8285 67.7974 98.368 67.0359 99.0298C66.2892 99.6842 65.5909 100.416 64.9409 101.226C64.3021 102.039 63.7265 102.904 63.214 103.821C62.7126 104.742 62.3094 105.664 62.0045 106.587C61.6554 107.644 61.4101 108.705 61.2686 109.769C61.1308 110.822 61.141 111.8 61.2992 112.704C61.4685 113.611 61.8154 114.411 62.3399 115.102C62.8681 115.783 63.6273 116.286 64.6177 116.613C65.341 116.852 66.0269 116.961 66.6754 116.941C67.3238 116.921 67.8943 116.856 68.3869 116.747C68.8831 116.627 69.2774 116.498 69.5698 116.36C69.8658 116.211 70.0268 116.135 70.0528 116.131C70.2783 115.934 70.4874 115.843 70.6801 115.857C70.884 115.875 71.0547 115.956 71.1922 116.1C71.3409 116.248 71.4563 116.44 71.5385 116.677C71.6244 116.903 71.6713 117.134 71.6794 117.372C71.6986 117.612 71.6678 117.837 71.5868 118.044C71.5059 118.252 71.3766 118.401 71.199 118.49C71.1694 118.505 71.0584 118.561 70.8659 118.658C70.6735 118.755 70.4089 118.865 70.072 118.988C69.7351 119.111 69.3334 119.226 68.8667 119.331C68.3964 119.447 67.8834 119.524 67.3276 119.563C66.7682 119.613 66.166 119.605 65.521 119.54C64.8871 119.479 64.2252 119.335 63.5353 119.107C62.3112 118.703 61.2996 118.085 60.5005 117.253C59.7014 116.422 59.1168 115.426 58.7466 114.268C58.3913 113.101 58.256 111.792 58.3408 110.339C58.4256 108.886 58.7399 107.336 59.2837 105.689C59.6511 104.576 60.1446 103.474 60.7641 102.383C61.3835 101.292 62.0977 100.269 62.9066 99.3139C63.7302 98.3518 64.6264 97.4876 65.5952 96.7215C66.5676 95.9442 67.5868 95.3243 68.6528 94.8618C69.7187 94.3992 70.8167 94.12 71.9467 94.0242C73.0804 93.9172 74.2147 94.0511 75.3498 94.4259C75.9618 94.6279 76.5037 94.9118 76.9753 95.2773C77.447 95.6428 77.8096 96.0772 78.063 96.5805C78.3275 97.0874 78.4774 97.6614 78.5126 98.3024C78.5514 98.9323 78.4478 99.62 78.2016 100.366C77.9701 101.067 77.605 101.705 77.1064 102.281C76.6189 102.86 76.0478 103.375 75.3931 103.826C74.7422 104.265 74.028 104.634 73.2506 104.932C72.4844 105.235 71.7012 105.457 70.9012 105.6C70.1159 105.736 69.3453 105.79 68.5892 105.763C67.8331 105.735 67.138 105.617 66.5037 105.407C66.0808 105.268 65.7614 105.02 65.5455 104.665C65.3443 104.302 65.3374 103.837 65.5248 103.27C65.5653 103.147 65.6112 103.027 65.6628 102.908C65.7291 102.782 65.7955 102.674 65.862 102.585C65.9321 102.485 66.0004 102.409 66.067 102.357C66.1447 102.308 66.2113 102.293 66.267 102.312C66.3226 102.33 66.3672 102.363 66.4007 102.411C66.4453 102.463 66.4992 102.524 66.5624 102.594C66.6367 102.668 66.7407 102.746 66.8743 102.827C67.008 102.908 67.2028 102.991 67.4587 103.075ZM80.0506 99.6433C80.1314 99.3985 80.1735 99.1964 80.1767 99.037C80.1911 98.8813 80.1889 98.7572 80.1701 98.6646C80.1661 98.5646 80.1492 98.4849 80.1194 98.4257C80.1044 98.3591 80.1061 98.2979 80.1244 98.2423C80.1465 98.1755 80.1982 98.1309 80.2797 98.1084C80.3612 98.086 80.463 98.0764 80.5853 98.0798C80.7076 98.0831 80.8318 98.0994 80.9579 98.1287C81.0988 98.1506 81.2304 98.1817 81.3528 98.2221C81.9204 98.4095 82.3159 98.7067 82.5394 99.1137C82.7777 99.5132 82.8289 99.9189 82.6929 100.331L78.9893 111.547C79.381 111.146 79.7783 110.784 80.1813 110.46C80.5955 110.14 81.0079 109.882 81.4187 109.684C81.8443 109.479 82.2627 109.352 82.6739 109.302C83.0999 109.246 83.5243 109.287 83.9472 109.427C84.5147 109.614 84.9472 109.874 85.2446 110.207C85.542 110.539 85.7413 110.908 85.8425 111.311C85.9437 111.715 85.9653 112.135 85.9072 112.573C85.8603 113.014 85.7726 113.429 85.644 113.819L83.3071 120.896C83.2814 120.974 83.2447 121.104 83.1971 121.286C83.1531 121.456 83.1295 121.64 83.1264 121.836C83.1232 122.032 83.1552 122.216 83.2224 122.386C83.3007 122.56 83.4512 122.684 83.6737 122.757C84.0187 122.871 84.354 122.846 84.6796 122.682C85.0164 122.522 85.3345 122.287 85.6338 121.979C85.9442 121.674 86.2248 121.329 86.4757 120.943C86.7414 120.549 86.9757 120.176 87.1785 119.823C87.3592 119.501 87.542 119.283 87.727 119.171C87.9231 119.063 88.1009 119.03 88.2603 119.07C88.4346 119.103 88.5887 119.197 88.7225 119.352C88.8564 119.507 88.9569 119.689 89.0242 119.896C89.0952 120.092 89.1254 120.3 89.1149 120.518C89.1156 120.741 89.0642 120.934 88.9609 121.097C88.6177 121.613 88.2153 122.14 87.7536 122.679C87.303 123.221 86.7967 123.69 86.2345 124.084C85.6723 124.478 85.0617 124.758 84.4025 124.923C83.7433 125.088 83.0465 125.049 82.3121 124.807C81.8559 124.656 81.4791 124.433 81.1818 124.137C80.8919 123.856 80.6668 123.529 80.5064 123.155C80.3571 122.785 80.28 122.383 80.2751 121.95C80.2813 121.52 80.356 121.088 80.4993 120.654L82.792 113.71C82.8802 113.443 82.9573 113.191 83.0233 112.954C83.0894 112.716 83.124 112.499 83.1271 112.303C83.1414 112.11 83.115 111.947 83.0479 111.814C82.9956 111.673 82.886 111.575 82.7191 111.52C82.4743 111.439 82.1187 111.507 81.6524 111.723C81.1861 111.94 80.6923 112.258 80.1709 112.678C79.6496 113.098 79.1434 113.604 78.6522 114.194C78.1758 114.778 77.7921 115.398 77.5012 116.054L75.8533 121.045C75.7982 121.212 75.7357 121.383 75.6658 121.557C75.6107 121.724 75.5277 121.863 75.4168 121.975C75.3134 122.101 75.1803 122.187 75.0173 122.231C74.8619 122.291 74.6617 122.281 74.4169 122.2C74.25 122.145 74.0737 122.062 73.8881 121.951C73.71 121.855 73.5558 121.724 73.4256 121.558C73.3029 121.406 73.219 121.212 73.1738 120.975C73.1361 120.753 73.1706 120.48 73.2771 120.157L80.0506 99.6433ZM92.8112 128.273C92.4106 128.141 92.0191 127.944 91.6367 127.682C91.2654 127.424 90.9568 127.087 90.7111 126.673C90.4764 126.262 90.3287 125.775 90.2678 125.212C90.2217 124.642 90.3236 123.978 90.5734 123.221C90.9372 122.12 91.4658 121.005 92.1593 119.876C92.8676 118.74 93.7442 117.524 94.7893 116.228L92.1854 115.368L91.8015 115.241C91.6801 115.571 91.5183 115.987 91.3159 116.488C91.1246 116.992 90.9 117.523 90.6422 118.079C90.3844 118.636 90.1025 119.191 89.7964 119.744C89.5016 120.3 89.1936 120.803 88.8724 121.253C88.6436 121.572 88.3975 121.719 88.1344 121.694C87.8823 121.672 87.6615 121.556 87.4719 121.346C87.286 121.124 87.1648 120.856 87.1083 120.541C87.0518 120.226 87.1103 119.937 87.2837 119.673C87.4866 119.357 87.7023 118.966 87.9307 118.498C88.1629 118.02 88.3856 117.513 88.599 116.979C88.8273 116.437 89.0425 115.897 89.2448 115.359C89.4508 114.81 89.631 114.321 89.7854 113.89C89.4397 113.517 89.1865 113.107 89.0259 112.659C88.869 112.199 88.8732 111.72 89.0385 111.219C89.1157 110.985 89.23 110.788 89.3815 110.629C89.5478 110.461 89.7308 110.337 89.9307 110.255C90.1343 110.161 90.3528 110.116 90.5863 110.119C90.8234 110.111 91.0533 110.144 91.2758 110.217C91.4761 110.284 91.6728 110.379 91.8659 110.505C92.0701 110.634 92.2429 110.802 92.3843 111.009C92.5368 111.22 92.6524 111.468 92.731 111.753C92.8096 112.038 92.8421 112.37 92.8283 112.748C93.0955 112.873 93.32 112.978 93.5018 113.063C93.6985 113.14 93.8617 113.206 93.9916 113.261C94.1214 113.317 94.2309 113.359 94.3199 113.388C94.4089 113.418 94.4979 113.447 94.587 113.477L96.373 114.066C96.4731 114.099 96.5976 114.208 96.7463 114.393C96.9062 114.582 97.0477 114.807 97.1707 115.07C97.2974 115.322 97.3852 115.579 97.4342 115.842C97.4942 116.109 97.4745 116.337 97.375 116.526C97.3529 116.593 97.2607 116.741 97.0983 116.971C96.9359 117.202 96.7347 117.493 96.4949 117.846C96.255 118.199 95.9838 118.609 95.6812 119.077C95.3824 119.533 95.0854 120.021 94.7904 120.541C94.4954 121.061 94.2098 121.608 93.9335 122.183C93.6609 122.747 93.4309 123.313 93.2435 123.881C93.1663 124.114 93.1188 124.352 93.101 124.593C93.0831 124.834 93.1004 125.061 93.1529 125.276C93.2091 125.48 93.3041 125.659 93.438 125.815C93.5829 125.974 93.7723 126.092 94.0059 126.169C94.3954 126.297 94.7697 126.285 95.1287 126.132C95.4877 125.979 95.8225 125.75 96.1329 125.446C96.4433 125.141 96.724 124.795 96.9749 124.409C97.2406 124.016 97.4748 123.643 97.6776 123.29C97.862 122.956 98.0578 122.737 98.265 122.632C98.4759 122.517 98.6648 122.487 98.8317 122.542C98.9653 122.586 99.0897 122.676 99.2049 122.813C99.3239 122.939 99.4169 123.087 99.4841 123.257C99.5624 123.431 99.6074 123.613 99.6191 123.802C99.6419 123.994 99.6257 124.174 99.5706 124.341C99.5522 124.396 99.532 124.439 99.5098 124.469C99.4877 124.499 99.4711 124.53 99.46 124.564C99.1169 125.08 98.7144 125.607 98.2527 126.146C97.8022 126.688 97.2958 127.156 96.7336 127.551C96.1715 127.945 95.5608 128.225 94.9016 128.39C94.2425 128.555 93.5457 128.516 92.8112 128.273ZM103.428 112.49C103.15 112.398 102.901 112.254 102.682 112.058C102.474 111.866 102.307 111.644 102.18 111.393C102.064 111.145 101.991 110.88 101.961 110.598C101.934 110.306 101.968 110.015 102.064 109.725C102.163 109.425 102.311 109.165 102.506 108.946C102.702 108.727 102.918 108.558 103.155 108.438C103.407 108.312 103.672 108.239 103.95 108.219C104.242 108.193 104.528 108.225 104.806 108.317C105.106 108.416 105.366 108.564 105.585 108.759C105.808 108.944 105.977 109.16 106.093 109.408C106.223 109.649 106.296 109.914 106.312 110.203C106.339 110.495 106.303 110.792 106.203 111.092C106.108 111.382 105.962 111.636 105.766 111.855C105.586 112.067 105.369 112.236 105.118 112.363C104.877 112.493 104.61 112.572 104.318 112.598C104.025 112.625 103.729 112.589 103.428 112.49ZM99.7318 126.319C99.7061 126.397 99.6694 126.527 99.6218 126.709C99.5778 126.879 99.5542 127.063 99.5511 127.259C99.5479 127.456 99.5855 127.641 99.6638 127.815C99.7421 127.989 99.8926 128.112 100.115 128.186C100.449 128.296 100.779 128.269 101.104 128.105C101.441 127.945 101.759 127.711 102.058 127.402C102.369 127.097 102.655 126.754 102.917 126.371C103.183 125.978 103.417 125.605 103.62 125.252C103.801 124.929 103.983 124.712 104.168 124.6C104.364 124.492 104.542 124.458 104.702 124.499C104.876 124.531 105.024 124.624 105.147 124.775C105.281 124.931 105.382 125.112 105.449 125.319C105.531 125.519 105.567 125.728 105.556 125.947C105.557 126.169 105.506 126.362 105.402 126.526C105.059 127.042 104.657 127.569 104.195 128.108C103.744 128.65 103.238 129.118 102.676 129.513C102.114 129.907 101.503 130.187 100.844 130.352C100.185 130.517 99.4879 130.478 98.7535 130.235C98.2973 130.085 97.9205 129.862 97.6232 129.566C97.3222 129.282 97.0971 128.954 96.9478 128.584C96.7985 128.214 96.7214 127.812 96.7165 127.378C96.7227 126.949 96.7974 126.517 96.9407 126.083L99.9554 116.952C100.062 116.63 100.111 116.387 100.103 116.224C100.107 116.064 100.129 115.923 100.169 115.801C100.224 115.634 100.357 115.53 100.568 115.489C100.783 115.436 101.013 115.45 101.258 115.531C101.825 115.718 102.221 116.016 102.444 116.423C102.683 116.822 102.734 117.228 102.598 117.64L99.7318 126.319ZM105.59 126.236C105.384 126.563 105.143 126.73 104.869 126.738C104.599 126.735 104.358 126.643 104.146 126.462C103.945 126.285 103.802 126.046 103.716 125.747C103.641 125.45 103.685 125.169 103.847 124.901C104.264 124.2 104.778 123.444 105.391 122.634C106.019 121.817 106.639 121.004 107.252 120.194C107.17 119.883 107.121 119.583 107.105 119.294C107.093 118.994 107.135 118.7 107.23 118.41C107.326 118.121 107.531 117.855 107.845 117.614C108.174 117.364 108.533 117.156 108.922 116.988C109.321 116.824 109.71 116.711 110.088 116.651C110.481 116.583 110.794 116.588 111.028 116.665C111.439 116.801 111.699 117.041 111.808 117.386C111.927 117.734 111.91 118.141 111.756 118.609C111.671 118.865 111.542 119.106 111.369 119.332C111.21 119.551 111.044 119.756 110.87 119.945C110.7 120.124 110.545 120.276 110.404 120.402C110.275 120.532 110.198 120.618 110.172 120.659C110.337 121.503 110.547 122.27 110.801 122.958C111.055 123.647 111.272 124.317 111.451 124.969C111.642 125.624 111.755 126.291 111.791 126.969C111.826 127.647 111.709 128.392 111.441 129.204C111.375 129.405 111.29 129.605 111.187 129.805C111.095 130.01 110.99 130.197 110.872 130.368C111.298 130.422 111.689 130.415 112.045 130.348C112.411 130.284 112.741 130.183 113.033 130.045C113.34 129.899 113.609 129.723 113.838 129.514C114.078 129.31 114.294 129.085 114.486 128.84C114.715 128.558 114.915 128.364 115.085 128.26C115.255 128.156 115.418 128.13 115.574 128.181C115.719 128.229 115.847 128.327 115.958 128.475C116.085 128.615 116.18 128.776 116.243 128.957C116.318 129.142 116.363 129.324 116.378 129.502C116.405 129.683 116.398 129.835 116.357 129.958C116.302 130.124 116.191 130.31 116.025 130.514C115.859 130.719 115.658 130.917 115.421 131.111C115.196 131.308 114.95 131.492 114.683 131.663C114.421 131.823 114.162 131.954 113.906 132.055C113.229 132.312 112.479 132.472 111.656 132.533C110.837 132.584 109.881 132.472 108.787 132.197C108.258 132.417 107.673 132.545 107.032 132.58C106.398 132.63 105.731 132.539 105.03 132.308C104.674 132.19 104.321 132.024 103.972 131.81C103.634 131.6 103.317 131.366 103.02 131.107C102.73 130.863 102.473 130.612 102.25 130.353C102.027 130.095 101.86 129.854 101.748 129.632C101.457 129.092 101.317 128.601 101.327 128.16C101.34 127.708 101.434 127.332 101.607 127.031C101.769 126.727 101.973 126.504 102.217 126.362C102.465 126.21 102.683 126.165 102.872 126.227C102.984 126.264 103.139 126.371 103.34 126.548C103.556 126.718 103.793 126.932 104.053 127.191C104.317 127.438 104.605 127.706 104.917 127.994C105.229 128.283 105.543 128.565 105.859 128.842C106.179 129.108 106.494 129.348 106.806 129.562C107.133 129.769 107.441 129.92 107.73 130.015C107.993 129.855 108.263 129.617 108.54 129.302C108.817 128.986 109.027 128.611 109.17 128.177C109.347 127.643 109.438 127.124 109.444 126.62C109.45 126.116 109.4 125.63 109.295 125.164C109.19 124.697 109.042 124.247 108.852 123.814C108.677 123.374 108.488 122.954 108.287 122.554C107.803 123.122 107.355 123.696 106.941 124.275C106.532 124.844 106.081 125.497 105.59 126.236ZM115.241 116.798C115.49 116.904 115.768 117.015 116.076 117.129C116.336 117.239 116.653 117.363 117.028 117.499C117.406 117.623 117.827 117.769 118.291 117.934L120.203 112.142C120.284 111.897 120.326 111.695 120.329 111.536C120.344 111.38 120.342 111.256 120.323 111.163C120.319 111.063 120.302 110.984 120.272 110.925C120.257 110.858 120.259 110.797 120.277 110.741C120.299 110.674 120.351 110.63 120.432 110.607C120.514 110.585 120.616 110.575 120.738 110.579C120.86 110.582 120.985 110.598 121.111 110.628C121.251 110.649 121.383 110.681 121.506 110.721C122.073 110.908 122.469 111.205 122.692 111.613C122.93 112.012 122.982 112.418 122.846 112.829L120.867 118.822C121.913 119.167 123.018 119.52 124.183 119.88C125.359 120.243 126.54 120.59 127.727 120.92C127.938 120.805 128.08 120.784 128.155 120.858C128.24 120.935 128.266 121.061 128.234 121.236C128.212 121.414 128.149 121.621 128.046 121.859C127.943 122.096 127.82 122.321 127.676 122.532C127.536 122.733 127.377 122.896 127.199 123.023C127.033 123.153 126.877 123.194 126.733 123.146C125.353 122.728 124.133 122.35 123.072 122.012C122.026 121.666 121.047 121.343 120.134 121.042L116.557 131.875C116.373 132.431 116.347 132.867 116.477 133.181C116.608 133.496 116.851 133.712 117.208 133.83C117.552 133.943 117.888 133.918 118.213 133.754C118.55 133.594 118.868 133.36 119.168 133.051C119.478 132.747 119.759 132.401 120.01 132.015C120.275 131.621 120.509 131.248 120.712 130.896C120.897 130.562 121.092 130.342 121.3 130.238C121.511 130.123 121.699 130.092 121.866 130.148C122 130.192 122.124 130.282 122.24 130.419C122.359 130.545 122.452 130.693 122.519 130.863C122.597 131.037 122.642 131.218 122.654 131.407C122.677 131.6 122.66 131.78 122.605 131.947C122.598 131.969 122.589 131.997 122.578 132.03C122.567 132.063 122.539 132.11 122.495 132.169C122.163 132.689 121.766 133.218 121.304 133.757C120.854 134.299 120.342 134.766 119.768 135.156C119.206 135.551 118.595 135.83 117.936 135.995C117.277 136.16 116.58 136.122 115.846 135.879C115.39 135.728 114.991 135.516 114.649 135.243C114.315 134.985 114.06 134.654 113.885 134.25C113.706 133.858 113.617 133.397 113.619 132.867C113.622 132.337 113.735 131.733 113.959 131.054L117.547 120.188C117.168 120.063 116.829 119.951 116.529 119.851C116.243 119.745 116.002 119.653 115.805 119.575C115.575 119.487 115.373 119.408 115.199 119.338C114.932 119.25 114.736 119.056 114.613 118.756C114.483 118.442 114.426 118.127 114.444 117.812C114.45 117.493 114.526 117.228 114.67 117.016C114.806 116.79 114.997 116.717 115.241 116.798ZM129.326 137.831C129.671 137.945 130.006 137.92 130.332 137.756C130.668 137.595 130.986 137.361 131.286 137.053C131.596 136.748 131.877 136.402 132.128 136.016C132.393 135.623 132.628 135.25 132.831 134.897C133.026 134.567 133.222 134.347 133.418 134.239C133.629 134.124 133.823 134.096 134.001 134.154C134.135 134.198 134.254 134.287 134.358 134.42C134.477 134.546 134.57 134.694 134.637 134.864C134.715 135.038 134.76 135.219 134.772 135.408C134.795 135.601 134.779 135.781 134.723 135.948C134.716 135.97 134.707 135.998 134.696 136.031C134.685 136.065 134.657 136.111 134.613 136.17C134.281 136.69 133.884 137.219 133.422 137.758C132.972 138.3 132.465 138.769 131.903 139.163C131.341 139.558 130.725 139.835 130.055 139.997C129.395 140.162 128.699 140.123 127.964 139.88C127.363 139.682 126.882 139.381 126.522 138.978C126.161 138.575 125.923 138.12 125.806 137.613C125.333 137.888 124.807 138.079 124.229 138.184C123.659 138.305 123.051 138.258 122.406 138.045C121.738 137.825 121.192 137.496 120.769 137.06C120.356 136.628 120.053 136.127 119.858 135.556C119.668 134.975 119.586 134.343 119.614 133.662C119.656 132.972 119.797 132.266 120.036 131.542C120.506 130.118 121.157 128.914 121.988 127.929C122.819 126.945 123.743 126.183 124.761 125.642C125.782 125.091 126.847 124.764 127.954 124.661C129.073 124.561 130.156 124.684 131.202 125.029C131.669 125.184 132.005 125.437 132.21 125.788C132.415 126.139 132.444 126.538 132.297 126.983C132.201 127.272 132.1 127.467 131.993 127.567C131.9 127.66 131.771 127.679 131.604 127.624C131.448 127.573 131.29 127.508 131.131 127.431C130.971 127.354 130.802 127.285 130.624 127.227C129.979 127.014 129.274 126.941 128.511 127.01C127.752 127.068 127.002 127.302 126.262 127.712C125.537 128.114 124.853 128.709 124.21 129.496C123.571 130.272 123.048 131.278 122.64 132.513C122.343 133.415 122.285 134.167 122.469 134.771C122.656 135.363 123.05 135.759 123.651 135.957C124.118 136.111 124.564 136.067 124.99 135.825C125.419 135.572 125.807 135.237 126.154 134.821L127.896 129.547C127.951 129.38 127.986 129.237 128 129.119C128.026 129.004 128.04 128.903 128.044 128.818C128.058 128.737 128.069 128.666 128.077 128.607C128.088 128.536 128.102 128.473 128.121 128.418C128.179 128.24 128.309 128.128 128.509 128.083C128.724 128.031 128.953 128.045 129.198 128.126C129.766 128.313 130.167 128.612 130.401 129.023C130.64 129.422 130.691 129.828 130.555 130.24L128.692 135.882C128.63 136.071 128.589 136.267 128.571 136.471C128.557 136.664 128.569 136.853 128.606 137.038C128.648 137.212 128.724 137.373 128.836 137.521C128.962 137.661 129.125 137.765 129.326 137.831ZM153.191 142.305C152.848 142.821 152.445 143.348 151.984 143.887C151.533 144.429 151.027 144.897 150.464 145.292C149.902 145.686 149.292 145.966 148.632 146.131C147.973 146.296 147.276 146.257 146.542 146.014C146.086 145.864 145.709 145.641 145.412 145.345C145.122 145.064 144.897 144.737 144.736 144.363C144.587 143.993 144.51 143.591 144.505 143.157C144.511 142.728 144.586 142.296 144.729 141.862L147.022 134.918C147.11 134.651 147.187 134.399 147.253 134.161C147.319 133.924 147.359 133.709 147.374 133.516C147.388 133.323 147.367 133.162 147.311 133.033C147.27 132.896 147.177 132.803 147.033 132.756C146.799 132.678 146.46 132.752 146.016 132.975C145.572 133.199 145.106 133.526 144.618 133.957C144.13 134.389 143.652 134.903 143.183 135.501C142.717 136.088 142.35 136.714 142.082 137.378L140.434 142.369C140.379 142.535 140.316 142.706 140.246 142.88C140.191 143.047 140.108 143.187 139.997 143.298C139.894 143.424 139.761 143.51 139.598 143.555C139.442 143.615 139.242 143.604 138.997 143.523C138.83 143.468 138.654 143.385 138.469 143.275C138.29 143.179 138.136 143.048 138.006 142.881C137.883 142.73 137.799 142.535 137.754 142.298C137.717 142.076 137.751 141.804 137.858 141.481L140.712 132.835C140.801 132.568 140.872 132.313 140.927 132.072C140.993 131.835 141.033 131.62 141.048 131.427C141.062 131.235 141.041 131.073 140.985 130.944C140.944 130.807 140.851 130.714 140.706 130.667C140.473 130.59 140.134 130.663 139.69 130.886C139.257 131.114 138.791 131.441 138.292 131.869C137.804 132.3 137.325 132.815 136.856 133.413C136.402 134.003 136.035 134.628 135.756 135.289L134.108 140.28C134.053 140.447 133.99 140.617 133.92 140.792C133.865 140.959 133.782 141.098 133.671 141.209C133.568 141.336 133.435 141.421 133.272 141.466C133.116 141.526 132.916 141.515 132.671 141.434C132.504 141.379 132.328 141.296 132.142 141.186C131.964 141.09 131.81 140.959 131.68 140.792C131.557 140.641 131.473 140.447 131.428 140.21C131.39 139.987 131.425 139.715 131.531 139.392L135.108 128.559C135.215 128.236 135.264 127.994 135.256 127.831C135.26 127.671 135.281 127.53 135.322 127.408C135.377 127.241 135.51 127.137 135.721 127.095C135.936 127.043 136.166 127.057 136.411 127.138C136.978 127.325 137.374 127.623 137.597 128.03C137.835 128.429 137.887 128.835 137.751 129.246L137.277 130.682C137.654 130.288 138.036 129.933 138.424 129.617C138.824 129.305 139.221 129.053 139.617 128.863C140.017 128.662 140.411 128.533 140.8 128.476C141.2 128.423 141.595 128.461 141.985 128.59C142.496 128.759 142.888 128.993 143.159 129.292C143.442 129.595 143.632 129.936 143.729 130.313C143.838 130.695 143.872 131.095 143.833 131.514C143.797 131.922 143.728 132.318 143.625 132.704C143.987 132.318 144.36 131.972 144.745 131.667C145.129 131.362 145.52 131.114 145.916 130.924C146.312 130.734 146.704 130.611 147.093 130.554C147.493 130.501 147.888 130.539 148.277 130.667C148.834 130.851 149.255 131.108 149.541 131.437C149.828 131.766 150.016 132.13 150.106 132.53C150.196 132.93 150.212 133.349 150.154 133.786C150.096 134.224 150.003 134.637 149.874 135.027L147.537 142.104C147.511 142.182 147.475 142.312 147.427 142.493C147.383 142.664 147.359 142.847 147.356 143.044C147.353 143.24 147.385 143.424 147.452 143.594C147.531 143.768 147.681 143.891 147.904 143.965C148.249 144.079 148.584 144.054 148.91 143.89C149.246 143.73 149.564 143.495 149.864 143.187C150.174 142.882 150.46 142.538 150.722 142.156C150.988 141.762 151.222 141.389 151.425 141.037C151.61 140.703 151.8 140.482 151.996 140.374C152.207 140.258 152.401 140.23 152.579 140.288C152.713 140.333 152.832 140.421 152.936 140.554C153.055 140.68 153.148 140.828 153.215 140.998C153.293 141.172 153.338 141.354 153.35 141.543C153.373 141.735 153.357 141.915 153.301 142.082C153.294 142.104 153.285 142.132 153.274 142.165C153.263 142.199 153.235 142.245 153.191 142.305ZM153.396 142.021C153.189 142.347 152.949 142.515 152.675 142.523C152.404 142.52 152.163 142.428 151.951 142.247C151.751 142.07 151.607 141.831 151.521 141.531C151.446 141.235 151.49 140.953 151.652 140.686C152.069 139.984 152.584 139.229 153.197 138.419C153.824 137.602 154.444 136.789 155.057 135.979C154.975 135.668 154.926 135.368 154.91 135.079C154.898 134.779 154.94 134.484 155.036 134.195C155.131 133.905 155.336 133.64 155.65 133.398C155.979 133.149 156.338 132.94 156.727 132.772C157.127 132.608 157.516 132.496 157.893 132.436C158.286 132.368 158.599 132.372 158.833 132.45C159.245 132.586 159.505 132.826 159.613 133.17C159.733 133.518 159.715 133.926 159.561 134.393C159.476 134.649 159.347 134.89 159.174 135.117C159.015 135.336 158.849 135.54 158.675 135.73C158.505 135.908 158.35 136.06 158.21 136.187C158.08 136.317 158.003 136.402 157.977 136.443C158.142 137.288 158.352 138.054 158.606 138.743C158.86 139.431 159.077 140.101 159.257 140.753C159.447 141.409 159.561 142.075 159.596 142.753C159.631 143.431 159.515 144.177 159.246 144.989C159.18 145.189 159.096 145.39 158.992 145.59C158.9 145.794 158.795 145.982 158.677 146.152C159.103 146.207 159.494 146.2 159.85 146.132C160.217 146.068 160.546 145.967 160.839 145.829C161.146 145.684 161.414 145.507 161.643 145.299C161.883 145.094 162.1 144.87 162.292 144.625C162.52 144.342 162.72 144.149 162.89 144.045C163.06 143.94 163.223 143.914 163.379 143.966C163.524 144.013 163.652 144.111 163.764 144.259C163.89 144.4 163.985 144.56 164.048 144.742C164.123 144.927 164.168 145.108 164.183 145.286C164.21 145.468 164.203 145.62 164.162 145.742C164.107 145.909 163.997 146.095 163.83 146.299C163.664 146.503 163.463 146.702 163.226 146.895C163.001 147.092 162.755 147.277 162.489 147.448C162.226 147.608 161.967 147.738 161.711 147.839C161.034 148.097 160.284 148.256 159.461 148.318C158.643 148.368 157.686 148.256 156.592 147.981C156.063 148.202 155.478 148.329 154.837 148.364C154.203 148.414 153.536 148.324 152.835 148.092C152.479 147.975 152.126 147.809 151.777 147.595C151.439 147.385 151.122 147.15 150.825 146.892C150.535 146.648 150.279 146.397 150.056 146.138C149.832 145.879 149.665 145.639 149.553 145.417C149.263 144.876 149.122 144.386 149.132 143.945C149.146 143.493 149.239 143.116 149.412 142.816C149.575 142.511 149.778 142.288 150.022 142.147C150.27 141.994 150.488 141.949 150.678 142.012C150.789 142.048 150.945 142.155 151.145 142.333C151.361 142.502 151.599 142.717 151.859 142.975C152.123 143.223 152.41 143.491 152.723 143.779C153.035 144.067 153.349 144.35 153.664 144.627C153.984 144.893 154.3 145.133 154.611 145.347C154.938 145.553 155.246 145.704 155.535 145.8C155.798 145.64 156.068 145.402 156.345 145.086C156.622 144.77 156.832 144.395 156.976 143.961C157.152 143.427 157.243 142.908 157.249 142.404C157.255 141.9 157.205 141.415 157.1 140.948C156.995 140.482 156.848 140.032 156.657 139.599C156.482 139.158 156.294 138.738 156.092 138.339C155.609 138.907 155.16 139.481 154.747 140.06C154.337 140.628 153.887 141.282 153.396 142.021ZM165.927 148.583C166.394 148.737 166.736 149.029 166.952 149.459C167.172 149.877 167.205 150.319 167.051 150.787C166.981 150.998 166.868 151.189 166.713 151.36C166.562 151.52 166.384 151.647 166.181 151.74C165.988 151.837 165.777 151.897 165.547 151.919C165.318 151.942 165.086 151.915 164.852 151.838C164.63 151.765 164.433 151.65 164.262 151.495C164.091 151.34 163.952 151.164 163.844 150.968C163.747 150.776 163.685 150.57 163.659 150.352C163.636 150.122 163.659 149.901 163.729 149.69C163.806 149.456 163.922 149.254 164.077 149.083C164.233 148.912 164.406 148.778 164.599 148.681C164.806 148.577 165.023 148.519 165.249 148.507C165.478 148.484 165.704 148.51 165.927 148.583ZM168.139 146.37C167.992 146.815 167.779 147.103 167.502 147.233C167.224 147.364 166.941 147.381 166.652 147.286C166.473 147.227 166.303 147.128 166.139 146.987C165.976 146.847 165.838 146.684 165.727 146.499C165.63 146.307 165.562 146.099 165.525 145.877C165.502 145.647 165.529 145.416 165.606 145.182L171.167 128.34C171.274 128.017 171.299 127.754 171.243 127.551C171.201 127.339 171.203 127.167 171.247 127.034C171.287 126.911 171.404 126.839 171.596 126.816C171.789 126.793 172.063 126.84 172.419 126.958C172.653 127.035 172.874 127.133 173.082 127.251C173.301 127.372 173.481 127.518 173.622 127.688C173.778 127.851 173.883 128.04 173.935 128.254C173.991 128.458 173.975 128.693 173.887 128.961L168.139 146.37Z" fill="#006381"/>
<path fill-rule="evenodd" clip-rule="evenodd" d="M160.942 86.3569C160.41 71.051 139.297 59.5375 113.847 60.67C88.3981 61.8024 68.1807 75.1045 68.7583 90.3708C69.2905 105.677 90.4034 117.19 115.853 116.058C141.302 114.925 161.52 101.623 160.942 86.3569Z" fill="url(#paint1_radial_3789_1310)"/>
<defs>
<radialGradient id="paint0_radial_3789_1310" cx="0" cy="0" r="1" gradientUnits="userSpaceOnUse" gradientTransform="translate(97.8946 69.7533) rotate(62.1896) scale(154.325 178.422)">
<stop stop-color="#B6FFFD"/>
<stop offset="0.5" stop-color="#60CAED"/>
<stop offset="1" stop-color="#A3D9F0" stop-opacity="0"/>
</radialGradient>
<radialGradient id="paint1_radial_3789_1310" cx="0" cy="0" r="1" gradientTransform="matrix(-48.2382 51.6515 -46.3331 -43.1305 132.829 63.0261)" gradientUnits="userSpaceOnUse">
<stop stop-color="white"/>
<stop offset="1" stop-color="white" stop-opacity="0"/>
</radialGradient>
</defs>
</svg>
