<svg width="197" height="168" viewBox="0 0 197 168" fill="none" xmlns="http://www.w3.org/2000/svg">
<path d="M139.75 119.581C186.5 150.799 200.898 185.402 139.75 191.299C115.294 193.651 126.72 136.993 124.62 134.114C124.62 134.114 127.947 121.092 139.752 119.581H139.75Z" fill="#E23E3F"/>
<path d="M183.83 173.643C194.377 164.942 169.283 129.376 133.369 115.788C147.514 125.619 179.859 149.806 171.972 179.268C164.086 208.731 183.83 173.643 183.83 173.643Z" fill="#CC3839"/>
<path d="M41.8894 212.378C41.6221 212.31 26.0035 234.729 7.91023 207.565C-10.183 180.401 3.92795 141.413 38.3628 123.182L41.8909 212.378H41.8894Z" fill="#E23E3F"/>
<path d="M32.4295 159.024C34.09 161.187 20.7421 173.008 11.0367 176.346C10.2535 175.759 21.4774 178.293 28.8365 177.885C36.197 177.479 37.3494 163.334 36.8365 161.445C36.3237 159.554 32.4279 159.024 32.4279 159.024H32.4295Z" fill="#CC3839"/>
<path d="M164.565 244.203C124.675 257.79 77.8519 258.419 24.6009 247.037L27.3829 206.104L29.0203 182.005C29.0064 181.495 29.0002 180.979 29.0002 180.46C29.0002 143.674 3.29616 114.921 94.5827 114.921C185.869 114.921 140.203 154.754 140.5 176.299L164.565 244.203Z" fill="#E23E3F"/>
<path d="M93.2558 250.032C93.2558 258.799 92.1482 261.635 83.1611 261.635C74.1739 261.635 33.0906 258.993 22.8213 255.028C12.5521 251.063 19.9821 231.97 26.7341 237.656C32.0047 242.096 72.521 249.737 81.6534 243.328C84.4694 241.353 87.5867 153.414 87.5867 153.414C87.5867 153.414 101.664 136.939 101.413 153.86C101.029 179.995 93.2542 244.711 93.2542 250.032H93.2558Z" fill="#FFFEFA"/>
<path d="M93.2558 250.032C93.2558 258.799 92.1482 261.635 83.1611 261.635C74.1739 261.635 33.0906 258.993 22.8213 255.028C12.5521 251.063 19.9821 231.97 26.7341 237.656C32.0047 242.096 72.521 249.737 81.6534 243.328C84.4694 241.353 87.5867 153.414 87.5867 153.414C87.5867 153.414 101.664 136.939 101.413 153.86C101.029 179.995 93.2542 244.711 93.2542 250.032H93.2558Z" fill="url(#paint0_radial_3789_1106)"/>
<path d="M91.0206 249.45C91.0206 258.216 94.6754 261.635 103.661 261.635C112.647 261.635 157.34 258.993 167.609 255.028C177.879 251.063 170.448 231.97 163.696 237.656C158.426 242.096 119.037 250.692 109.905 244.283C107.089 242.307 107.041 153.185 107.041 153.185C107.041 153.185 93.8784 136.938 94.1271 153.86C94.5117 179.995 91.0206 244.13 91.0206 249.45Z" fill="#FFFEFA"/>
<path d="M91.0206 249.45C91.0206 258.216 94.6754 261.635 103.661 261.635C112.647 261.635 157.34 258.993 167.609 255.028C177.879 251.063 170.448 231.97 163.696 237.656C158.426 242.096 119.037 250.692 109.905 244.283C107.089 242.307 107.041 153.185 107.041 153.185C107.041 153.185 93.8784 136.938 94.1271 153.86C94.5117 179.995 91.0206 244.13 91.0206 249.45Z" fill="url(#paint1_radial_3789_1106)"/>
<path d="M103.205 118.468C84.8819 118.222 73.6734 110.979 68.6036 99.7564C65.4447 92.7742 64.6615 84.2582 66.0193 74.9235C69.5598 50.5927 79.188 40.5335 99.9135 41.2301C113.587 41.6874 124.773 47.8446 128.741 59.7575C129.83 63.0091 130.374 66.6932 130.29 70.8053C129.886 89.9737 132.944 118.874 103.205 118.468Z" fill="#FBB99F"/>
<path d="M103.205 118.467C84.8819 118.222 73.6734 110.979 68.6036 99.7563C113.424 93.145 125.991 74.2175 128.741 59.7574C129.83 63.0091 130.374 66.6932 130.29 70.8053C129.886 89.9737 132.944 118.874 103.205 118.467Z" fill="#FFA480"/>
<path d="M86.9425 186.685C86.9425 186.685 98.5974 160.408 85.3221 161.343C72.6601 162.229 63.4011 152.482 59.5501 139.984C58.9584 138.068 58.4981 136.088 58.1645 134.075C58.0424 133.329 57.9343 132.588 57.8493 131.837C57.681 130.353 42.1303 121.475 49.4909 107.336C56.8607 93.1929 60.6731 89.4701 60.222 76.2319C60.222 76.2319 61.8208 64.0225 68.3318 63.8804C74.8489 63.7398 64.6322 88.2761 70.7585 93.5961C76.8787 98.9161 79.6885 88.5958 91.2724 89.0083C102.867 89.43 114.318 88.1185 117.219 90.2533C120.112 92.3943 120.844 98.8141 125.418 95.1068C130 91.3949 127.654 71.2626 129.435 68.876C130.803 67.0439 132.438 67.2617 133.154 69.5819C133.154 69.5819 133.153 69.5881 133.157 69.5974C133.371 70.294 133.5 71.1745 133.517 72.2527C133.596 76.927 133.071 86.9322 138.238 99.1972C139.123 101.296 139.991 103.62 140.798 106.059C144.754 117.919 147.343 132.554 143.017 137.094C143.017 137.094 137.838 188.752 86.941 186.687L86.9425 186.685Z" fill="#FFFEFA"/>
<path d="M86.9425 186.685C86.9425 186.685 98.5974 160.408 85.3221 161.343C72.6601 162.229 63.4011 152.482 59.5501 139.984C58.9584 138.068 58.4981 136.088 58.1645 134.075C58.0424 133.329 57.9343 132.588 57.8493 131.837C57.681 130.353 42.1303 121.475 49.4909 107.336C56.8607 93.1929 60.6731 89.4701 60.222 76.2319C60.222 76.2319 61.8208 64.0225 68.3318 63.8804C74.8489 63.7398 64.6322 88.2761 70.7585 93.5961C76.8787 98.9161 79.6885 88.5958 91.2724 89.0083C102.867 89.43 114.318 88.1185 117.219 90.2533C120.112 92.3943 120.844 98.8141 125.418 95.1068C130 91.3949 127.654 71.2626 129.435 68.876C130.803 67.0439 132.438 67.2617 133.154 69.5819C133.154 69.5819 133.153 69.5881 133.157 69.5974C133.371 70.294 133.5 71.1745 133.517 72.2527C133.596 76.927 133.071 86.9322 138.238 99.1972C139.123 101.296 139.991 103.62 140.798 106.059C144.754 117.919 147.343 132.554 143.017 137.094C143.017 137.094 137.838 188.752 86.941 186.687L86.9425 186.685Z" fill="url(#paint2_radial_3789_1106)"/>
<path d="M102.424 94.7469C102.424 94.7469 109.486 100.835 117.903 100.288C117.568 101.636 91.3341 101.968 88.0454 99.8151C84.9297 97.7761 98.7009 97.8286 99.9181 94.007C101.135 90.1869 102.425 94.7453 102.425 94.7453L102.424 94.7469Z" fill="#EDF1FF"/>
<path d="M86.9425 186.685C86.9425 186.685 98.5974 160.408 85.3221 161.343C72.6601 162.229 63.401 152.482 59.55 139.984C63.4505 142.581 67.9935 144.199 67.9935 144.199C55.489 134.979 64.3665 126.753 64.3665 126.753C61.7791 138.679 99.9197 146.985 117.655 127.699C135.198 108.615 133.199 70.4254 133.157 69.5989C133.371 70.2956 133.5 71.1761 133.517 72.2543C133.596 76.9286 133.071 86.9337 138.238 99.1988C139.123 101.298 139.991 103.621 140.798 106.06C144.754 117.921 147.342 132.555 143.017 137.095C143.017 137.095 137.838 188.754 86.941 186.688L86.9425 186.685Z" fill="url(#paint3_radial_3789_1106)"/>
<path d="M110.408 100.731C105.284 105.551 102.019 109.331 91.0978 100.098C92.5436 100.838 93.954 100.682 95.2392 100.079C98.4105 98.604 100.771 94.4456 100.771 94.4456C100.771 94.4456 103.068 98.7507 107.041 100.248C108.054 100.637 109.179 100.836 110.408 100.731Z" fill="#F0797B"/>
<path d="M100.582 94.8288C96.7561 94.7454 93.5107 93.1419 92.1714 90.9299C91.725 90.1993 91.4871 89.3991 91.5087 88.5696C91.5783 85.2129 95.7567 82.5869 100.837 82.6904C102.858 82.7352 104.71 83.2048 106.213 83.9679C108.493 85.114 109.954 86.9368 109.909 88.9558C109.841 92.3063 105.661 94.9384 100.582 94.8288Z" fill="#F39383"/>
<path d="M117.224 64.9168C113.175 64.1738 106.962 64.787 107.846 68.4944C108.729 72.2017 114.809 69.2374 116.726 69.5988C118.643 69.9603 124.048 75.8951 124.57 73.9812C125.092 72.0673 121.274 65.6598 117.225 64.9168H117.224Z" fill="#FFFEFA"/>
<path d="M110.941 80.0489C111.213 73.1131 117.849 73.3726 117.577 80.3084" stroke="black" stroke-width="0.617887" stroke-linecap="round" stroke-linejoin="round"/>
<path d="M81.8573 66.6717C85.5723 64.8983 91.7311 63.8711 91.8439 67.6804C91.9582 71.4896 85.3159 70.2137 83.5596 71.0617C81.8032 71.9098 78.133 79.0495 77.1305 77.3379C76.1279 75.6264 78.1438 68.4434 81.8588 66.6717H81.8573Z" fill="#FFFEFA"/>
<path d="M91.8686 79.6426C89.7987 73.0173 83.4592 74.9977 85.5291 81.623" stroke="black" stroke-width="0.617887" stroke-linecap="round" stroke-linejoin="round"/>
<path d="M63.1323 81.4283C62.7878 84.4668 62.1931 88.2158 61.7714 90.7322C61.481 92.4236 61.2771 93.5605 61.2771 93.5605C61.2771 93.5605 53.4191 98.7044 52.6962 85.5883C51.9794 72.4721 63.1385 76.1361 63.276 76.5192C63.5092 77.1525 63.3949 79.0804 63.1323 81.4268V81.4283Z" fill="#FBB99F"/>
<path d="M63.1323 81.4283C62.7878 84.4668 62.1931 88.2158 61.7714 90.7322C59.496 90.2564 56.3062 85.7118 58.8781 82.6131C60.9836 80.0798 62.397 80.8043 63.1323 81.4268V81.4283Z" fill="#F39383"/>
<path d="M130.999 85.1928C130.85 88.2483 130.831 92.0436 130.84 94.594C130.854 96.3086 130.871 97.4656 130.871 97.4656C130.871 97.4656 137.796 103.811 140.626 90.9824C143.45 78.1535 131.846 79.9701 131.647 80.3254C131.315 80.9124 131.115 82.834 130.998 85.1913L130.999 85.1928Z" fill="#FBB99F"/>
<path d="M130.999 85.1927C130.85 88.2482 130.831 92.0436 130.84 94.5939C133.162 94.4919 137.044 90.522 135.006 87.0495C133.338 84.2088 131.826 84.6969 130.999 85.1927Z" fill="#F39383"/>
<path d="M100.582 94.8287C96.7561 94.7453 93.5107 93.1419 92.1714 90.9299C99.1906 96.1896 109.903 90.6487 106.213 83.9678C108.493 85.114 109.954 86.9368 109.909 88.9557C109.841 92.3062 105.661 94.9384 100.582 94.8287Z" fill="#E87866"/>
<path d="M107.041 100.248C102.118 105.85 95.5373 99.9912 95.2454 100.079H95.2392C98.4105 98.6025 100.771 94.4441 100.771 94.4441C100.771 94.4441 103.068 98.7492 107.041 100.246V100.248Z" fill="#B0595B"/>
<path d="M107.319 101.792C108.128 102.324 104.041 106.042 101.145 104.925C98.2468 103.808 94.8793 102.704 95.4755 101.792C96.0718 100.881 98.5619 103.127 101.898 103.385C105.237 103.643 106.146 101.023 107.319 101.794V101.792Z" fill="#F09EA0"/>
<path d="M94.7452 49.554C100.151 49.2829 104.46 47.5906 104.369 45.774C104.278 43.9574 99.8217 42.7045 94.4154 42.9756C89.0091 43.2466 84.7003 44.9389 84.7914 46.7555C84.8824 48.5721 89.3389 49.825 94.7452 49.554Z" fill="#FBCCBA"/>
<path d="M135.315 58.2621C135.315 58.2621 128.485 -12.8041 68.6036 2.03906C8.72114 16.8822 40.3708 71.4447 40.3708 71.4447C40.3708 71.4447 51.3059 38.1329 58.6927 39.12C66.0796 40.1055 60.2591 55.4894 60.0243 60.7924L135.315 58.2637V58.2621Z" fill="url(#paint4_radial_3789_1106)"/>
<path d="M138.473 61.9664C138.463 62.019 138.45 62.0761 138.44 62.1286C137.498 66.6593 132.85 69.412 128.38 68.204C107.152 62.4824 88.3049 62.9782 69.6849 71.0247C66.787 72.2821 63.7516 71.6333 61.5025 69.999C59.6705 68.669 58.3606 66.6917 58.0733 64.5554C57.8555 62.9643 58.2015 61.2945 59.3199 59.739C67.116 48.9074 107.2 45.9663 130.755 52.1807C131.44 52.3629 132.112 52.5514 132.767 52.746C136.732 53.9339 139.259 57.8992 138.476 61.9633L138.473 61.9664Z" fill="white"/>
<path d="M138.473 61.9664C138.464 62.019 138.45 62.0761 138.44 62.1286C137.498 66.6593 132.85 69.412 128.38 68.204C107.152 62.4824 88.305 62.9782 69.685 71.0247C66.7871 72.2821 63.7517 71.6333 61.5026 69.999C62.1699 69.602 62.8759 69.1525 63.6127 68.6489C81.0371 56.7577 113.702 62.8377 125.031 62.09C134.311 61.4783 131.923 54.6383 130.755 52.1807C131.44 52.3629 132.112 52.5514 132.767 52.746C136.732 53.9339 139.259 57.8992 138.476 61.9634L138.473 61.9664Z" fill="#EDF1FF"/>
<path d="M46.7521 71.5375C45.6507 75.2772 41.7225 77.4167 37.9827 76.3153C35.5019 75.5846 33.7239 73.6074 33.1323 71.2718C32.8326 70.0854 32.8388 68.8033 33.208 67.5475C34.3094 63.8077 38.233 61.6698 41.9727 62.7728C42.1411 62.8222 42.3018 62.8778 42.4624 62.9381C45.8979 64.2263 47.804 67.9661 46.7521 71.539V71.5375Z" fill="white"/>
<path d="M47.2248 69.585C47.2248 73.4838 44.0612 76.6474 40.1624 76.6474C37.5765 76.6474 35.312 75.2525 34.0839 73.1795C35.8202 73.8499 38.0677 74.0816 40.6783 72.9354C46.9885 70.158 40.6783 62.5488 40.6783 62.5488C44.3378 62.8129 47.2233 65.8622 47.2233 69.5865L47.2248 69.585Z" fill="#EDF1FF"/>
<defs>
<radialGradient id="paint0_radial_3789_1106" cx="0" cy="0" r="1" gradientTransform="matrix(-13.5 58 -42.0713 -9.70758 57.9996 225.139)" gradientUnits="userSpaceOnUse">
<stop stop-color="#EDF1FF" stop-opacity="0"/>
<stop offset="1" stop-color="#93A9F3" stop-opacity="0.3"/>
</radialGradient>
<radialGradient id="paint1_radial_3789_1106" cx="0" cy="0" r="1" gradientTransform="matrix(90.5 20.5 -14.0543 64.1436 98.4996 244.139)" gradientUnits="userSpaceOnUse">
<stop stop-color="#EDF1FF" stop-opacity="0"/>
<stop offset="1" stop-color="#93A9F3" stop-opacity="0.3"/>
</radialGradient>
<radialGradient id="paint2_radial_3789_1106" cx="0" cy="0" r="1" gradientTransform="matrix(3.3872 72.6079 -57.695 1.68701 92.9996 114.139)" gradientUnits="userSpaceOnUse">
<stop stop-color="#EDF1FF" stop-opacity="0"/>
<stop offset="1" stop-color="#93A9F3" stop-opacity="0.3"/>
</radialGradient>
<radialGradient id="paint3_radial_3789_1106" cx="0" cy="0" r="1" gradientUnits="userSpaceOnUse" gradientTransform="translate(95.9996 125.639) rotate(84.0163) scale(61.4442 44.9541)">
<stop stop-color="#EDF1FF" stop-opacity="0"/>
<stop offset="1" stop-color="#93A9F3" stop-opacity="0.3"/>
</radialGradient>
<radialGradient id="paint4_radial_3789_1106" cx="0" cy="0" r="1" gradientTransform="matrix(2.5 89 -128.303 8.46244 66.4996 52.6393)" gradientUnits="userSpaceOnUse">
<stop stop-color="#E23E3F"/>
<stop offset="1" stop-color="#E23E3F" stop-opacity="0.3"/>
</radialGradient>
</defs>
</svg>
