<svg width="297" height="126" viewBox="0 0 297 126" fill="none" xmlns="http://www.w3.org/2000/svg">
<path d="M296.184 144.808C284.684 86.3078 25.6841 80.8076 -50.3159 80.3076V197.808C89.5174 207.474 312.174 226.147 296.184 144.808Z" fill="white"/>
<path d="M204.595 101.055C207.858 104.966 213.668 105.492 217.572 102.23C221.475 98.9682 221.994 93.1533 218.731 89.2423C215.467 85.3313 209.657 84.8053 205.754 88.0673C201.85 91.3294 201.331 97.1443 204.595 101.055Z" fill="url(#paint0_radial_3842_2158)"/>
<path fill-rule="evenodd" clip-rule="evenodd" d="M217.39 91.1048C217.847 89.9382 216.652 88.3627 214.726 87.5902C212.799 86.8177 210.865 87.1348 210.413 88.2999C209.956 89.4665 211.15 91.0419 213.077 91.8144C215.004 92.587 216.937 92.2699 217.39 91.1048Z" fill="url(#paint1_radial_3842_2158)"/>
<g style="mix-blend-mode:multiply" opacity="0.4">
<path d="M218.153 92.199C218.488 92.7642 219.627 92.626 219.627 92.626C219.627 92.626 219.398 93.0783 219.465 93.5157C219.837 92.7654 220.571 92.1997 221.237 91.9204C221.152 91.7602 221.037 91.5221 220.91 91.2559C220.794 91.1463 220.682 91.0318 220.591 90.9015C220.441 90.6855 220.257 90.4991 220.114 90.2785C220.077 90.2195 219.801 89.7719 219.758 89.6106C219.702 89.6363 219.647 89.662 219.59 89.6835C219.156 89.9744 218.612 90.0705 218.08 90.0804C218.008 90.0816 217.929 90.0678 217.845 90.0428C218.147 90.2768 218.521 90.4545 218.773 90.5025C218.773 90.5025 217.736 91.4964 218.151 92.1971L218.153 92.199Z" fill="#4D7398"/>
</g>
<path d="M220.416 88.7221C220.075 88.8111 219.591 88.945 219.014 89.1236C217.712 89.5262 217.624 89.6172 217.628 89.7342C217.634 89.9225 218.047 90.0641 218.375 90.1843C218.805 90.3424 219.056 90.3819 219.271 90.3893C219.116 90.4719 218.796 90.7418 218.623 90.9578C218.496 91.1157 218.241 91.501 218.329 91.7549C218.455 92.1178 219.307 92.2548 220.428 92.0858C220.243 92.2264 219.956 92.4857 219.752 92.8949C219.731 92.9348 219.439 93.6213 219.645 93.7932C219.776 93.9035 220.014 93.7888 220.752 93.3219C221.213 93.031 221.812 92.641 222.507 92.159C222.48 91.7744 222.373 90.9904 221.861 90.1635C221.369 89.3681 220.746 88.9253 220.417 88.7233L220.416 88.7221Z" fill="url(#paint2_linear_3842_2158)"/>
<path d="M221.874 90.1472C221.387 89.3569 220.77 88.917 220.445 88.7163C220.401 88.9506 220.266 89.8171 220.771 90.7216C221.343 91.7452 222.314 92.0679 222.514 92.1298C222.487 91.7477 222.381 90.9688 221.874 90.1472Z" fill="url(#paint3_linear_3842_2158)"/>
<path d="M221.428 90.4918L221.473 90.3647C221.575 90.0706 221.831 89.5196 222.403 89.1263C223.345 88.4785 224.417 88.7543 224.621 88.8167L224.723 88.847L224.701 88.9494C224.647 89.2122 224.546 89.4485 224.404 89.6549C223.576 90.8459 221.643 90.5278 221.562 90.5145L221.428 90.4918ZM224.457 89.0043C224.131 88.9252 223.285 88.7946 222.533 89.3129C222.089 89.6193 221.853 90.0293 221.736 90.3105C221.924 90.3313 222.279 90.3566 222.676 90.3114C223.394 90.23 223.913 89.9647 224.22 89.523C224.326 89.3701 224.406 89.1958 224.457 89.0043Z" fill="url(#paint4_linear_3842_2158)"/>
<path d="M220.434 89.1808C220.446 89.4384 220.478 89.6913 220.54 89.9379C220.6 90.1838 220.689 90.424 220.805 90.6481L220.85 90.7319L220.898 90.814C220.928 90.8693 220.965 90.9218 220.999 90.9754C221.071 91.0797 221.149 91.1812 221.232 91.2786C221.4 91.4715 221.588 91.6469 221.796 91.7998C221.808 91.8094 221.811 91.826 221.803 91.8391C221.795 91.8504 221.78 91.8529 221.768 91.8464C221.309 91.5909 220.92 91.1927 220.671 90.7183C220.544 90.4823 220.456 90.2269 220.404 89.9648C220.355 89.7034 220.343 89.4349 220.379 89.1758C220.381 89.1613 220.395 89.1502 220.41 89.1525C220.423 89.1554 220.433 89.1661 220.433 89.1796L220.434 89.1808Z" fill="#EDF0FF"/>
<path d="M22.8087 37.0759C22.8087 37.0759 20.0302 32.7678 19.0608 31.881C18.0915 30.9942 15.7371 30.9214 15.1448 31.0128C14.555 31.0968 10.0964 34.85 10.4347 38.0639C10.7729 41.2778 15.8246 42.5298 21.5881 41.1858L22.0112 39.0689L12.9629 38.0547C12.9629 38.0547 14.6485 34.238 16.5819 33.4658L22.4372 40.3423L22.816 37.0783L22.8087 37.0759Z" fill="url(#paint5_radial_3842_2158)"/>
<path d="M68.9063 32.71C68.9063 32.71 87.2117 54.1832 96.2188 57.4899C96.2188 57.4899 106.805 47.2773 116.423 48.5869C126.294 49.9223 131.445 57.8215 130.565 64.4239C129.685 71.0264 116.032 82.2602 102.534 91.5753C89.028 100.888 84.6301 101.403 76.553 98.24C68.476 95.0767 56.8314 81.5424 39.9954 65.479L68.9063 32.71Z" fill="url(#paint6_radial_3842_2158)"/>
<path d="M76.5527 98.2397C72.7663 96.7578 68.2012 92.9997 62.6814 87.7687C66.4233 86.0106 73.4005 83.4842 80.5398 84.6305C87.7183 85.7814 94.0873 90.7352 97.83 94.6892C87.8627 100.962 83.6066 100.999 76.5527 98.2397Z" fill="url(#paint7_radial_3842_2158)"/>
<path d="M68.1397 72.2599C69.6282 76.57 73.8652 79.3495 78.3293 78.9455C83.5821 78.4667 87.322 73.7861 86.6868 68.4868C86.1441 63.9837 82.5731 60.3705 78.0976 59.7981L77.6997 59.7447L76.4573 68.7649L68.005 71.877L68.1397 72.2599ZM67.4449 70.0995L74.7133 67.4229L75.7796 59.6693L63.2866 58.0674L67.4449 70.0995ZM74.1107 60.9401L73.3673 66.3205L68.3238 68.1818L65.4421 59.8324L74.1107 60.9401Z" fill="url(#paint8_radial_3842_2158)"/>
<path d="M32.2035 67.4925C29.9322 66.7251 27.6608 65.7606 25.7418 64.2972C22.8559 62.0873 20.841 58.1548 21.8733 54.6391C19.8586 51.8884 19.4419 48.0741 20.2514 44.6407C21.4009 39.7604 24.5523 33.9993 29.4566 32.1251C29.7845 31.5523 30.0903 30.9723 30.3912 30.4071C31.5436 28.2277 32.8527 26.2151 34.6145 24.4834C37.8299 21.3368 42.0343 19.3131 46.4763 18.7632L46.5179 18.7605C48.6466 15.8208 51.9847 14.3231 55.3279 14.4849C58.0663 12.7315 61.4242 12.9474 64.3882 13.9849C67.7536 15.1635 70.6223 17.0804 71.8221 20.571C72.1698 21.5887 72.4514 22.6338 72.968 23.5843C73.4748 24.515 74.1993 25.2798 74.8676 26.0917C75.8908 27.3328 76.6816 28.6611 76.6525 30.3256C76.6138 33.1523 74.3821 35.2702 71.7487 35.4498C72.1455 37.3782 72.1678 39.3552 70.4377 40.6952C69.2949 41.5893 67.9317 41.8443 66.544 41.8286C66.1429 43.1156 65.191 44.1714 63.9968 44.95C61.7845 46.3932 59.3029 47.0005 57.4114 48.9765C55.7009 50.7497 54.4898 52.9343 52.8528 54.7811C51.2916 56.5462 49.3339 57.6633 47.4104 58.9722C46.297 59.7283 45.2398 60.5604 44.4225 61.6525C43.6689 62.6506 43.1478 63.8078 42.4945 64.872C41.4668 66.5509 40.0916 67.9016 38.1044 68.2703C36.1171 68.639 34.0612 68.1315 32.1937 67.4975L32.2035 67.4925Z" fill="white"/>
<path d="M32.2035 67.4925C29.9322 66.7251 27.6608 65.7606 25.7418 64.2972C22.8559 62.0873 20.841 58.1548 21.8733 54.6391C19.8586 51.8884 19.4419 48.0741 20.2514 44.6407C21.4009 39.7604 24.5523 33.9993 29.4566 32.1251C29.7845 31.5523 30.0903 30.9723 30.3912 30.4071C31.5436 28.2277 32.8527 26.2151 34.6145 24.4834C37.8299 21.3368 42.0343 19.3131 46.4763 18.7632L46.5179 18.7605C48.6466 15.8208 51.9847 14.3231 55.3279 14.4849C58.0663 12.7315 61.4242 12.9474 64.3882 13.9849C67.7536 15.1635 70.6223 17.0804 71.8221 20.571C72.1698 21.5887 72.4514 22.6338 72.968 23.5843C73.4748 24.515 74.1993 25.2798 74.8676 26.0917C75.8908 27.3328 76.6816 28.6611 76.6525 30.3256C76.6138 33.1523 74.3821 35.2702 71.7487 35.4498C72.1455 37.3782 72.1678 39.3552 70.4377 40.6952C69.2949 41.5893 67.9317 41.8443 66.544 41.8286C66.1429 43.1156 65.191 44.1714 63.9968 44.95C61.7845 46.3932 59.3029 47.0005 57.4114 48.9765C55.7009 50.7497 54.4898 52.9343 52.8528 54.7811C51.2916 56.5462 49.3339 57.6633 47.4104 58.9722C46.297 59.7283 45.2398 60.5604 44.4225 61.6525C43.6689 62.6506 43.1478 63.8078 42.4945 64.872C41.4668 66.5509 40.0916 67.9016 38.1044 68.2703C36.1171 68.639 34.0612 68.1315 32.1937 67.4975L32.2035 67.4925Z" fill="url(#paint9_radial_3842_2158)"/>
<path d="M39.995 65.4786L68.9059 32.7096C68.9059 32.7096 72.2987 36.6874 76.8787 41.4845C67.9342 46.9795 54.1205 59.0954 45.9211 71.2297C44.0216 69.3624 42.0487 67.4462 39.9999 65.4885L39.995 65.4786Z" fill="url(#paint10_linear_3842_2158)"/>
<path d="M56.4056 17.8033C46.7806 21.4072 33.6121 30.6261 25.1767 45.9345C31.5944 45.2289 47.6351 37.5254 56.4056 17.8033Z" fill="url(#paint11_linear_3842_2158)"/>
<path d="M116.401 50.5245C115.525 50.6124 115.054 51.6455 115.181 52.418C115.329 53.2916 116.157 53.6825 116.951 53.6441C116.834 53.6654 117.196 53.6477 117.259 53.6474C117.284 53.6474 117.425 53.6617 117.511 53.6735C117.594 53.6929 117.812 53.748 117.849 53.7601C117.981 53.8037 118.103 53.8529 118.229 53.9113C119.037 54.2768 119.94 53.6392 120.227 52.8968C120.559 52.0385 119.979 51.2316 119.228 50.8929C118.327 50.4885 117.37 50.4265 116.401 50.5245Z" fill="url(#paint12_radial_3842_2158)"/>
<path d="M101.231 56.299C99.65 57.6063 101.748 59.9826 103.319 58.6802C105.577 56.8012 108.181 55.4056 110.993 54.5875C112.941 54.0171 112.309 50.9029 110.344 51.4753C106.992 52.451 103.925 54.0634 101.231 56.299Z" fill="url(#paint13_radial_3842_2158)"/>
<path d="M51.5326 44.4411C53.8855 37.3258 50.0248 29.6502 42.9094 27.2974C35.7941 24.9445 28.1185 28.8052 25.7656 35.9206C23.4128 43.0359 27.2735 50.7115 34.3889 53.0643C41.5042 55.4172 49.1798 51.5565 51.5326 44.4411Z" fill="url(#paint14_radial_3842_2158)"/>
<g clip-path="url(#clip0_3842_2158)">
<rect x="26.5641" y="32.6691" width="27.1392" height="27.1392" rx="13.5696" transform="rotate(-53.6439 26.5641 32.6691)" fill="url(#paint15_radial_3842_2158)"/>
<path fill-rule="evenodd" clip-rule="evenodd" d="M39.3782 24.8988L46.1251 25.2305L45.6006 29.4793L41.6999 31.2422L39.3782 24.8988ZM42.1628 30.1642L40.5518 25.7627L45.2333 25.9929L44.8694 28.941L42.1628 30.1642Z" fill="white"/>
<path d="M46.5941 30.2171L42.0688 32.2624L42.1424 32.4633C42.9719 34.7298 45.2701 36.0516 47.6678 35.6414C50.4893 35.1587 52.4706 32.4671 52.093 29.6295C51.7722 27.2182 49.8271 25.4167 47.4165 25.2982L47.2028 25.2876L46.5941 30.2171Z" fill="white"/>
<path fill-rule="evenodd" clip-rule="evenodd" d="M39.3782 24.8988L46.1251 25.2305L45.6006 29.4793L41.6999 31.2422L39.3782 24.8988ZM42.1628 30.1642L40.5518 25.7627L45.2333 25.9929L44.8694 28.941L42.1628 30.1642Z" fill="white"/>
<path d="M46.5941 30.2171L42.0688 32.2624L42.1424 32.4633C42.9719 34.7298 45.2701 36.0516 47.6678 35.6414C50.4893 35.1587 52.4706 32.4671 52.093 29.6295C51.7722 27.2182 49.8271 25.4167 47.4165 25.2982L47.2028 25.2876L46.5941 30.2171Z" fill="white"/>
</g>
<path d="M19.8145 45.6819C19.3769 48.7525 19.9151 51.9779 21.6796 54.3873C20.6473 57.903 22.6628 61.8366 25.5487 64.0465C27.4676 65.5097 29.7389 66.4741 32.01 67.2415L32.0001 67.2465C33.8676 67.8804 35.9237 68.3878 37.9109 68.0192C39.8981 67.6505 41.2739 66.2993 42.3015 64.6203C42.9546 63.5564 43.4755 62.3995 44.2289 61.4015C45.0461 60.3095 46.1033 59.4767 47.2168 58.7207C49.1401 57.4118 51.0981 56.295 52.6592 54.53C54.2962 52.6832 55.5076 50.4986 57.218 48.7253C59.1095 46.7494 61.5912 46.1419 63.8034 44.6987C64.9976 43.92 65.9496 42.864 66.3508 41.5769C67.7384 41.5926 69.1014 41.3381 70.2441 40.4441C71.9742 39.1041 71.9516 37.1272 71.5549 35.1988C74.1883 35.0192 76.4209 32.901 76.4596 30.0743C76.4887 28.4098 75.6973 27.0817 74.6741 25.8407C74.0058 25.0289 73.2812 24.264 72.7744 23.3333C72.2578 22.3829 71.9763 21.3369 71.6286 20.3192C70.4287 16.8291 67.5604 14.912 64.1953 13.7336C62.1629 13.0221 59.9445 12.6964 57.8684 13.1277C57.4511 14.6427 56.8907 16.226 56.1624 17.8638C47.3919 37.5858 31.3507 45.2896 24.9329 45.9951C23.0756 45.7472 21.3699 45.6576 19.8145 45.6819Z" fill="white"/>
<path d="M19.8145 45.6819C19.3769 48.7525 19.9151 51.9779 21.6796 54.3873C20.6473 57.903 22.6628 61.8366 25.5487 64.0465C27.4676 65.5097 29.7389 66.4741 32.01 67.2415L32.0001 67.2465C33.8676 67.8804 35.9237 68.3878 37.9109 68.0192C39.8981 67.6505 41.2739 66.2993 42.3015 64.6203C42.9546 63.5564 43.4755 62.3995 44.2289 61.4015C45.0461 60.3095 46.1033 59.4767 47.2168 58.7207C49.1401 57.4118 51.0981 56.295 52.6592 54.53C54.2962 52.6832 55.5076 50.4986 57.218 48.7253C59.1095 46.7494 61.5912 46.1419 63.8034 44.6987C64.9976 43.92 65.9496 42.864 66.3508 41.5769C67.7384 41.5926 69.1014 41.3381 70.2441 40.4441C71.9742 39.1041 71.9516 37.1272 71.5549 35.1988C74.1883 35.0192 76.4209 32.901 76.4596 30.0743C76.4887 28.4098 75.6973 27.0817 74.6741 25.8407C74.0058 25.0289 73.2812 24.264 72.7744 23.3333C72.2578 22.3829 71.9763 21.3369 71.6286 20.3192C70.4287 16.8291 67.5604 14.912 64.1953 13.7336C62.1629 13.0221 59.9445 12.6964 57.8684 13.1277C57.4511 14.6427 56.8907 16.226 56.1624 17.8638C47.3919 37.5858 31.3507 45.2896 24.9329 45.9951C23.0756 45.7472 21.3699 45.6576 19.8145 45.6819Z" fill="url(#paint16_radial_3842_2158)"/>
<path d="M201.199 95.0814C196.902 93.9744 192.425 96.6371 191.181 101.039L206.732 105.056C207.967 100.651 205.496 96.1884 201.202 95.0728L201.199 95.0814Z" fill="white"/>
<path d="M218.537 100.444C214.595 99.4237 210.475 101.874 209.335 105.924L223.624 109.615C224.762 105.573 222.488 101.467 218.537 100.444Z" fill="white"/>
<path d="M210.543 94.5478C204.705 93.0364 198.611 96.6691 196.926 102.655L218.068 108.119C219.753 102.133 216.381 96.0593 210.543 94.5478Z" fill="white"/>
<path d="M200.799 96.604C201.222 96.7183 201.623 96.8641 202.011 97.0445C204.425 95.6977 207.3 95.2308 210.12 95.9752C213.254 96.7912 215.668 98.9206 216.999 101.632C217.356 101.67 217.713 101.728 218.069 101.816C221.547 102.726 223.734 106.01 223.458 109.539L223.6 109.574C224.726 105.533 222.432 101.416 218.468 100.378C218.112 100.29 217.754 100.231 217.398 100.193C216.067 97.4824 213.653 95.353 210.519 94.537C207.695 93.8012 204.82 94.2682 202.409 95.6063C202.019 95.4345 201.621 95.2801 201.197 95.1658C196.886 94.0429 192.407 96.692 191.177 101.093L191.311 101.125C193.008 97.5864 196.969 95.5978 200.799 96.604Z" fill="#CFEBFA"/>
<path d="M138.092 84.9238C150.805 85.3401 160.706 96.0743 160.202 108.892L114.187 107.385C114.691 94.5672 125.412 84.5085 138.124 84.9248L138.092 84.9238Z" fill="white"/>
<path d="M86.4352 84.9373C98.1231 85.3201 107.193 95.1867 106.73 106.939L64.43 105.554C64.894 93.7689 74.7473 84.5544 86.4032 84.9362L86.4352 84.9373Z" fill="white"/>
<path d="M113.19 75.6822C130.482 76.2486 143.92 90.8167 143.233 108.252L80.6631 106.203C81.3496 88.7673 95.8985 75.1159 113.19 75.6822Z" fill="white"/>
<path d="M137.891 89.0779C136.641 89.0351 135.418 89.1224 134.192 89.2741C128.783 83.7291 121.34 80.1809 113.005 79.8954C103.771 79.5791 95.3142 83.3577 89.335 89.5459C88.3151 89.3495 87.2928 89.2177 86.2669 89.1825C76.0074 88.8311 67.1704 95.89 64.88 105.562L64.4632 105.548C64.9064 93.7784 74.7546 84.5908 86.4247 84.9905C87.4827 85.0267 88.505 85.1587 89.4928 85.3539C95.4733 79.1335 103.897 75.386 113.162 75.7033C121.498 75.9888 128.941 79.5372 134.35 85.0822C135.543 84.9293 136.799 84.8432 138.049 84.886C150.777 85.3219 160.71 96.0588 160.228 108.86L159.843 108.847C158.294 97.9779 149.209 89.4656 137.923 89.079L137.891 89.0779Z" fill="#CFEBFA"/>
<path d="M63.03 74.8616C77.7852 75.6854 88.9532 88.4772 87.9674 103.425L34.559 100.443C35.5449 85.4953 48.3121 74.0399 63.0672 74.8637L63.03 74.8616Z" fill="white"/>
<path d="M2.95076 73.3962C16.5166 74.1536 26.7458 85.9106 25.8419 99.6157L-23.2554 96.8745C-22.3491 83.1317 -10.6151 72.6388 2.91356 73.3941L2.95076 73.3962Z" fill="white"/>
<path d="M34.3421 63.4174C54.4121 64.538 69.5688 81.8984 68.2278 102.23L-4.39574 98.1752C-3.05481 77.8436 14.2721 62.2968 34.3421 63.4174Z" fill="white"/>
<path d="M62.6776 79.6989C61.2253 79.6146 59.8008 79.6827 58.3714 79.826C52.2503 73.2092 43.7051 68.8656 34.0233 68.3032C23.2988 67.6802 13.354 71.855 6.21668 78.9087C5.03698 78.6516 3.85254 78.4697 2.66093 78.4004C-9.25519 77.7083 -19.7409 85.6989 -22.6946 96.9183L-23.1787 96.8902C-22.3092 83.1735 -10.5839 72.7276 2.97064 73.515C4.19949 73.5863 5.38392 73.7684 6.52638 74.0233C13.666 66.9321 23.5713 62.7926 34.333 63.4177C44.0149 63.9801 52.56 68.3238 58.6811 74.9406C60.0732 74.7952 61.535 74.7292 62.9873 74.8136C77.7707 75.6723 88.9942 88.4696 88.0484 103.389L87.6016 103.363C86.1282 90.6416 75.8226 80.4625 62.7149 79.7011L62.6776 79.6989Z" fill="#CFEBFA"/>
<defs>
<radialGradient id="paint0_radial_3842_2158" cx="0" cy="0" r="1" gradientTransform="matrix(-5.69731 19.6006 -20.9712 -6.12282 214.009 89.5664)" gradientUnits="userSpaceOnUse">
<stop stop-color="#FFB6B7"/>
<stop offset="0.5" stop-color="#E23E3F"/>
<stop offset="1" stop-color="#F0A3A4" stop-opacity="0"/>
</radialGradient>
<radialGradient id="paint1_radial_3842_2158" cx="0" cy="0" r="1" gradientTransform="matrix(-5.25862 2.25091 -2.04174 -4.79796 216.059 88.4066)" gradientUnits="userSpaceOnUse">
<stop stop-color="white"/>
<stop offset="1" stop-color="white" stop-opacity="0"/>
</radialGradient>
<linearGradient id="paint2_linear_3842_2158" x1="218.165" y1="89.8081" x2="221.918" y2="92.6509" gradientUnits="userSpaceOnUse">
<stop offset="0.1" stop-color="#C9C9C9"/>
<stop offset="1" stop-color="#767484"/>
</linearGradient>
<linearGradient id="paint3_linear_3842_2158" x1="219.67" y1="89.0017" x2="227.076" y2="89.3632" gradientUnits="userSpaceOnUse">
<stop offset="0.1" stop-color="#C9C9C9"/>
<stop offset="1" stop-color="#767484"/>
</linearGradient>
<linearGradient id="paint4_linear_3842_2158" x1="220.998" y1="89.8891" x2="222.71" y2="92.0983" gradientUnits="userSpaceOnUse">
<stop offset="0.1" stop-color="#C9C9C9"/>
<stop offset="1" stop-color="#767484"/>
</linearGradient>
<radialGradient id="paint5_radial_3842_2158" cx="0" cy="0" r="1" gradientTransform="matrix(38.7536 33.0367 38.4069 -34.5584 14.1509 34.013)" gradientUnits="userSpaceOnUse">
<stop stop-color="#FFB6B7"/>
<stop offset="0.63203" stop-color="#E23E3F"/>
<stop offset="1" stop-color="#F0A3A4" stop-opacity="0"/>
</radialGradient>
<radialGradient id="paint6_radial_3842_2158" cx="0" cy="0" r="1" gradientTransform="matrix(63.2056 59.9521 72.3857 -38.2955 63.0257 52.6724)" gradientUnits="userSpaceOnUse">
<stop stop-color="#FFB6D3"/>
<stop offset="0.5" stop-color="#E23E3F"/>
<stop offset="1" stop-color="#F0A3CB" stop-opacity="0"/>
</radialGradient>
<radialGradient id="paint7_radial_3842_2158" cx="0" cy="0" r="1" gradientUnits="userSpaceOnUse" gradientTransform="translate(91.8867 171.443) rotate(-99.222) scale(86.7051 110.891)">
<stop stop-color="white"/>
<stop offset="1" stop-color="white" stop-opacity="0.3"/>
</radialGradient>
<radialGradient id="paint8_radial_3842_2158" cx="0" cy="0" r="1" gradientTransform="matrix(-0.932667 -38.2206 -31.913 16.7138 74.7191 105.948)" gradientUnits="userSpaceOnUse">
<stop stop-color="white"/>
<stop offset="1" stop-color="white" stop-opacity="0.7"/>
</radialGradient>
<radialGradient id="paint9_radial_3842_2158" cx="0" cy="0" r="1" gradientTransform="matrix(54.3082 66.2799 63.2518 -76.4249 33.4718 21.4567)" gradientUnits="userSpaceOnUse">
<stop stop-color="white"/>
<stop offset="0.5" stop-color="#F8A9AB" stop-opacity="0.6"/>
<stop offset="1" stop-color="white" stop-opacity="0"/>
</radialGradient>
<linearGradient id="paint10_linear_3842_2158" x1="70.1846" y1="68.3037" x2="55.9362" y2="47.3579" gradientUnits="userSpaceOnUse">
<stop stop-color="#BB1F22"/>
<stop offset="1" stop-color="#960B0D" stop-opacity="0"/>
</linearGradient>
<linearGradient id="paint11_linear_3842_2158" x1="59.3626" y1="60.3159" x2="38.1076" y2="31.7891" gradientUnits="userSpaceOnUse">
<stop stop-color="#BB1F22"/>
<stop offset="1" stop-color="#960B0D" stop-opacity="0"/>
</linearGradient>
<radialGradient id="paint12_radial_3842_2158" cx="0" cy="0" r="1" gradientTransform="matrix(-5.96748 -33.4454 -23.944 18.4913 109.594 72.653)" gradientUnits="userSpaceOnUse">
<stop stop-color="white"/>
<stop offset="1" stop-color="white" stop-opacity="0.3"/>
</radialGradient>
<radialGradient id="paint13_radial_3842_2158" cx="0" cy="0" r="1" gradientTransform="matrix(-5.96748 -33.4454 -23.944 18.4913 109.594 72.653)" gradientUnits="userSpaceOnUse">
<stop stop-color="white"/>
<stop offset="1" stop-color="white" stop-opacity="0.3"/>
</radialGradient>
<radialGradient id="paint14_radial_3842_2158" cx="0" cy="0" r="1" gradientUnits="userSpaceOnUse" gradientTransform="translate(44.6008 50.9965) rotate(-111.103) scale(23.4143)">
<stop offset="0.183421" stop-color="#FFAA7D"/>
<stop offset="1" stop-color="#FFAA7D" stop-opacity="0.3"/>
</radialGradient>
<radialGradient id="paint15_radial_3842_2158" cx="0" cy="0" r="1" gradientUnits="userSpaceOnUse" gradientTransform="translate(40.1337 46.2387) rotate(91.273) scale(29.0849)">
<stop offset="0.183421" stop-color="#FFAA7D"/>
<stop offset="1" stop-color="#FFAA7D" stop-opacity="0.3"/>
</radialGradient>
<radialGradient id="paint16_radial_3842_2158" cx="0" cy="0" r="1" gradientTransform="matrix(53.9452 66.1597 63.0708 -76.4843 33.4996 21.2787)" gradientUnits="userSpaceOnUse">
<stop stop-color="white"/>
<stop offset="0.5" stop-color="#F8A9AB" stop-opacity="0.6"/>
<stop offset="1" stop-color="white" stop-opacity="0"/>
</radialGradient>
<clipPath id="clip0_3842_2158">
<rect x="26.5641" y="32.6691" width="27.1392" height="27.1392" rx="13.5696" transform="rotate(-53.6439 26.5641 32.6691)" fill="white"/>
</clipPath>
</defs>
</svg>
