<svg width="297" height="117" viewBox="0 0 297 117" fill="none" xmlns="http://www.w3.org/2000/svg">
<path d="M296.184 144.807C284.684 86.3073 25.6841 80.8071 -50.3159 80.3071V197.807C89.5174 207.474 312.174 226.147 296.184 144.807Z" fill="white"/>
<path d="M204.595 101.055C207.858 104.966 213.668 105.492 217.572 102.23C221.475 98.9677 221.994 93.1528 218.731 89.2419C215.467 85.3309 209.657 84.8048 205.754 88.0669C201.85 91.329 201.331 97.1439 204.595 101.055Z" fill="url(#paint0_radial_3842_2715)"/>
<path fill-rule="evenodd" clip-rule="evenodd" d="M217.39 91.1043C217.847 89.9377 216.652 88.3623 214.726 87.5897C212.799 86.8172 210.865 87.1343 210.413 88.2994C209.956 89.466 211.15 91.0414 213.077 91.814C215.004 92.5865 216.937 92.2694 217.39 91.1043Z" fill="url(#paint1_radial_3842_2715)"/>
<g style="mix-blend-mode:multiply" opacity="0.4">
<path d="M218.153 92.1984C218.488 92.7636 219.627 92.6254 219.627 92.6254C219.627 92.6254 219.398 93.0777 219.465 93.515C219.837 92.7648 220.571 92.1991 221.237 91.9198C221.152 91.7596 221.037 91.5215 220.91 91.2553C220.794 91.1456 220.682 91.0312 220.591 90.9008C220.441 90.6849 220.257 90.4985 220.114 90.2779C220.077 90.2189 219.801 89.7712 219.758 89.61C219.702 89.6357 219.646 89.6614 219.59 89.6828C219.156 89.9738 218.612 90.0699 218.08 90.0798C218.008 90.081 217.929 90.0672 217.845 90.0421C218.147 90.2762 218.521 90.4538 218.773 90.5019C218.773 90.5019 217.736 91.4958 218.151 92.1965L218.153 92.1984Z" fill="#4D7398"/>
</g>
<path d="M220.416 88.7215C220.075 88.8106 219.591 88.9445 219.014 89.1231C217.712 89.5256 217.624 89.6167 217.628 89.7336C217.634 89.922 218.047 90.0636 218.374 90.1837C218.805 90.3419 219.056 90.3813 219.271 90.3888C219.116 90.4713 218.796 90.7412 218.623 90.9572C218.496 91.1152 218.241 91.5004 218.329 91.7544C218.455 92.1172 219.307 92.2543 220.428 92.0853C220.243 92.2258 219.956 92.4852 219.752 92.8944C219.731 92.9343 219.439 93.6208 219.645 93.7927C219.776 93.903 220.014 93.7883 220.752 93.3213C221.213 93.0304 221.811 92.6404 222.507 92.1584C222.48 91.7738 222.373 90.9899 221.86 90.163C221.369 89.3675 220.746 88.9248 220.417 88.7228L220.416 88.7215Z" fill="url(#paint2_linear_3842_2715)"/>
<path d="M221.874 90.1467C221.387 89.3564 220.77 88.9165 220.444 88.7158C220.4 88.95 220.266 89.8165 220.771 90.7211C221.343 91.7447 222.314 92.0674 222.514 92.1293C222.487 91.7472 222.381 90.9682 221.874 90.1467Z" fill="url(#paint3_linear_3842_2715)"/>
<path d="M221.428 90.4913L221.473 90.3642C221.575 90.0701 221.831 89.5192 222.403 89.1258C223.345 88.478 224.417 88.7538 224.621 88.8162L224.723 88.8465L224.701 88.9489C224.647 89.2117 224.546 89.4481 224.404 89.6544C223.576 90.8454 221.643 90.5273 221.562 90.514L221.428 90.4913ZM224.457 89.0038C224.131 88.9247 223.285 88.7941 222.533 89.3124C222.089 89.6188 221.853 90.0288 221.736 90.31C221.924 90.3308 222.279 90.3561 222.676 90.3109C223.393 90.2295 223.912 89.9642 224.22 89.5225C224.326 89.3696 224.406 89.1953 224.457 89.0038Z" fill="url(#paint4_linear_3842_2715)"/>
<path d="M220.434 89.1803C220.446 89.4379 220.478 89.6908 220.54 89.9374C220.6 90.1833 220.689 90.4235 220.805 90.6476L220.85 90.7314L220.897 90.8135C220.928 90.8688 220.965 90.9213 220.999 90.9749C221.071 91.0792 221.149 91.1807 221.232 91.2781C221.399 91.471 221.588 91.6464 221.796 91.7994C221.808 91.8089 221.811 91.8255 221.803 91.8386C221.795 91.8499 221.78 91.8524 221.768 91.8459C221.309 91.5904 220.919 91.1922 220.671 90.7179C220.544 90.4818 220.456 90.2264 220.404 89.9643C220.354 89.703 220.343 89.4344 220.379 89.1754C220.381 89.1608 220.395 89.1497 220.41 89.152C220.423 89.1549 220.433 89.1656 220.433 89.1791L220.434 89.1803Z" fill="#EDF0FF"/>
<path d="M22.8087 37.0754C22.8087 37.0754 20.0301 32.7673 19.0608 31.8805C18.0915 30.9937 15.7371 30.9209 15.1448 31.0123C14.555 31.0963 10.0964 34.8495 10.4347 38.0634C10.7729 41.2773 15.8246 42.5293 21.5881 41.1854L22.0111 39.0685L12.9628 38.0542C12.9628 38.0542 14.6485 34.2375 16.5818 33.4653L22.4372 40.3418L22.816 37.0778L22.8087 37.0754Z" fill="url(#paint5_radial_3842_2715)"/>
<path d="M68.9063 32.7094C68.9063 32.7094 87.2117 54.1826 96.2188 57.4893C96.2188 57.4893 106.805 47.2767 116.423 48.5863C126.294 49.9218 131.445 57.8209 130.565 64.4234C129.685 71.0259 116.032 82.2596 102.534 91.5748C89.028 100.887 84.63 101.403 76.553 98.2394C68.476 95.0761 56.8314 81.5419 39.9954 65.4784L68.9063 32.7094Z" fill="url(#paint6_radial_3842_2715)"/>
<path d="M76.5526 98.239C72.7662 96.7571 68.2012 92.999 62.6814 87.768C66.4232 86.01 73.4004 83.4835 80.5397 84.6298C87.7182 85.7808 94.0872 90.7345 97.83 94.6885C87.8626 100.961 83.6066 100.998 76.5526 98.239Z" fill="url(#paint7_radial_3842_2715)"/>
<path d="M68.1398 72.2589C69.6282 76.5693 73.8651 79.3485 78.3295 78.9445C83.5821 78.4656 87.3218 73.786 86.6867 68.4868C86.144 63.9835 82.573 60.3704 78.0974 59.7981L77.6995 59.7447L76.4571 68.7648L68.0052 71.876L68.1398 72.2589ZM67.4447 70.0995L74.7131 67.4228L75.7798 59.6684L63.2864 58.0674L67.4447 70.0995ZM74.1106 60.9401L73.3671 66.3205L68.324 68.1808L65.4419 59.8324L74.1106 60.9401Z" fill="url(#paint8_radial_3842_2715)"/>
<path d="M32.2035 67.4919C29.9321 66.7244 27.6608 65.76 25.7417 64.2966C22.8559 62.0867 20.841 58.1542 21.8732 54.6385C19.8585 51.8878 19.4419 48.0735 20.2514 44.6401C21.4009 39.7598 24.5522 33.9987 29.4566 32.1244C29.7844 31.5517 30.0903 30.9717 30.3912 30.4065C31.5436 28.2271 32.8526 26.2145 34.6145 24.4828C37.8299 21.3361 42.0342 19.3125 46.4762 18.7626L46.5178 18.7599C48.6466 15.8202 51.9847 14.3225 55.3279 14.4843C58.0663 12.7309 61.4242 12.9468 64.3882 13.9843C67.7536 15.1628 70.6223 17.0798 71.8221 20.5704C72.1698 21.5881 72.4514 22.6332 72.968 23.5836C73.4747 24.5144 74.1993 25.2792 74.8676 26.0911C75.8908 27.3322 76.6815 28.6605 76.6524 30.325C76.6137 33.1517 74.382 35.2696 71.7486 35.4492C72.1454 37.3776 72.1678 39.3546 70.4377 40.6946C69.2949 41.5887 67.9317 41.8437 66.544 41.828C66.1428 43.115 65.191 44.1708 63.9967 44.9494C61.7845 46.3926 59.3029 46.9999 57.4114 48.9759C55.7009 50.7491 54.4898 52.9337 52.8528 54.7805C51.2916 56.5456 49.3338 57.6626 47.4104 58.9716C46.2969 59.7276 45.2398 60.5598 44.4225 61.6518C43.6689 62.65 43.1478 63.8072 42.4945 64.8713C41.4668 66.5503 40.0916 67.901 38.1043 68.2697C36.1171 68.6384 34.0612 68.1309 32.1937 67.4969L32.2035 67.4919Z" fill="white"/>
<path d="M32.2035 67.4919C29.9321 66.7244 27.6608 65.76 25.7417 64.2966C22.8559 62.0867 20.841 58.1542 21.8732 54.6385C19.8585 51.8878 19.4419 48.0735 20.2514 44.6401C21.4009 39.7598 24.5522 33.9987 29.4566 32.1244C29.7844 31.5517 30.0903 30.9717 30.3912 30.4065C31.5436 28.2271 32.8526 26.2145 34.6145 24.4828C37.8299 21.3361 42.0342 19.3125 46.4762 18.7626L46.5178 18.7599C48.6466 15.8202 51.9847 14.3225 55.3279 14.4843C58.0663 12.7309 61.4242 12.9468 64.3882 13.9843C67.7536 15.1628 70.6223 17.0798 71.8221 20.5704C72.1698 21.5881 72.4514 22.6332 72.968 23.5836C73.4747 24.5144 74.1993 25.2792 74.8676 26.0911C75.8908 27.3322 76.6815 28.6605 76.6524 30.325C76.6137 33.1517 74.382 35.2696 71.7486 35.4492C72.1454 37.3776 72.1678 39.3546 70.4377 40.6946C69.2949 41.5887 67.9317 41.8437 66.544 41.828C66.1428 43.115 65.191 44.1708 63.9967 44.9494C61.7845 46.3926 59.3029 46.9999 57.4114 48.9759C55.7009 50.7491 54.4898 52.9337 52.8528 54.7805C51.2916 56.5456 49.3338 57.6626 47.4104 58.9716C46.2969 59.7276 45.2398 60.5598 44.4225 61.6518C43.6689 62.65 43.1478 63.8072 42.4945 64.8713C41.4668 66.5503 40.0916 67.901 38.1043 68.2697C36.1171 68.6384 34.0612 68.1309 32.1937 67.4969L32.2035 67.4919Z" fill="url(#paint9_radial_3842_2715)"/>
<path d="M39.9949 65.4782L68.9059 32.7091C68.9059 32.7091 72.2987 36.6869 76.8786 41.484C67.9342 46.979 54.1204 59.0949 45.9211 71.2292C44.0216 69.3619 42.0486 67.4457 39.9998 65.488L39.9949 65.4782Z" fill="url(#paint10_linear_3842_2715)"/>
<path d="M56.4057 17.8028C46.7806 21.4067 33.6122 30.6255 25.1767 45.9339C31.5945 45.2283 47.6352 37.5248 56.4057 17.8028Z" fill="url(#paint11_linear_3842_2715)"/>
<path d="M116.401 50.5239C115.525 50.6118 115.054 51.6449 115.181 52.4173C115.329 53.291 116.157 53.6818 116.951 53.6435C116.834 53.6648 117.196 53.6471 117.259 53.6468C117.284 53.6468 117.425 53.6611 117.511 53.6729C117.594 53.6923 117.812 53.7474 117.849 53.7595C117.981 53.8031 118.103 53.8523 118.23 53.9107C119.037 54.2762 119.94 53.6386 120.227 52.8962C120.559 52.0379 119.979 51.231 119.228 50.8923C118.327 50.4879 117.37 50.4259 116.401 50.5239Z" fill="url(#paint12_radial_3842_2715)"/>
<path d="M101.231 56.2984C99.6501 57.6057 101.748 59.982 103.319 58.6796C105.577 56.8006 108.181 55.405 110.993 54.5869C112.941 54.0165 112.309 50.9023 110.344 51.4747C106.992 52.4504 103.925 54.0628 101.231 56.2984Z" fill="url(#paint13_radial_3842_2715)"/>
<path d="M51.5327 44.4406C53.8856 37.3253 50.0248 29.6497 42.9095 27.2969C35.7941 24.944 28.1186 28.8047 25.7657 35.9201C23.4128 43.0355 27.2736 50.711 34.3889 53.0639C41.5043 55.4167 49.1798 51.556 51.5327 44.4406Z" fill="url(#paint14_radial_3842_2715)"/>
<rect x="26.5641" y="32.6687" width="27.1392" height="27.1392" rx="13.5696" transform="rotate(-53.6439 26.5641 32.6687)" fill="url(#paint15_radial_3842_2715)"/>
<path fill-rule="evenodd" clip-rule="evenodd" d="M39.3781 24.8985L46.125 25.2302L45.6005 29.4789L41.6998 31.2419L39.3781 24.8985ZM42.1627 30.1639L40.5518 25.7623L45.2332 25.9925L44.8693 28.9406L42.1627 30.1639Z" fill="white"/>
<path d="M46.594 30.2168L42.0688 32.262L42.1423 32.463C42.9718 34.7294 45.27 36.0513 47.6677 35.641C50.4893 35.1583 52.4705 32.4667 52.093 29.6292C51.7721 27.2179 49.827 25.4163 47.4165 25.2978L47.2027 25.2873L46.594 30.2168Z" fill="white"/>
<path fill-rule="evenodd" clip-rule="evenodd" d="M39.3781 24.8985L46.125 25.2302L45.6005 29.4789L41.6998 31.2419L39.3781 24.8985ZM42.1627 30.1639L40.5518 25.7623L45.2332 25.9925L44.8693 28.9406L42.1627 30.1639Z" fill="white"/>
<path d="M46.594 30.2168L42.0688 32.262L42.1423 32.463C42.9718 34.7294 45.27 36.0513 47.6677 35.641C50.4893 35.1583 52.4705 32.4667 52.093 29.6292C51.7721 27.2179 49.827 25.4163 47.4165 25.2978L47.2027 25.2873L46.594 30.2168Z" fill="white"/>
<path d="M19.8144 45.6819C19.3768 48.7525 19.9149 51.978 21.6794 54.3873C20.6473 57.903 22.663 61.8357 25.5489 64.0456C27.4678 65.5088 29.739 66.4731 32.0102 67.2406L32.0003 67.2455C33.8678 67.8795 35.9238 68.3869 37.9111 68.0183C39.8983 67.6496 41.2738 66.2993 42.3014 64.6203C42.9547 63.5562 43.4754 62.3988 44.2291 61.4006C45.0462 60.3087 46.1033 59.4767 47.2166 58.7207C49.1401 57.4118 51.0982 56.2942 52.6594 54.529C54.2963 52.6823 55.5077 50.4976 57.2181 48.7244C59.1096 46.7487 61.5912 46.1417 63.8033 44.6987C64.9975 43.9201 65.9495 42.864 66.3507 41.5769C67.7384 41.5926 69.1015 41.3373 70.2443 40.4432C71.9743 39.1032 71.9518 37.1263 71.555 35.1979C74.1883 35.0183 76.4205 32.9008 76.4595 30.0743C76.4885 28.4098 75.6975 27.0808 74.6742 25.8398C74.006 25.028 73.2813 24.2631 72.7746 23.3324C72.2581 22.382 71.9761 21.3369 71.6284 20.3192C70.4286 16.8289 67.5604 14.9121 64.1952 13.7336C62.1627 13.0221 59.9445 12.6963 57.8683 13.1277C57.4509 14.6427 56.8905 16.2261 56.1623 17.8638C47.3917 37.5858 31.3506 45.2896 24.9328 45.9951C23.0755 45.7472 21.3698 45.6576 19.8144 45.6819Z" fill="white"/>
<path d="M19.8144 45.6819C19.3768 48.7525 19.9149 51.978 21.6794 54.3873C20.6473 57.903 22.663 61.8357 25.5489 64.0456C27.4678 65.5088 29.739 66.4731 32.0102 67.2406L32.0003 67.2455C33.8678 67.8795 35.9238 68.3869 37.9111 68.0183C39.8983 67.6496 41.2738 66.2993 42.3014 64.6203C42.9547 63.5562 43.4754 62.3988 44.2291 61.4006C45.0462 60.3087 46.1033 59.4767 47.2166 58.7207C49.1401 57.4118 51.0982 56.2942 52.6594 54.529C54.2963 52.6823 55.5077 50.4976 57.2181 48.7244C59.1096 46.7487 61.5912 46.1417 63.8033 44.6987C64.9975 43.9201 65.9495 42.864 66.3507 41.5769C67.7384 41.5926 69.1015 41.3373 70.2443 40.4432C71.9743 39.1032 71.9518 37.1263 71.555 35.1979C74.1883 35.0183 76.4205 32.9008 76.4595 30.0743C76.4885 28.4098 75.6975 27.0808 74.6742 25.8398C74.006 25.028 73.2813 24.2631 72.7746 23.3324C72.2581 22.382 71.9761 21.3369 71.6284 20.3192C70.4286 16.8289 67.5604 14.9121 64.1952 13.7336C62.1627 13.0221 59.9445 12.6963 57.8683 13.1277C57.4509 14.6427 56.8905 16.2261 56.1623 17.8638C47.3917 37.5858 31.3506 45.2896 24.9328 45.9951C23.0755 45.7472 21.3698 45.6576 19.8144 45.6819Z" fill="url(#paint16_radial_3842_2715)"/>
<path d="M201.199 95.081C196.902 93.974 192.425 96.6366 191.182 101.039L206.732 105.056C207.967 100.65 205.496 96.188 201.202 95.0723L201.199 95.081Z" fill="white"/>
<path d="M218.537 100.444C214.595 99.4233 210.475 101.873 209.335 105.924L223.624 109.615C224.762 105.573 222.488 101.467 218.537 100.444Z" fill="white"/>
<path d="M210.543 94.5475C204.705 93.0361 198.611 96.6688 196.926 102.655L218.068 108.118C219.753 102.132 216.381 96.059 210.543 94.5475Z" fill="white"/>
<path d="M200.799 96.6036C201.222 96.718 201.623 96.8637 202.011 97.0441C204.425 95.6974 207.3 95.2304 210.12 95.9748C213.254 96.7908 215.668 98.9202 216.999 101.631C217.356 101.669 217.713 101.728 218.069 101.816C221.547 102.725 223.734 106.009 223.458 109.539L223.6 109.574C224.726 105.533 222.432 101.416 218.468 100.378C218.112 100.29 217.754 100.231 217.398 100.193C216.067 97.4821 213.653 95.3527 210.519 94.5366C207.695 93.8009 204.82 94.2678 202.409 95.6059C202.019 95.4342 201.621 95.2798 201.197 95.1654C196.886 94.0426 192.407 96.6917 191.177 101.093L191.311 101.125C193.008 97.5861 196.969 95.5975 200.799 96.6036Z" fill="#CFEBFA"/>
<path d="M138.092 84.9234C150.805 85.3398 160.706 96.074 160.201 108.892L114.187 107.385C114.691 94.5669 125.412 84.5081 138.124 84.9245L138.092 84.9234Z" fill="white"/>
<path d="M86.4351 84.9369C98.123 85.3198 107.193 95.1864 106.73 106.939L64.4299 105.554C64.8939 93.7686 74.7472 84.5541 86.4031 84.9359L86.4351 84.9369Z" fill="white"/>
<path d="M113.19 75.6819C130.482 76.2482 143.919 90.8163 143.233 108.252L80.663 106.202C81.3495 88.767 95.8984 75.1155 113.19 75.6819Z" fill="white"/>
<path d="M137.891 89.0774C136.641 89.0346 135.418 89.1219 134.192 89.2736C128.783 83.7286 121.34 80.1804 113.005 79.8949C103.771 79.5786 95.3142 83.3572 89.335 89.5454C88.3151 89.349 87.2928 89.2172 86.2669 89.182C76.0074 88.8307 67.1704 95.8895 64.88 105.562L64.4632 105.548C64.9064 93.7779 74.7546 84.5903 86.4247 84.99C87.4827 85.0262 88.505 85.1582 89.4928 85.3534C95.4733 79.133 103.897 75.3855 113.162 75.7028C121.498 75.9883 128.941 79.5367 134.35 85.0817C135.543 84.9288 136.799 84.8427 138.049 84.8855C150.777 85.3214 160.71 96.0583 160.228 108.86L159.843 108.847C158.294 97.9774 149.209 89.4651 137.923 89.0785L137.891 89.0774Z" fill="#CFEBFA"/>
<path d="M63.03 74.8611C77.7851 75.685 88.9532 88.4767 87.9674 103.424L34.559 100.442C35.5448 85.4948 48.3121 74.0394 63.0672 74.8632L63.03 74.8611Z" fill="white"/>
<path d="M2.95083 73.3957C16.5167 74.1531 26.7459 85.9101 25.842 99.6152L-23.2554 96.8739C-22.349 83.1312 -10.6151 72.6382 2.91362 73.3936L2.95083 73.3957Z" fill="white"/>
<path d="M34.3422 63.4169C54.4122 64.5375 69.5688 81.8979 68.2279 102.23L-4.39568 98.1747C-3.05475 77.8431 14.2722 62.2964 34.3422 63.4169Z" fill="white"/>
<path d="M62.6776 79.6984C61.2253 79.6141 59.8008 79.6822 58.3714 79.8255C52.2503 73.2087 43.7051 68.8651 34.0233 68.3027C23.2988 67.6797 13.354 71.8545 6.21668 78.9082C5.03698 78.6511 3.85254 78.4692 2.66093 78.3999C-9.25519 77.7078 -19.7409 85.6984 -22.6946 96.9178L-23.1787 96.8897C-22.3092 83.173 -10.5839 72.7271 2.97064 73.5145C4.19949 73.5859 5.38392 73.7679 6.52638 74.0228C13.666 66.9316 23.5713 62.7921 34.333 63.4172C44.0149 63.9796 52.56 68.3233 58.6811 74.9401C60.0732 74.7947 61.535 74.7287 62.9873 74.8131C77.7707 75.6718 88.9942 88.4691 88.0484 103.388L87.6016 103.362C86.1282 90.6411 75.8226 80.462 62.7149 79.7006L62.6776 79.6984Z" fill="#CFEBFA"/>
<defs>
<radialGradient id="paint0_radial_3842_2715" cx="0" cy="0" r="1" gradientTransform="matrix(-5.69731 19.6006 -20.9712 -6.12282 214.009 89.566)" gradientUnits="userSpaceOnUse">
<stop stop-color="#FFB6B7"/>
<stop offset="0.5" stop-color="#E23E3F"/>
<stop offset="1" stop-color="#F0A3A4" stop-opacity="0"/>
</radialGradient>
<radialGradient id="paint1_radial_3842_2715" cx="0" cy="0" r="1" gradientTransform="matrix(-5.25862 2.25091 -2.04174 -4.79796 216.059 88.4061)" gradientUnits="userSpaceOnUse">
<stop stop-color="white"/>
<stop offset="1" stop-color="white" stop-opacity="0"/>
</radialGradient>
<linearGradient id="paint2_linear_3842_2715" x1="218.165" y1="89.8075" x2="221.918" y2="92.6504" gradientUnits="userSpaceOnUse">
<stop offset="0.1" stop-color="#C9C9C9"/>
<stop offset="1" stop-color="#767484"/>
</linearGradient>
<linearGradient id="paint3_linear_3842_2715" x1="219.67" y1="89.0011" x2="227.076" y2="89.3626" gradientUnits="userSpaceOnUse">
<stop offset="0.1" stop-color="#C9C9C9"/>
<stop offset="1" stop-color="#767484"/>
</linearGradient>
<linearGradient id="paint4_linear_3842_2715" x1="220.998" y1="89.8886" x2="222.71" y2="92.0978" gradientUnits="userSpaceOnUse">
<stop offset="0.1" stop-color="#C9C9C9"/>
<stop offset="1" stop-color="#767484"/>
</linearGradient>
<radialGradient id="paint5_radial_3842_2715" cx="0" cy="0" r="1" gradientTransform="matrix(38.7536 33.0367 38.4069 -34.5584 14.1509 34.0125)" gradientUnits="userSpaceOnUse">
<stop stop-color="#FFB6B7"/>
<stop offset="0.63203" stop-color="#E23E3F"/>
<stop offset="1" stop-color="#F0A3A4" stop-opacity="0"/>
</radialGradient>
<radialGradient id="paint6_radial_3842_2715" cx="0" cy="0" r="1" gradientTransform="matrix(63.2056 59.9521 72.3857 -38.2955 63.0257 52.6719)" gradientUnits="userSpaceOnUse">
<stop stop-color="#FFB6D3"/>
<stop offset="0.5" stop-color="#E23E3F"/>
<stop offset="1" stop-color="#F0A3CB" stop-opacity="0"/>
</radialGradient>
<radialGradient id="paint7_radial_3842_2715" cx="0" cy="0" r="1" gradientUnits="userSpaceOnUse" gradientTransform="translate(91.8867 171.442) rotate(-99.222) scale(86.7051 110.891)">
<stop stop-color="white"/>
<stop offset="1" stop-color="white" stop-opacity="0.3"/>
</radialGradient>
<radialGradient id="paint8_radial_3842_2715" cx="0" cy="0" r="1" gradientTransform="matrix(-0.932186 -38.2221 -31.9134 16.715 74.7187 105.949)" gradientUnits="userSpaceOnUse">
<stop stop-color="white"/>
<stop offset="1" stop-color="white" stop-opacity="0.7"/>
</radialGradient>
<radialGradient id="paint9_radial_3842_2715" cx="0" cy="0" r="1" gradientTransform="matrix(54.3082 66.2799 63.2518 -76.4249 33.4717 21.4561)" gradientUnits="userSpaceOnUse">
<stop stop-color="white"/>
<stop offset="0.5" stop-color="#F8A9AB" stop-opacity="0.6"/>
<stop offset="1" stop-color="white" stop-opacity="0"/>
</radialGradient>
<linearGradient id="paint10_linear_3842_2715" x1="70.1845" y1="68.3032" x2="55.9362" y2="47.3574" gradientUnits="userSpaceOnUse">
<stop stop-color="#BB1F22"/>
<stop offset="1" stop-color="#960B0D" stop-opacity="0"/>
</linearGradient>
<linearGradient id="paint11_linear_3842_2715" x1="59.3626" y1="60.3153" x2="38.1076" y2="31.7886" gradientUnits="userSpaceOnUse">
<stop stop-color="#BB1F22"/>
<stop offset="1" stop-color="#960B0D" stop-opacity="0"/>
</linearGradient>
<radialGradient id="paint12_radial_3842_2715" cx="0" cy="0" r="1" gradientTransform="matrix(-5.96748 -33.4454 -23.944 18.4913 109.594 72.6524)" gradientUnits="userSpaceOnUse">
<stop stop-color="white"/>
<stop offset="1" stop-color="white" stop-opacity="0.3"/>
</radialGradient>
<radialGradient id="paint13_radial_3842_2715" cx="0" cy="0" r="1" gradientTransform="matrix(-5.96748 -33.4454 -23.944 18.4913 109.594 72.6524)" gradientUnits="userSpaceOnUse">
<stop stop-color="white"/>
<stop offset="1" stop-color="white" stop-opacity="0.3"/>
</radialGradient>
<radialGradient id="paint14_radial_3842_2715" cx="0" cy="0" r="1" gradientUnits="userSpaceOnUse" gradientTransform="translate(44.6009 50.996) rotate(-111.103) scale(23.4143)">
<stop offset="0.183421" stop-color="#FFAA7D"/>
<stop offset="1" stop-color="#FFAA7D" stop-opacity="0.3"/>
</radialGradient>
<radialGradient id="paint15_radial_3842_2715" cx="0" cy="0" r="1" gradientUnits="userSpaceOnUse" gradientTransform="translate(40.1337 46.2383) rotate(91.273) scale(29.0849)">
<stop offset="0.183421" stop-color="#FFAA7D"/>
<stop offset="1" stop-color="#FFAA7D" stop-opacity="0.3"/>
</radialGradient>
<radialGradient id="paint16_radial_3842_2715" cx="0" cy="0" r="1" gradientTransform="matrix(53.9451 66.1604 63.0713 -76.4857 33.4997 21.2781)" gradientUnits="userSpaceOnUse">
<stop stop-color="white"/>
<stop offset="0.5" stop-color="#F8A9AB" stop-opacity="0.6"/>
<stop offset="1" stop-color="white" stop-opacity="0"/>
</radialGradient>
</defs>
</svg>
