<svg xmlns="http://www.w3.org/2000/svg" width="720" height="736" fill="none"><g filter="url(#a)" opacity=".4"><path fill="#fff" d="M55.94 279C36.1 267.69 36 249.33 55.7 238L322.73 84.5c19.7-11.33 51.74-11.33 71.57 0L663.06 238c19.83 11.32 19.93 29.68.24 41L396.27 432.5c-19.7 11.33-51.74 11.33-71.57 0z"/></g><g filter="url(#b)"><rect width="277.35" height="219.3" x="221" y="148" fill="url(#c)" rx="49.84"/><rect width="277.35" height="219.3" x="221" y="148" fill="url(#d)" rx="49.84"/><rect width="277.35" height="219.3" x="221" y="148" fill="url(#e)" rx="49.84"/></g><g filter="url(#f)"><rect width="277.35" height="219.3" x="221" y="148" fill="url(#g)" rx="49.84"/><rect width="277.35" height="219.3" x="221" y="148" fill="url(#h)" rx="49.84"/><rect width="277.35" height="219.3" x="221" y="148" fill="url(#i)" rx="49.84"/></g><rect width="277.35" height="219.3" x="221" y="148" fill="url(#j)" rx="49.84"/><rect width="270.42" height="212.36" x="224.47" y="151.47" stroke="#fff" stroke-opacity=".8" stroke-width="6.93" rx="46.37"/><path fill="#fff" d="M307.13 284.65V234.4h8.41v50.24zm38.71 1.04q-7.53 0-12.9-3.27a22 22 0 0 1-8.27-9.22q-2.86-5.9-2.86-13.67 0-7.78 2.86-13.68a21.7 21.7 0 0 1 8.26-9.17q5.38-3.32 12.91-3.32 8.7 0 14.48 4.36a22.8 22.8 0 0 1 8.13 11.7l-8.48 2.33a14.8 14.8 0 0 0-4.99-7.68q-3.53-2.79-9.14-2.79-5.05 0-8.44 2.27a14 14 0 0 0-5.06 6.38 26 26 0 0 0-1.7 9.6q0 5.5 1.67 9.63a14 14 0 0 0 5.1 6.35q3.37 2.25 8.43 2.26 5.63 0 9.14-2.79a15 15 0 0 0 5-7.67l8.47 2.34a23 23 0 0 1-8.13 11.72q-5.8 4.32-14.48 4.32m49.58 0q-5.51 0-9.94-1.91a19 19 0 0 1-7.26-5.48 18 18 0 0 1-3.59-8.51l8.72-1.33a11.6 11.6 0 0 0 4.57 6.9q3.49 2.45 8.03 2.45 2.68 0 5.06-.84a9 9 0 0 0 3.83-2.44q1.5-1.6 1.5-3.94 0-1.05-.35-1.92a5 5 0 0 0-1.04-1.6 7 7 0 0 0-1.75-1.26q-1.04-.6-2.44-1.01l-12.98-3.84a37 37 0 0 1-3.63-1.3 16 16 0 0 1-3.66-2.26 12 12 0 0 1-2.82-3.7 13 13 0 0 1-1.09-5.58q0-4.84 2.45-8.13a15 15 0 0 1 6.62-4.95q4.2-1.65 9.29-1.6 5.16.02 9.2 1.77 4.05 1.7 6.77 4.99a19 19 0 0 1 3.84 7.92l-9.04 1.57a10.1 10.1 0 0 0-6.04-7.36 13 13 0 0 0-9.52-.28 8.4 8.4 0 0 0-3.45 2.23 5 5 0 0 0-1.29 3.42q0 1.85 1.12 3.04a8 8 0 0 0 2.75 1.85q1.68.66 3.39 1.11l9 2.51q1.85.5 4.15 1.33t4.43 2.34a12 12 0 0 1 3.49 3.94q1.4 2.44 1.4 6.21a14 14 0 0 1-6 11.76 20 20 0 0 1-6.32 2.93q-3.52.97-7.4.97"/><defs><linearGradient id="c" x1="328.18" x2="520.55" y1="187.33" y2="217.51" gradientUnits="userSpaceOnUse"><stop stop-color="#00A3FF"/><stop offset="1" stop-color="#2238FF"/></linearGradient><linearGradient id="e" x1="164.04" x2="539.67" y1="190.36" y2="11.91" gradientUnits="userSpaceOnUse"><stop stop-color="#08D1FF"/><stop offset="1" stop-color="#88F493"/></linearGradient><linearGradient id="g" x1="328.18" x2="520.55" y1="187.33" y2="217.51" gradientUnits="userSpaceOnUse"><stop stop-color="#00A3FF"/><stop offset="1" stop-color="#2238FF"/></linearGradient><linearGradient id="i" x1="164.04" x2="539.67" y1="190.36" y2="11.91" gradientUnits="userSpaceOnUse"><stop stop-color="#08D1FF"/><stop offset="1" stop-color="#88F493"/></linearGradient><linearGradient id="j" x1="164.04" x2="539.67" y1="190.36" y2="11.91" gradientUnits="userSpaceOnUse"><stop stop-color="#08D1FF"/><stop offset="1" stop-color="#88F493"/></linearGradient><filter id="a" width="877" height="605" x="-79" y="-44" color-interpolation-filters="sRGB" filterUnits="userSpaceOnUse"><feFlood flood-opacity="0" result="BackgroundImageFix"/><feBlend in="SourceGraphic" in2="BackgroundImageFix" result="shape"/><feGaussianBlur result="effect1_foregroundBlur_12756_30449" stdDeviation="60"/></filter><filter id="b" width="597.35" height="539.3" x="61" y="-12" color-interpolation-filters="sRGB" filterUnits="userSpaceOnUse"><feFlood flood-opacity="0" result="BackgroundImageFix"/><feBlend in="SourceGraphic" in2="BackgroundImageFix" result="shape"/><feGaussianBlur result="effect1_foregroundBlur_12756_30449" stdDeviation="80"/></filter><filter id="f" width="437.35" height="379.3" x="141" y="68" color-interpolation-filters="sRGB" filterUnits="userSpaceOnUse"><feFlood flood-opacity="0" result="BackgroundImageFix"/><feBlend in="SourceGraphic" in2="BackgroundImageFix" result="shape"/><feGaussianBlur result="effect1_foregroundBlur_12756_30449" stdDeviation="40"/></filter><radialGradient id="d" cx="0" cy="0" r="1" gradientTransform="matrix(0 -503.638 366.143 0 364.61 419.88)" gradientUnits="userSpaceOnUse"><stop stop-color="#EF81F9"/><stop offset="1" stop-color="#F981B7" stop-opacity="0"/></radialGradient><radialGradient id="h" cx="0" cy="0" r="1" gradientTransform="matrix(0 -503.638 366.143 0 364.61 419.88)" gradientUnits="userSpaceOnUse"><stop stop-color="#EF81F9"/><stop offset="1" stop-color="#F981B7" stop-opacity="0"/></radialGradient></defs></svg>