<svg xmlns="http://www.w3.org/2000/svg" width="720" height="736" fill="none"><path fill="url(#a)" d="M-37.01 644.3c-25.86-14.8-26-38.8-.3-53.59l348.34-200.6c25.7-14.81 67.5-14.81 93.36 0l350.62 200.6c25.86 14.8 26 38.79.3 53.58l-348.34 200.6c-25.7 14.81-67.5 14.81-93.36 0L-37.02 644.3" opacity=".2"/><path fill="url(#b)" d="M-37.01 554.3c-25.86-14.8-26-38.8-.3-53.59l348.34-200.6c25.7-14.81 67.5-14.81 93.36 0l350.62 200.6c25.86 14.8 26 38.79.3 53.58l-348.34 200.6c-25.7 14.81-67.5 14.81-93.36 0L-37.02 554.3" opacity=".3"/><path fill="url(#c)" d="M-37.01 464.3c-25.86-14.8-26-38.8-.3-53.59l348.34-200.6c25.7-14.81 67.5-14.81 93.36 0l350.62 200.6c25.86 14.8 26 38.79.3 53.58l-348.34 200.6c-25.7 14.81-67.5 14.81-93.36 0L-37.02 464.3" opacity=".4"/><path fill="url(#d)" d="M-37.01 374.3c-25.86-14.8-26-38.8-.3-53.59l348.34-200.6c25.7-14.81 67.5-14.81 93.36 0l350.62 200.6c25.86 14.8 26 38.79.3 53.58l-348.34 200.6c-25.7 14.81-67.5 14.81-93.36 0L-37.02 374.3" opacity=".5"/><path fill="url(#e)" d="M-37.01 284.3c-25.86-14.8-26-38.8-.3-53.59l348.34-200.6c25.7-14.81 67.5-14.81 93.36 0l350.62 200.6c25.86 14.8 26 38.79.3 53.58l-348.34 200.6c-25.7 14.81-67.5 14.81-93.36 0L-37.02 284.3"/><path fill="#fff" d="m373.46 451.73-72.73-23.2 11.25-6.23 49.21 16.38-27.87-28.12 11.17-6.28 49.21 16.38-27.95-28.16 11.25-6.24 39.51 41.6-10.55 5.85-48.86-15.78 26.9 27.95zm63.92-35.43-56.12-32.4 23.93-13.27q.82-.46 2.28-1.17 1.46-.77 2.75-1.26a36.4 36.4 0 0 1 22.81-1.67q5.36 1.36 10.07 4.08 7.05 4.07 8.54 8.94 1.45 4.84-4.94 9.7l-4.41 2.8-13.22 7.33 19.01 10.98zm31.96-17.72-34.02-6.99 8.92-7.32 37.22 7.6zm-50.17-4.91 12.75-7.07q.83-.46 1.73-1.05t1.5-1.18q1.58-1.54 1.4-2.98a4.7 4.7 0 0 0-1.47-2.67 13 13 0 0 0-2.76-2.13 20 20 0 0 0-3.67-1.59q-2.15-.75-4.7-.88-2.58-.15-5.32.7-1.06.33-2.13.83-1.05.51-1.88.96l-12.76 7.07zm64.94-3.28-38.8-42 15.98-8.85 73.44 22.8-11.02 6.1-64.92-20.02 2.04-1.13 34.3 37zm-1.3-12.5-9.9-5.72 29.92-16.58 9.9 5.71zm56.91-18.32-56.12-32.4 23.93-13.27q.83-.46 2.28-1.17 1.47-.76 2.76-1.26a36.5 36.5 0 0 1 22.8-1.67q5.36 1.35 10.08 4.08 4.7 2.72 7 5.82 2.28 3.06 1.55 6.33-.7 3.25-4.96 6.5-.95.69-2.28 1.53-1.34.83-2.13 1.26l-13.22 7.33 19.02 10.98zm-18.21-22.63 12.75-7.07q.83-.45 1.74-1.05.9-.6 1.5-1.18 1.57-1.54 1.39-2.98a4.7 4.7 0 0 0-1.47-2.67 13 13 0 0 0-2.76-2.13 20 20 0 0 0-3.66-1.59q-2.15-.75-4.7-.88-2.58-.15-5.33.7-1.06.33-2.12.83t-1.9.96l-12.74 7.07zm67.35-4.6-56.12-32.4 23.93-13.27q.82-.46 2.28-1.18 1.46-.76 2.75-1.26a36.4 36.4 0 0 1 22.81-1.66q5.36 1.35 10.07 4.07t7 5.83q2.28 3.04 1.55 6.33-.69 3.25-4.95 6.49-.95.7-2.29 1.53t-2.12 1.27l-13.23 7.33 19.02 10.98zm-18.22-22.64 12.76-7.06q.83-.47 1.73-1.05.9-.6 1.5-1.19 1.58-1.53 1.4-2.98a4.7 4.7 0 0 0-1.47-2.67 13 13 0 0 0-2.76-2.13 20 20 0 0 0-3.67-1.58q-2.15-.75-4.7-.88-2.58-.15-5.33.7-1.05.33-2.12.83-1.06.5-1.89.95l-12.75 7.07zm67.35-4.6-56.12-32.4 37-20.51 9.9 5.71-26.3 14.58 12 6.93 21.58-11.96 9.9 5.72-21.57 11.95 14.42 8.33 26.29-14.58 9.9 5.72zm44.37-24.6-56.12-32.4 18.34-10.16 2.8-1.5a58 58 0 0 1 4.28-2.08 46 46 0 0 1 16.33-3.7 60 60 0 0 1 17.14 1.7 60 60 0 0 1 15.61 6.2q7.13 4.12 10.66 8.96 3.52 4.84 2.65 9.73-.86 4.88-6.9 9.15-1.69 1.2-3.73 2.39l-2.72 1.55zm.88-11.78 7.48-4.14 2.84-1.62q1.72-1.05 2.91-2.01 2.97-2.48 2.6-5.32-.34-2.86-3.01-5.66a29 29 0 0 0-6.65-5.13 44 44 0 0 0-9.17-3.96 38 38 0 0 0-9.9-1.74q-4.97-.2-9.25 1.38-1.77.63-3.62 1.6t-2.91 1.58l-7.48 4.14zM44.45 288.24l10-5.78 55.5 1.84q6.48.23 10.52-.57 4.06-.8 6.58-2.26 3.42-1.98 4.62-4.37 1.23-2.43.19-4.84-1-2.4-4.38-4.35a22 22 0 0 0-8-2.7q-4.34-.62-8.58.06a20 20 0 0 0-7.29 2.56l-11.81-6.82a42 42 0 0 1 15-5.14 51 51 0 0 1 16.39.33q8.24 1.51 15.34 5.6 6.57 3.8 8.86 8.53a10.4 10.4 0 0 1 .14 9.44q-2.14 4.7-8.86 8.58a37 37 0 0 1-9.57 3.98q-4.68 1.16-10.15 1.24-5.43.11-12.76-.17l-39.25-1.37 1.8-2.25 33.73 19.47-10.81 6.24zm79.77 47.8q-7.3-4.2-9.77-9.2a11 11 0 0 1 0-10.07q2.47-5.01 9.77-9.21l22.1-12.76a47 47 0 0 1 15.95-5.64q8.71-1.4 17.39.02 8.71 1.4 16 5.62 7.29 4.2 9.67 9.2a10.9 10.9 0 0 1 .05 10.05q-2.43 5.03-9.72 9.24l-22.1 12.75a47 47 0 0 1-16 5.61q-8.71 1.41-17.44 0a46 46 0 0 1-15.9-5.6m10.9-6.3a24 24 0 0 0 8.3 2.81q4.71.69 9.33 0a24 24 0 0 0 8.28-2.8l23.77-13.73q3.67-2.1 4.86-4.78 1.25-2.7 0-5.39-1.2-2.72-4.81-4.81a23 23 0 0 0-8.34-2.78 31 31 0 0 0-9.33 0q-4.62.7-8.29 2.8l-23.77 13.73q-3.61 2.1-4.86 4.78a6.4 6.4 0 0 0 0 5.4q1.25 2.68 4.86 4.78m24.7 25.1 10-5.77 55.5 1.84q6.47.22 10.52-.58t6.57-2.25q3.44-1.98 4.63-4.37 1.24-2.43.19-4.84-1-2.4-4.39-4.35a22 22 0 0 0-8-2.7q-4.34-.63-8.57.06a20 20 0 0 0-7.29 2.56l-11.81-6.82a42 42 0 0 1 15-5.14 51 51 0 0 1 16.39.33q8.24 1.5 15.34 5.6 6.57 3.8 8.85 8.53a10.4 10.4 0 0 1 .15 9.43q-2.14 4.71-8.86 8.58a37 37 0 0 1-9.58 4q-4.66 1.14-10.14 1.23-5.43.11-12.77-.17l-39.25-1.37 1.81-2.26 33.73 19.47-10.81 6.25zm75.43 45.31q-5.24-3.02-7.62-6.87a12 12 0 0 1-1.81-7.98q.57-4.07 4.19-7.8l14 4.67q-2.1 1.98-2.33 4.15a6.6 6.6 0 0 0 1.1 4.2 11 11 0 0 0 3.9 3.53 22 22 0 0 0 7.72 2.58q4.38.66 8.71.03 4.4-.66 7.72-2.59 3.33-1.92 4.38-4.45a5.7 5.7 0 0 0-.05-5.03q-1.13-2.54-4.43-4.43a24 24 0 0 0-8-2.97q-4-.67-7-.52l-6.67-7.48 38.4-19.75 37.24 21.5-10.76 6.22-31.1-17.96 8.33.14-26.77 13.7.48-2.7q5.1.14 9.8 1.49 4.72 1.35 8.01 3.24 6.44 3.72 8.43 8.28a10.1 10.1 0 0 1-.14 9.1q-2.2 4.56-8.62 8.28a40 40 0 0 1-15 4.81q-8.55 1.07-17.1-.3a43 43 0 0 1-15.01-5.09"/><path fill="url(#f)" d="m439.75 181.07 123.05 64.4 7.51-12.94 1.22-35.64-45.03-50.42z"/><path fill="url(#g)" d="m504.37 143.57 123.05 64.41 7.51-12.94 1.6-82.33-45.4-3.73z"/><path fill="#fff" d="m497.95 280.17-15.74 9.33-1.94-200.95 14.57-8.36zM522.95 170.43v-31.87l56.36 87.26-.97 9.52-14.64 6.5zM629.26 1.3l-53.81 155.24 7.1 15.8 61.82-177zM628.08 110.54l11.65-36.12 5.16-3.4-.74 126.22-14.6 8.85z"/><path fill="#fff" d="m658.57-17.9 14.05-8.12.59 207.64-14.05 8.12-17.8 10.27-14.05 8.13-.25-90.75-38.09 112.9-26.08 15.09-38.6-68.6.26 90.75-14.05 8.12-17.79 10.28-15.02 7.53V86.91l14.44-8.61 16.53-9.56 14.05-8.12 52.98 91.19L627.98-.23l14.05-8.12zm-75.8 181.88L639.92-2.19l-9.27 5.36-52.55 152.79zm-10.54 71.07 1.3-3.86-49.32-87.66.06 22 41.29 73.37zm-79.52 45.97-.56-197.79-9.76 5.65.56 197.78zm148.65-85.92-.34-119.08-9.7 28.77.27 95.95z"/><path fill="url(#h)" d="m658.57-17.9 14.05-8.12.59 207.64-14.05 8.12-17.8 10.27-14.05 8.13-.25-90.75-38.09 112.9-26.08 15.09-38.6-68.6.26 90.75-14.05 8.12-17.79 10.28-15.02 7.53V86.91l14.44-8.61 16.53-9.56 14.05-8.12 52.98 91.19L627.98-.23l14.05-8.12zm-75.8 181.88L639.92-2.19l-9.27 5.36-52.55 152.79zm-10.54 71.07 1.3-3.86-49.32-87.66.06 22 41.29 73.37zm-79.52 45.97-.56-197.79-9.76 5.65.56 197.78zm148.65-85.92-.34-119.08-9.7 28.77.27 95.95z"/><path fill="url(#i)" d="m658.57-17.9 14.05-8.12.59 207.64-14.05 8.12-17.8 10.27-14.05 8.13-.25-90.75-38.09 112.9-26.08 15.09-38.6-68.6.26 90.75-14.05 8.12-17.79 10.28-15.02 7.53V86.91l14.44-8.61 16.53-9.56 14.05-8.12 52.98 91.19L627.98-.23l14.05-8.12zm-75.8 181.88L639.92-2.19l-9.27 5.36-52.55 152.79zm-10.54 71.07 1.3-3.86-49.32-87.66.06 22 41.29 73.37zm-79.52 45.97-.56-197.79-9.76 5.65.56 197.78zm148.65-85.92-.34-119.08-9.7 28.77.27 95.95z"/><path fill="url(#j)" d="m418.27 258.71 59.44 34.75V86.9L416.9 51.22z"/><path fill="url(#k)" d="M567.6-35.31 529.45 74l46.32 77.94L628.08-.42z"/><path fill="url(#l)" d="m462.47 25.17-45.6 26.05 60.83 35.71 45.24-26.4z"/><path fill="url(#m)" d="M154.74 44.66c12.28 0 30.55 11.78 38.15 17.68-2.33 4.65-4.56 21.58 5.12 52.1s40 58.62 53.96 68.85l-55.43 31.84c-20-4.66-45.39-25.15-59.01-52.77-12.24-24.82-15.82-43.27-13.5-76.76s15.36-40.94 30.71-40.94"/><path fill="url(#n)" d="m241.94 238.97-2.43-33.88 36.75-16.83 47.39 34.1 25.47 56.25-35.88 14.17-35.2-14.17z"/><path fill="url(#o)" d="M167.3-47.76 91-4.03c10.55-3.88 28.85-13.01 72.11 8.37 32.38 16 57.84 42.34 66.53 53.5l65.13-38.14-.05-.06c-7.33-7.95-27.7-30.05-55.78-48.33-29.3-19.07-45.59-26.2-71.64-19.07"/><path fill="url(#p)" d="m298.17 124.54-109.08 60.69 53.6 24.4 89.82-44.61z"/><path fill="url(#q)" d="m416.2 285.34-67.31 38.93c5.43-5.74 20.5-17.3 12.13-57.3s-64.4-83.5-92.3-106.77c-22.34-18.6-20.24-40.38-16.36-46.28l58.23-29.56c1.4 4.04 7.16 16.29 19.07 33.03 14.9 20.94 82.82 60.48 95.84 107 10.42 37.23-1.86 56.14-9.3 60.95"/><path fill="#fff" d="m216.75 215.22 32.84 71.7-1.14 2.84-18.68-17.93-17.55-23.58-8.49-15.85-8.3-22.65-4.34-18.3 16.04 3.77zM306.06 276.03l-11.85 2.96 14.81 12.8 25.02-1.9 1.9-30.82-26.92-35.8-17.07-1.9 7.12 10.08 9.95 13.99 3.32 12.57v8.53zM110.06 160.55l34.03 57.16-1.39 2.48-16.7-13.35-12.81-12.62-13.26-20.07-9.17-14.8-7.81-16.99-9.36-33.32-4.63-20.62V58.64l2.36-18.44 3.36-16.98 16.9-24.97 12.53-7 26.88.73 17.25 6.81-2.6 5.24-44.32 40.83-7.78 54.05zM223.72 143.64l22.74 36.04-5.35-.32-13.38-14.6-10.19-11.47-6.8-10.07-4.64-9.01-3.27-7.4-4-17.53-1.11-12.21 1.1-12.14 5.48-13.97 6.07-5.11 13.09-4.6 10.4.66 11.35 3.4-26.04 28.53zM324.8 169.32l-15.17-4.41-3.06-11.2-6.56-12.68-9.4-14.03-3.27-6.9 10.18 3.28 19.35 18.67z"/><path fill="#73A7FF" d="M358.72 256.99q5.45 14.2 5.4 31.15-.04 18.03-6.64 27.69t-17.72 12.04q-11.12 2.38-25.13-1.36t-28.9-12.32q-3.89-2.26-7.63-4.69-3.74-1.87-7.54-4.06a165 165 0 0 1-39-31.32q-5.55-6.02-10.48-12.47-18.35-1.05-42.01-14.71a182 182 0 0 1-11.42-7.2 40 40 0 0 1-6.74-3.3 175 175 0 0 1-50.36-43.7 203 203 0 0 1-32.48-59.72A204 204 0 0 1 66.8 65.33q.1-34.81 11.6-54.5 11.52-19.66 32.72-22.06c39.83-4.48 97.37 41.18 119.03 68.75q1.55.09 3.16.31 16.19 2.18 35.72 13.47l.82.47q3.3 1.96 6.48 4.05 3.92 1.95 8 4.3a166 166 0 0 1 36.65 29.11 162 162 0 0 1 26.45 37.46 166 166 0 0 1 14.28 39.5c-18-6.2-34.5-11.6-53.92-19.02a77 77 0 0 0-7.93-22.95 90 90 0 0 0-13.83-19.36c-7.22-7.66-19.57-17.01-30.46-10.26q-4.8 2.99-4.84 10.9 0 7.31 3.9 14.16a68 68 0 0 0 9.86 13.09q5.94 6.25 12.16 11.68l33.79 30.1a417 417 0 0 1 16.76 15.82q9.19 9.12 17.62 20.77a113 113 0 0 1 13.88 25.84zm-78 14.15a51 51 0 0 0 9.99 3.1q8.52 1.66 14.03-1.55 5.49-3.21 5.52-12.53 0-3.42-.86-7.12a34 34 0 0 0-2.89-7.66 52 52 0 0 0-5.73-8.6 98 98 0 0 0-9.39-9.95l-50.55-46.3a284 284 0 0 1-13.17-12.91q-7.5-7.76-14.52-18.19a104 104 0 0 1-11.66-23.62q-4.63-13.2-4.58-29.2c.03-10.69 1.77-19.4 5.24-25.63a103 103 0 0 0-22.51-17.42q-18.54-10.7-30.94-8.37t-18.67 16q-6.29 13.67-6.34 36.99-.07 23.3 6.11 44.16c7.99 26.97 24.42 48.87 49.41 64.81q8.96 5.17 16.49 7.3a144 144 0 0 1-6.63-29.25l53.62 24.42a97.5 97.5 0 0 0 16.69 39.37q9.66 13.51 21.35 22.17m-167.78-81.6a168 168 0 0 0 29.56 29.25 180 180 0 0 1-13.78-15.58 203 203 0 0 1-32.49-59.7 204 204 0 0 1-11.26-67.68q.1-34.85 11.6-54.5Q108.1 1.67 129.32-.71a53 53 0 0 1 13.82.35c-11-4.24-20.91-5.9-29.63-4.92-13.3 1.5-23.73 8.53-30.96 20.9-7.3 12.5-11.04 30.12-11.1 52.4a205 205 0 0 0 10.77 65.04 193 193 0 0 0 30.74 56.52m97.59-119.4a22 22 0 0 0-4.2 5.43c-3.18 5.7-4.8 13.62-4.83 23.65-.02 10.04 1.35 18.7 4.1 26.5A94 94 0 0 0 216 146.9c4.3 6.4 8.8 12.04 13.36 16.76a280 280 0 0 0 12.74 12.49l4.75 4.35q-1.94-1.95-4.05-4.13-7.5-7.75-14.51-18.18a105 105 0 0 1-11.66-23.62q-4.63-13.2-4.58-29.2.06-22.54 9.98-31.77 9.28-8.62 24.34-7.23a68 68 0 0 0-11.4-2.6c-10.24-1.35-18.41.82-24.43 6.43m22.88 200.13q6.94 7.52 14.7 14.04l-1.4-1.5a172 172 0 0 1-28.48-41.66 148 148 0 0 1-13.64-44.32l-10.17-4.14a137 137 0 0 0 5.73 22.7 142 142 0 0 0 6.57 15.84 161 161 0 0 0 26.7 39.04m86.45 11.1q5.5-3.19 5.52-12.53 0-3.42-.85-7.12a35 35 0 0 0-2.89-7.67 52 52 0 0 0-5.73-8.6 96 96 0 0 0-9.39-9.94l-8.28-7.6a87 87 0 0 1 4.84 5.52 62 62 0 0 1 6.97 10.52 45 45 0 0 1 3.74 9.94 38 38 0 0 1 1.07 8.84c-.02 7.64-2.34 12.86-6.87 15.5q-4.26 2.46-10.06 2.4 4.01 1.51 7.92 2.27 8.54 1.66 14.03-1.55m-18.7-147.78a88 88 0 0 0-10.81-9.8 102 102 0 0 1 12.93 18.84 87 87 0 0 1 7.82 20.4l9.6 3.66a76 76 0 0 0-5.71-13.74 90 90 0 0 0-13.84-19.35"/><path fill="url(#r)" d="M358.72 256.99q5.45 14.2 5.4 31.15-.04 18.03-6.64 27.69t-17.72 12.04q-11.12 2.38-25.13-1.36t-28.9-12.32q-3.89-2.26-7.63-4.69-3.74-1.87-7.54-4.06a165 165 0 0 1-39-31.32q-5.55-6.02-10.48-12.47-18.35-1.05-42.01-14.71a182 182 0 0 1-11.42-7.2 40 40 0 0 1-6.74-3.3 175 175 0 0 1-50.36-43.7 203 203 0 0 1-32.48-59.72A204 204 0 0 1 66.8 65.33q.1-34.81 11.6-54.5 11.52-19.66 32.72-22.06c39.83-4.48 97.37 41.18 119.03 68.75q1.55.09 3.16.31 16.19 2.18 35.72 13.47l.82.47q3.3 1.96 6.48 4.05 3.92 1.95 8 4.3a166 166 0 0 1 36.65 29.11 162 162 0 0 1 26.45 37.46 166 166 0 0 1 14.28 39.5c-18-6.2-34.5-11.6-53.92-19.02a77 77 0 0 0-7.93-22.95 90 90 0 0 0-13.83-19.36c-7.22-7.66-19.57-17.01-30.46-10.26q-4.8 2.99-4.84 10.9 0 7.31 3.9 14.16a68 68 0 0 0 9.86 13.09q5.94 6.25 12.16 11.68l33.79 30.1a417 417 0 0 1 16.76 15.82q9.19 9.12 17.62 20.77a113 113 0 0 1 13.88 25.84zm-78 14.15a51 51 0 0 0 9.99 3.1q8.52 1.66 14.03-1.55 5.49-3.21 5.52-12.53 0-3.42-.86-7.12a34 34 0 0 0-2.89-7.66 52 52 0 0 0-5.73-8.6 98 98 0 0 0-9.39-9.95l-50.55-46.3a284 284 0 0 1-13.17-12.91q-7.5-7.76-14.52-18.19a104 104 0 0 1-11.66-23.62q-4.63-13.2-4.58-29.2c.03-10.69 1.77-19.4 5.24-25.63a103 103 0 0 0-22.51-17.42q-18.54-10.7-30.94-8.37t-18.67 16q-6.29 13.67-6.34 36.99-.07 23.3 6.11 44.16c7.99 26.97 24.42 48.87 49.41 64.81q8.96 5.17 16.49 7.3a144 144 0 0 1-6.63-29.25l53.62 24.42a97.5 97.5 0 0 0 16.69 39.37q9.66 13.51 21.35 22.17m-167.78-81.6a168 168 0 0 0 29.56 29.25 180 180 0 0 1-13.78-15.58 203 203 0 0 1-32.49-59.7 204 204 0 0 1-11.26-67.68q.1-34.85 11.6-54.5Q108.1 1.67 129.32-.71a53 53 0 0 1 13.82.35c-11-4.24-20.91-5.9-29.63-4.92-13.3 1.5-23.73 8.53-30.96 20.9-7.3 12.5-11.04 30.12-11.1 52.4a205 205 0 0 0 10.77 65.04 193 193 0 0 0 30.74 56.52m97.59-119.4a22 22 0 0 0-4.2 5.43c-3.18 5.7-4.8 13.62-4.83 23.65-.02 10.04 1.35 18.7 4.1 26.5A94 94 0 0 0 216 146.9c4.3 6.4 8.8 12.04 13.36 16.76a280 280 0 0 0 12.74 12.49l4.75 4.35q-1.94-1.95-4.05-4.13-7.5-7.75-14.51-18.18a105 105 0 0 1-11.66-23.62q-4.63-13.2-4.58-29.2.06-22.54 9.98-31.77 9.28-8.62 24.34-7.23a68 68 0 0 0-11.4-2.6c-10.24-1.35-18.41.82-24.43 6.43m22.88 200.13q6.94 7.52 14.7 14.04l-1.4-1.5a172 172 0 0 1-28.48-41.66 148 148 0 0 1-13.64-44.32l-10.17-4.14a137 137 0 0 0 5.73 22.7 142 142 0 0 0 6.57 15.84 161 161 0 0 0 26.7 39.04m86.45 11.1q5.5-3.19 5.52-12.53 0-3.42-.85-7.12a35 35 0 0 0-2.89-7.67 52 52 0 0 0-5.73-8.6 96 96 0 0 0-9.39-9.94l-8.28-7.6a87 87 0 0 1 4.84 5.52 62 62 0 0 1 6.97 10.52 45 45 0 0 1 3.74 9.94 38 38 0 0 1 1.07 8.84c-.02 7.64-2.34 12.86-6.87 15.5q-4.26 2.46-10.06 2.4 4.01 1.51 7.92 2.27 8.54 1.66 14.03-1.55m-18.7-147.78a88 88 0 0 0-10.81-9.8 102 102 0 0 1 12.93 18.84 87 87 0 0 1 7.82 20.4l9.6 3.66a76 76 0 0 0-5.71-13.74 90 90 0 0 0-13.84-19.35"/><path fill="url(#s)" d="M358.72 256.99q5.45 14.2 5.4 31.15-.04 18.03-6.64 27.69t-17.72 12.04q-11.12 2.38-25.13-1.36t-28.9-12.32q-3.89-2.26-7.63-4.69-3.74-1.87-7.54-4.06a165 165 0 0 1-39-31.32q-5.55-6.02-10.48-12.47-18.35-1.05-42.01-14.71a182 182 0 0 1-11.42-7.2 40 40 0 0 1-6.74-3.3 175 175 0 0 1-50.36-43.7 203 203 0 0 1-32.48-59.72A204 204 0 0 1 66.8 65.33q.1-34.81 11.6-54.5 11.52-19.66 32.72-22.06c39.83-4.48 97.37 41.18 119.03 68.75q1.55.09 3.16.31 16.19 2.18 35.72 13.47l.82.47q3.3 1.96 6.48 4.05 3.92 1.95 8 4.3a166 166 0 0 1 36.65 29.11 162 162 0 0 1 26.45 37.46 166 166 0 0 1 14.28 39.5c-18-6.2-34.5-11.6-53.92-19.02a77 77 0 0 0-7.93-22.95 90 90 0 0 0-13.83-19.36c-7.22-7.66-19.57-17.01-30.46-10.26q-4.8 2.99-4.84 10.9 0 7.31 3.9 14.16a68 68 0 0 0 9.86 13.09q5.94 6.25 12.16 11.68l33.79 30.1a417 417 0 0 1 16.76 15.82q9.19 9.12 17.62 20.77a113 113 0 0 1 13.88 25.84zm-78 14.15a51 51 0 0 0 9.99 3.1q8.52 1.66 14.03-1.55 5.49-3.21 5.52-12.53 0-3.42-.86-7.12a34 34 0 0 0-2.89-7.66 52 52 0 0 0-5.73-8.6 98 98 0 0 0-9.39-9.95l-50.55-46.3a284 284 0 0 1-13.17-12.91q-7.5-7.76-14.52-18.19a104 104 0 0 1-11.66-23.62q-4.63-13.2-4.58-29.2c.03-10.69 1.77-19.4 5.24-25.63a103 103 0 0 0-22.51-17.42q-18.54-10.7-30.94-8.37t-18.67 16q-6.29 13.67-6.34 36.99-.07 23.3 6.11 44.16c7.99 26.97 24.42 48.87 49.41 64.81q8.96 5.17 16.49 7.3a144 144 0 0 1-6.63-29.25l53.62 24.42a97.5 97.5 0 0 0 16.69 39.37q9.66 13.51 21.35 22.17m-167.78-81.6a168 168 0 0 0 29.56 29.25 180 180 0 0 1-13.78-15.58 203 203 0 0 1-32.49-59.7 204 204 0 0 1-11.26-67.68q.1-34.85 11.6-54.5Q108.1 1.67 129.32-.71a53 53 0 0 1 13.82.35c-11-4.24-20.91-5.9-29.63-4.92-13.3 1.5-23.73 8.53-30.96 20.9-7.3 12.5-11.04 30.12-11.1 52.4a205 205 0 0 0 10.77 65.04 193 193 0 0 0 30.74 56.52m97.59-119.4a22 22 0 0 0-4.2 5.43c-3.18 5.7-4.8 13.62-4.83 23.65-.02 10.04 1.35 18.7 4.1 26.5A94 94 0 0 0 216 146.9c4.3 6.4 8.8 12.04 13.36 16.76a280 280 0 0 0 12.74 12.49l4.75 4.35q-1.94-1.95-4.05-4.13-7.5-7.75-14.51-18.18a105 105 0 0 1-11.66-23.62q-4.63-13.2-4.58-29.2.06-22.54 9.98-31.77 9.28-8.62 24.34-7.23a68 68 0 0 0-11.4-2.6c-10.24-1.35-18.41.82-24.43 6.43m22.88 200.13q6.94 7.52 14.7 14.04l-1.4-1.5a172 172 0 0 1-28.48-41.66 148 148 0 0 1-13.64-44.32l-10.17-4.14a137 137 0 0 0 5.73 22.7 142 142 0 0 0 6.57 15.84 161 161 0 0 0 26.7 39.04m86.45 11.1q5.5-3.19 5.52-12.53 0-3.42-.85-7.12a35 35 0 0 0-2.89-7.67 52 52 0 0 0-5.73-8.6 96 96 0 0 0-9.39-9.94l-8.28-7.6a87 87 0 0 1 4.84 5.52 62 62 0 0 1 6.97 10.52 45 45 0 0 1 3.74 9.94 38 38 0 0 1 1.07 8.84c-.02 7.64-2.34 12.86-6.87 15.5q-4.26 2.46-10.06 2.4 4.01 1.51 7.92 2.27 8.54 1.66 14.03-1.55m-18.7-147.78a88 88 0 0 0-10.81-9.8 102 102 0 0 1 12.93 18.84 87 87 0 0 1 7.82 20.4l9.6 3.66a76 76 0 0 0-5.71-13.74 90 90 0 0 0-13.84-19.35"/><path fill="url(#t)" d="m294.3 19.23-73.96 43.26c10.54-3.87 44.2 5.37 71.64 22.96 30.41 19.49 68.85 75.67 68.85 99.4l60.02-33.66c0-9.3-1.4-61.71-60.02-103.12-27.42-19.37-53.96-30.7-66.52-28.84"/><defs><linearGradient id="f" x1="513.47" x2="444.52" y1="146.47" y2="263.45" gradientUnits="userSpaceOnUse"><stop stop-color="#5F82FF"/><stop offset=".78" stop-color="#A8DBFF"/></linearGradient><linearGradient id="g" x1="578.3" x2="520.79" y1="134.98" y2="232.78" gradientUnits="userSpaceOnUse"><stop stop-color="#5F82FF"/><stop offset=".78" stop-color="#A8DBFF"/></linearGradient><linearGradient id="j" x1="390.26" x2="541.98" y1="12.15" y2="132.28" gradientUnits="userSpaceOnUse"><stop stop-color="#00A3FF"/><stop offset="1" stop-color="#D1E1FF"/></linearGradient><linearGradient id="k" x1="537.62" x2="628.19" y1="88.24" y2="103.48" gradientUnits="userSpaceOnUse"><stop stop-color="#357CE6"/><stop offset="1" stop-color="#A8CFFB"/></linearGradient><linearGradient id="l" x1="576.96" x2="355.69" y1="-37.4" y2="-13.6" gradientUnits="userSpaceOnUse"><stop stop-color="#5F82FF"/><stop offset=".78" stop-color="#A8DBFF"/></linearGradient><linearGradient id="m" x1="59.05" x2="331.43" y1="-110.3" y2="19.98" gradientUnits="userSpaceOnUse"><stop stop-color="#2238FF"/><stop offset="1" stop-color="#C0DDFF"/></linearGradient><linearGradient id="n" x1="318.55" x2="293.04" y1="319.16" y2="206.96" gradientUnits="userSpaceOnUse"><stop stop-color="#00A3FF"/><stop offset=".48" stop-color="#099FFD"/><stop offset="1" stop-color="#D0E3FF"/></linearGradient><linearGradient id="o" x1="53.36" x2="272.17" y1="-50.07" y2="68.21" gradientUnits="userSpaceOnUse"><stop stop-color="#2238FF"/><stop offset="1" stop-color="#B0D4FF"/></linearGradient><linearGradient id="p" x1="117.21" x2="290.61" y1="47.55" y2="233.83" gradientUnits="userSpaceOnUse"><stop stop-color="#2238FF"/><stop offset="1" stop-color="#C0DDFF"/></linearGradient><linearGradient id="q" x1="379.44" x2="301.28" y1="384.44" y2="138.79" gradientUnits="userSpaceOnUse"><stop stop-color="#00A3FF"/><stop offset=".48" stop-color="#099FFD"/><stop offset="1" stop-color="#D0E3FF"/></linearGradient><linearGradient id="t" x1="240.08" x2="359.92" y1="87.1" y2="184.46" gradientUnits="userSpaceOnUse"><stop stop-color="#5F82FF"/><stop offset=".78" stop-color="#8BCFFF"/></linearGradient><radialGradient id="a" cx="0" cy="0" r="1" gradientTransform="matrix(0 496.949 -715.31 0 372.29 536.38)" gradientUnits="userSpaceOnUse"><stop stop-color="#6822FF" stop-opacity="0"/><stop offset="1" stop-color="#fff"/></radialGradient><radialGradient id="b" cx="0" cy="0" r="1" gradientTransform="matrix(0 496.949 -715.31 0 372.29 446.38)" gradientUnits="userSpaceOnUse"><stop stop-color="#6822FF" stop-opacity="0"/><stop offset="1" stop-color="#fff"/></radialGradient><radialGradient id="c" cx="0" cy="0" r="1" gradientTransform="matrix(0 496.949 -715.31 0 372.29 356.38)" gradientUnits="userSpaceOnUse"><stop stop-color="#6822FF" stop-opacity="0"/><stop offset="1" stop-color="#fff"/></radialGradient><radialGradient id="d" cx="0" cy="0" r="1" gradientTransform="matrix(0 496.949 -715.31 0 372.29 266.38)" gradientUnits="userSpaceOnUse"><stop stop-color="#6822FF" stop-opacity="0"/><stop offset="1" stop-color="#fff"/></radialGradient><radialGradient id="e" cx="0" cy="0" r="1" gradientTransform="matrix(0 496.949 -715.31 0 372.29 176.38)" gradientUnits="userSpaceOnUse"><stop stop-color="#6822FF" stop-opacity="0"/><stop offset="1" stop-color="#fff"/></radialGradient><radialGradient id="h" cx="0" cy="0" r="1" gradientTransform="rotate(67.66 158.59 383.13)scale(456.641 422.101)" gradientUnits="userSpaceOnUse"><stop stop-color="#00A3FF" stop-opacity=".87"/><stop offset=".83" stop-color="#6BAFFF" stop-opacity="0"/></radialGradient><radialGradient id="i" cx="0" cy="0" r="1" gradientTransform="matrix(-414.4016 -197.67718 117.52263 -246.36919 848.95 112.59)" gradientUnits="userSpaceOnUse"><stop stop-color="#2238FF"/><stop offset="1" stop-color="#0047FF" stop-opacity="0"/></radialGradient><radialGradient id="r" cx="0" cy="0" r="1" gradientTransform="matrix(-100.562 -666.965 438.512 36.8783 241.7 403.44)" gradientUnits="userSpaceOnUse"><stop stop-color="#00A3FF" stop-opacity=".87"/><stop offset=".72" stop-color="#6BAFFF" stop-opacity="0"/></radialGradient><radialGradient id="s" cx="0" cy="0" r="1" gradientTransform="matrix(647.122 -373.696 -1.00675 200.605 -140.35 227.03)" gradientUnits="userSpaceOnUse"><stop stop-color="#101A6F"/><stop offset="1" stop-color="#0047FF" stop-opacity="0"/></radialGradient></defs></svg>