<svg xmlns="http://www.w3.org/2000/svg" width="703" height="719" fill="none">
  <path fill="url(#a)"
    d="M-50.2 209.75c-15.06-8.62-15.15-22.59-.18-31.2L152.5 61.7c14.96-8.62 39.3-8.62 54.37 0l204.2 116.83c15.06 8.62 15.14 22.6.17 31.2L208.37 326.59c-14.97 8.62-39.31 8.62-54.37 0z" />
  <path fill="url(#b)"
    d="M-50.2 261.36c-15.06-8.62-15.15-22.6-.18-31.2L152.5 113.31c14.96-8.62 39.3-8.62 54.37 0l204.2 116.83c15.06 8.62 15.14 22.6.17 31.2L208.37 378.2c-14.97 8.62-39.31 8.62-54.37 0z"
    opacity=".8" />
  <path fill="url(#c)"
    d="M-50.2 312.97c-15.06-8.62-15.15-22.6-.18-31.2L152.5 164.92c14.96-8.62 39.3-8.62 54.37 0l204.2 116.83c15.06 8.62 15.14 22.6.17 31.2L208.37 429.8c-14.97 8.62-39.31 8.62-54.37 0z"
    opacity=".7" />
  <path fill="url(#d)"
    d="M-50.2 364.58c-15.06-8.62-15.15-22.6-.18-31.2L152.5 216.53c14.96-8.62 39.3-8.62 54.37 0l204.2 116.83c15.06 8.62 15.14 22.6.17 31.2L208.37 481.42c-14.97 8.62-39.31 8.62-54.37 0z"
    opacity=".6" />
  <path fill="url(#e)"
    d="M-50.2 416.19c-15.06-8.62-15.15-22.6-.18-31.2L152.5 268.14c14.96-8.62 39.3-8.62 54.37 0l204.2 116.83c15.06 8.62 15.14 22.59.17 31.2L208.37 533.02c-14.97 8.62-39.31 8.62-54.37 0z"
    opacity=".5" />
  <path fill="url(#f)"
    d="M-50.2 467.8c-15.06-8.62-15.15-22.6-.18-31.2L152.5 319.75c14.96-8.62 39.3-8.62 54.37 0l204.2 116.83c15.06 8.62 15.14 22.59.17 31.2L208.37 584.63c-14.97 8.62-39.31 8.62-54.37 0z"
    opacity=".4" />
  <path fill="url(#g)"
    d="M-50.2 519.4c-15.06-8.61-15.15-22.59-.18-31.2L152.5 371.37c14.96-8.62 39.3-8.62 54.37 0l204.2 116.82c15.06 8.62 15.14 22.6.17 31.21L208.37 636.24c-14.97 8.62-39.31 8.62-54.37 0z"
    opacity=".35" />
  <path fill="url(#h)"
    d="M-50.2 571.02c-15.06-8.62-15.15-22.6-.18-31.21L152.5 422.97c14.96-8.62 39.3-8.62 54.37 0l204.2 116.83c15.06 8.62 15.14 22.6.17 31.21L208.37 687.84c-14.97 8.62-39.31 8.62-54.37 0z"
    opacity=".3" />
  <path fill="url(#i)"
    d="M-50.2 622.63c-15.06-8.62-15.15-22.6-.18-31.21L152.5 474.58c14.96-8.62 39.3-8.62 54.37 0l204.2 116.83c15.06 8.62 15.14 22.6.17 31.21L208.37 739.45c-14.97 8.62-39.31 8.62-54.37 0z"
    opacity=".25" />
  <path fill="url(#j)"
    d="M-50.2 674.23c-15.06-8.62-15.15-22.59-.18-31.2L152.5 526.19c14.96-8.62 39.3-8.62 54.37 0l204.2 116.83c15.06 8.62 15.14 22.6.17 31.2L208.37 791.07c-14.97 8.62-39.31 8.62-54.37 0z"
    opacity=".2" />
  <path fill="url(#k)"
    d="M-50.2 725.84c-15.06-8.62-15.15-22.59-.18-31.2L152.5 577.8c14.96-8.62 39.3-8.62 54.37 0l204.2 116.83c15.06 8.62 15.14 22.6.17 31.2L208.37 842.68c-14.97 8.62-39.31 8.62-54.37 0z"
    opacity=".15" />
  <path fill="#fff"
    d="m188.84 307.26-42.36-13.5 6.56-3.64 28.66 9.55-16.24-16.38 6.51-3.66 28.66 9.54-16.28-16.4 6.56-3.64 23 24.23-6.14 3.4-28.45-9.18 15.66 16.28zm37.23-20.63-32.69-18.87 13.94-7.73a33 33 0 0 1 2.93-1.42 21.2 21.2 0 0 1 13.29-.96q3.12.78 5.86 2.37 4.11 2.38 4.97 5.2.84 2.83-2.87 5.66l-2.57 1.63-7.7 4.27 11.07 6.4zm18.6-10.32-19.8-4.07 5.2-4.26 21.67 4.42zm-29.2-2.86 7.42-4.12q.48-.27 1-.6.54-.36.88-.7.92-.9.81-1.73a2.7 2.7 0 0 0-.85-1.56 8 8 0 0 0-1.6-1.24 11.4 11.4 0 0 0-4.88-1.44 9.12 9.12 0 0 0-4.34.9l-1.1.55-7.43 4.12zm37.82-1.9-22.6-24.47 9.3-5.16 42.77 13.28-6.42 3.56-37.8-11.66 1.19-.66 19.97 21.54zm-.76-7.3-5.77-3.32 17.42-9.66 5.77 3.33zm33.14-10.66-32.68-18.87 13.93-7.72a33 33 0 0 1 2.94-1.43 21.3 21.3 0 0 1 13.28-.96q3.11.78 5.87 2.37a13 13 0 0 1 4.07 3.4 4.4 4.4 0 0 1 .9 3.68q-.4 1.89-2.88 3.78-.55.4-1.33.9-.78.47-1.24.73l-7.7 4.27 11.07 6.4zm-10.6-13.18 7.42-4.12q.48-.26 1.01-.6.52-.36.87-.7.93-.9.82-1.73a2.7 2.7 0 0 0-.86-1.56 8 8 0 0 0-1.6-1.24 11.4 11.4 0 0 0-4.87-1.43q-1.5-.1-3.11.4-.61.2-1.24.49-.61.3-1.1.56l-7.42 4.11zm39.22-2.68-32.69-18.87 13.94-7.73a33 33 0 0 1 2.93-1.42 21.2 21.2 0 0 1 13.29-.96q3.11.78 5.86 2.37a13 13 0 0 1 4.08 3.4 4.4 4.4 0 0 1 .9 3.68q-.4 1.89-2.89 3.78-.54.4-1.33.9l-1.23.73-7.7 4.27 11.07 6.4zm-10.61-13.18 7.43-4.12q.48-.27 1-.6.54-.36.88-.7.92-.9.81-1.73a2.7 2.7 0 0 0-.85-1.56 8 8 0 0 0-1.61-1.24 11.4 11.4 0 0 0-4.87-1.44 9.26 9.26 0 0 0-4.34.9q-.62.29-1.1.55l-7.43 4.12zm39.22-2.68L310.22 203l21.54-11.95 5.77 3.33-15.31 8.49 6.99 4.03 12.56-6.96 5.76 3.33-12.56 6.96 8.4 4.85 15.31-8.49 5.77 3.33zm25.84-14.33-32.68-18.87 10.68-5.92 1.63-.87q1.23-.66 2.5-1.2a27 27 0 0 1 9.5-2.17 35 35 0 0 1 9.98.99q4.95 1.22 9.1 3.62t6.2 5.21 1.55 5.67-4.02 5.33q-.98.7-2.18 1.39l-1.58.9zm.52-6.86 4.35-2.41 1.65-.94q1.02-.61 1.7-1.18 1.72-1.44 1.51-3.1a5.8 5.8 0 0 0-1.75-3.29 17 17 0 0 0-3.87-2.98 26 26 0 0 0-5.35-2.31q-2.86-.9-5.76-1.02t-5.39.8q-1.03.37-2.1.94l-1.7.92-4.36 2.41zM-3.2 212.3l5.83-3.37 32.32 1.08q3.77.12 6.13-.34t3.83-1.31a6.5 6.5 0 0 0 2.69-2.55q.72-1.41.1-2.82-.57-1.4-2.55-2.53a13 13 0 0 0-4.66-1.57 16 16 0 0 0-4.99.04q-2.47.4-4.24 1.48l-6.88-3.97a24 24 0 0 1 8.74-3q4.77-.66 9.54.2 4.8.89 8.93 3.27 3.82 2.21 5.16 4.96t.08 5.5q-1.24 2.73-5.16 5a22 22 0 0 1-5.57 2.31 26 26 0 0 1-5.91.73q-3.16.06-7.44-.1l-22.85-.8 1.05-1.31 19.64 11.33-6.3 3.64zm46.46 27.84q-4.25-2.45-5.7-5.36a6.4 6.4 0 0 1 0-5.86q1.45-2.92 5.7-5.37l12.87-7.43a27 27 0 0 1 9.29-3.28q5.07-.82 10.13.01t9.32 3.27q4.24 2.45 5.63 5.36 1.44 2.92.02 5.85-1.4 2.93-5.65 5.38l-12.88 7.43a27 27 0 0 1-9.32 3.27q-5.07.81-10.15 0a27 27 0 0 1-9.26-3.27m6.35-3.66q2.1 1.2 4.83 1.63 2.74.4 5.43 0 2.72-.41 4.83-1.64l13.84-7.99q2.14-1.23 2.83-2.78a3.6 3.6 0 0 0 0-3.14q-.7-1.6-2.8-2.8a14 14 0 0 0-4.86-1.62 18 18 0 0 0-5.43 0q-2.7.39-4.83 1.63l-13.84 8a6.6 6.6 0 0 0-2.83 2.78 3.7 3.7 0 0 0 0 3.14 6.5 6.5 0 0 0 2.83 2.78m14.38 14.61 5.83-3.36 32.32 1.07q3.76.12 6.13-.34 2.35-.45 3.82-1.31a6.5 6.5 0 0 0 2.7-2.55q.72-1.4.1-2.81-.57-1.4-2.55-2.53a13 13 0 0 0-4.66-1.57 16 16 0 0 0-4.99.03q-2.47.4-4.24 1.49l-6.88-3.97a24 24 0 0 1 8.74-3 30 30 0 0 1 9.54.2q4.8.87 8.93 3.26 3.82 2.21 5.16 4.96t.08 5.5q-1.24 2.73-5.16 5a22 22 0 0 1-5.57 2.32q-2.73.68-5.91.72-3.17.06-7.44-.1l-22.85-.8 1.05-1.31 19.64 11.34-6.3 3.63zm43.93 26.39a12 12 0 0 1-4.44-4 7 7 0 0 1-1.05-4.65 8.2 8.2 0 0 1 2.44-4.55l8.16 2.72a4 4 0 0 0-1.36 2.42q-.12 1.28.63 2.45a6.6 6.6 0 0 0 2.28 2.05q1.95 1.12 4.5 1.5 2.55.4 5.07.02 2.55-.37 4.5-1.5a5.6 5.6 0 0 0 2.54-2.6q.67-1.47-.02-2.93a6 6 0 0 0-2.58-2.58 14 14 0 0 0-4.66-1.73 20 20 0 0 0-4.08-.3l-3.88-4.36 22.35-11.5 21.7 12.53-6.27 3.62-18.12-10.46 4.86.08-15.6 7.97.28-1.56a23 23 0 0 1 10.38 2.75q3.75 2.16 4.91 4.82a5.9 5.9 0 0 1-.08 5.3q-1.28 2.66-5.02 4.82a23 23 0 0 1-8.74 2.8 35 35 0 0 1-9.96-.17 25 25 0 0 1-8.74-2.96" />
  <path fill="url(#l)" d="m227.46 149.63 71.66 37.51 4.38-7.53.7-20.76-26.22-29.36z" />
  <path fill="url(#m)" d="m265.1 127.8 71.66 37.5 4.37-7.53.93-47.95-26.44-2.17z" />
  <path fill="#fff"
    d="m261.36 207.35-9.18 5.43-1.12-117.03 8.48-4.86zM275.91 143.44v-18.56l32.82 50.82-.56 5.54-8.52 3.78zM337.83 44.94l-31.34 90.4 4.13 9.2 36-103.07zM337.14 108.56l6.78-21.04 3.01-1.97-.43 73.5-8.5 5.15z" />
  <path fill="#fff"
    d="m354.9 33.76 8.18-4.73.34 120.92-8.18 4.73-10.36 5.99-8.18 4.73-.15-52.85-22.18 65.76-15.2 8.78-22.47-39.95.15 52.85-8.19 4.73-10.35 5.98-8.75 4.39V94.79l8.4-5.01 9.63-5.56 8.19-4.73 30.85 53.1 30.45-88.54 8.19-4.73zm-44.15 105.92 33.29-96.77-5.4 3.12-30.6 88.98zm-6.13 41.39.75-2.25-28.72-51.05.04 12.81 24.04 42.74zm-46.31 26.77-.33-115.18-5.69 3.28.33 115.2zm86.56-50.04-.2-69.35-5.64 16.76.16 55.88z" />
  <path fill="url(#n)"
    d="m354.9 33.76 8.18-4.73.34 120.92-8.18 4.73-10.36 5.99-8.18 4.73-.15-52.85-22.18 65.76-15.2 8.78-22.47-39.95.15 52.85-8.19 4.73-10.35 5.98-8.75 4.39V94.79l8.4-5.01 9.63-5.56 8.19-4.73 30.85 53.1 30.45-88.54 8.19-4.73zm-44.15 105.92 33.29-96.77-5.4 3.12-30.6 88.98zm-6.13 41.39.75-2.25-28.72-51.05.04 12.81 24.04 42.74zm-46.31 26.77-.33-115.18-5.69 3.28.33 115.2zm86.56-50.04-.2-69.35-5.64 16.76.16 55.88z" />
  <path fill="url(#o)"
    d="m354.9 33.76 8.18-4.73.34 120.92-8.18 4.73-10.36 5.99-8.18 4.73-.15-52.85-22.18 65.76-15.2 8.78-22.47-39.95.15 52.85-8.19 4.73-10.35 5.98-8.75 4.39V94.79l8.4-5.01 9.63-5.56 8.19-4.73 30.85 53.1 30.45-88.54 8.19-4.73zm-44.15 105.92 33.29-96.77-5.4 3.12-30.6 88.98zm-6.13 41.39.75-2.25-28.72-51.05.04 12.81 24.04 42.74zm-46.31 26.77-.33-115.18-5.69 3.28.33 115.2zm86.56-50.04-.2-69.35-5.64 16.76.16 55.88z" />
  <path fill="url(#p)" d="m214.95 194.85 34.62 20.24V94.79l-35.42-20.78z" />
  <path fill="url(#q)" d="M301.92 23.62 279.7 87.29l26.98 45.39 30.46-88.74z" />
  <path fill="url(#r)" d="M240.69 58.84 214.13 74l35.43 20.8 26.35-15.38z" />
  <path fill="url(#s)" d="m328.2 7.98-26.55 15.17 35.5 20.32 26.27-14.9z" />
  <path fill="url(#t)"
    d="M61.47 70.19c7.16 0 17.8 6.86 22.22 10.3-1.36 2.7-2.66 12.57 2.98 30.34s23.3 34.14 31.43 40.1l-32.28 18.54c-11.66-2.71-26.44-14.65-34.37-30.73-7.13-14.46-9.21-25.2-7.86-44.7 1.35-19.52 8.94-23.85 17.88-23.85" />
  <path fill="url(#u)"
    d="m112.26 183.36-1.42-19.74 21.4-9.8 27.6 19.87 14.84 32.75-20.9 8.25-20.5-8.25z" />
  <path fill="url(#v)"
    d="M68.79 16.37 24.35 41.83c6.14-2.25 16.8-7.57 42 4.88 18.86 9.32 33.69 24.66 38.74 31.16l37.94-22.22-.03-.03c-4.27-4.63-16.14-17.5-32.49-28.15-17.07-11.1-26.55-15.26-41.72-11.1" />
  <path fill="url(#w)" d="m145 116.7-63.52 35.35 31.21 14.22 52.32-25.99z" />
  <path fill="url(#x)"
    d="m213.74 210.36-39.2 22.67c3.16-3.34 11.95-10.07 7.07-33.37s-37.5-48.63-53.76-62.18c-13-10.84-11.78-23.52-9.53-26.95l33.92-17.22c.81 2.35 4.17 9.49 11.1 19.24 8.68 12.2 48.23 35.22 55.82 62.32 6.07 21.67-1.08 32.7-5.42 35.5" />
  <path fill="#fff"
    d="m97.59 169.53 19.12 41.76-.66 1.65-10.88-10.44-10.22-13.74-4.95-9.23-4.83-13.19-2.53-10.66 9.34 2.2zM149.6 204.94l-6.9 1.72 8.63 7.46 14.56-1.1 1.1-17.96-15.66-20.85-9.95-1.1 4.15 5.86 5.8 8.15 1.93 7.32v4.97zM35.45 137.68l19.82 33.3-.8 1.44-9.74-7.78-7.46-7.35-7.72-11.69-5.34-8.62-4.55-9.89-5.45-19.4-2.7-12.01V78.33l1.38-10.74 1.96-9.89 9.84-14.54 7.3-4.07 15.65.42 10.05 3.97-1.51 3.05L30.36 70.3l-4.53 31.48zM101.64 127.84l13.25 20.98-3.12-.18-7.8-8.5-5.92-6.68-3.97-5.87-2.7-5.25-1.9-4.3-2.34-10.22-.64-7.11.64-7.07 3.2-8.14 3.53-2.97 7.62-2.68 6.06.39 6.6 1.97L99 98.83zM160.5 142.8l-8.82-2.58-1.78-6.52-3.83-7.38-5.47-8.17-1.9-4.02 5.92 1.9 11.27 10.88z" />
  <path fill="#73A7FF"
    d="M180.27 193.85a50 50 0 0 1 3.15 18.14q-.03 10.5-3.88 16.12-3.84 5.63-10.31 7.02t-14.64-.8a70 70 0 0 1-16.83-7.17q-2.27-1.31-4.44-2.73a96.3 96.3 0 0 1-27.1-20.6q-3.25-3.52-6.11-7.27-10.69-.6-24.47-8.57-3.41-1.98-6.65-4.19a23 23 0 0 1-3.92-1.92 102 102 0 0 1-29.33-25.45 118 118 0 0 1-18.92-34.78 119 119 0 0 1-6.56-39.42q.06-20.28 6.76-31.74t19.05-12.85c23.2-2.6 56.71 23.98 69.33 40.04q.9.05 1.83.18 9.45 1.27 20.8 7.84l.49.28q1.92 1.14 3.77 2.35 2.28 1.15 4.66 2.5a97 97 0 0 1 21.35 16.96 95 95 0 0 1 15.4 21.82 97 97 0 0 1 8.31 23c-10.48-3.6-20.08-6.75-31.4-11.07a45 45 0 0 0-4.61-13.37 52 52 0 0 0-8.06-11.27c-4.2-4.46-11.4-9.91-17.74-5.98q-2.8 1.74-2.82 6.35 0 4.26 2.27 8.24a40 40 0 0 0 5.74 7.63q3.46 3.64 7.09 6.8l19.68 17.53q4.4 3.9 9.76 9.22a98 98 0 0 1 10.26 12.1 66 66 0 0 1 8.08 15.04zm-45.43 8.24a30 30 0 0 0 5.82 1.8q4.96.98 8.17-.9t3.22-7.3q0-1.98-.5-4.14a20 20 0 0 0-1.69-4.46 30 30 0 0 0-3.33-5.01 57 57 0 0 0-5.47-5.8l-29.44-26.97q-3.31-3-7.67-7.51-4.37-4.51-8.46-10.6a61 61 0 0 1-6.79-13.75 51 51 0 0 1-2.67-17.01c.02-6.22 1.04-11.3 3.05-14.92a60 60 0 0 0-13.1-10.15q-10.8-6.22-18.02-4.87-7.23 1.35-10.88 9.32-3.66 7.95-3.69 21.54a89 89 0 0 0 3.56 25.71c4.65 15.72 14.22 28.47 28.77 37.75a43 43 0 0 0 9.6 4.26 84 84 0 0 1-3.85-17.04l31.22 14.22a57 57 0 0 0 9.72 22.93 57 57 0 0 0 12.44 12.9m-97.71-47.51a98 98 0 0 0 17.21 17.03q-4.24-4.26-8.02-9.07a118 118 0 0 1-18.93-34.77 119 119 0 0 1-6.55-39.42q.05-20.28 6.75-31.74t19.06-12.85q3.8-.42 8.05.21c-6.4-2.47-12.18-3.44-17.25-2.87-7.75.88-13.82 4.97-18.03 12.17-4.26 7.28-6.43 17.55-6.47 30.52-.04 12.51 2.27 26.31 6.27 37.88a112 112 0 0 0 17.9 32.92m56.84-69.54q-1.42 1.3-2.44 3.17-2.79 4.98-2.82 13.77a46 46 0 0 0 2.39 15.43 55 55 0 0 0 6.06 12.32 72 72 0 0 0 7.78 9.75q4.23 4.38 7.42 7.28l2.77 2.53-2.36-2.4q-4.36-4.51-8.46-10.6a61 61 0 0 1-6.79-13.75 51 51 0 0 1-2.67-17q.04-13.14 5.82-18.5 5.4-5.03 14.17-4.22a40 40 0 0 0-6.64-1.51q-8.95-1.17-14.23 3.74m13.33 116.56a94 94 0 0 0 8.56 8.17l-.82-.87a100 100 0 0 1-16.58-24.26 86 86 0 0 1-7.94-25.81l-5.93-2.42q1.1 6.72 3.34 13.23a83 83 0 0 0 3.83 9.22 94 94 0 0 0 15.55 22.74m50.35 6.47q3.2-1.87 3.21-7.3 0-2-.5-4.15-.51-2.15-1.68-4.47a30 30 0 0 0-3.34-5.01 56 56 0 0 0-5.46-5.79l-4.83-4.42a51 51 0 0 1 2.82 3.21 36 36 0 0 1 4.06 6.13q1.5 2.95 2.18 5.79.63 2.68.62 5.15c0 4.45-1.36 7.49-4 9.03a11.3 11.3 0 0 1-5.86 1.4 28 28 0 0 0 4.62 1.31q4.95.97 8.17-.9M146.77 122a51 51 0 0 0-6.29-5.7 60 60 0 0 1 7.53 10.97 51 51 0 0 1 4.55 11.88l5.6 2.13a44 44 0 0 0-3.33-8 52 52 0 0 0-8.06-11.27" />
  <path fill="url(#y)"
    d="M180.27 193.85a50 50 0 0 1 3.15 18.14q-.03 10.5-3.88 16.12-3.84 5.63-10.31 7.02t-14.64-.8a70 70 0 0 1-16.83-7.17q-2.27-1.31-4.44-2.73a96.3 96.3 0 0 1-27.1-20.6q-3.25-3.52-6.11-7.27-10.69-.6-24.47-8.57-3.41-1.98-6.65-4.19a23 23 0 0 1-3.92-1.92 102 102 0 0 1-29.33-25.45 118 118 0 0 1-18.92-34.78 119 119 0 0 1-6.56-39.42q.06-20.28 6.76-31.74t19.05-12.85c23.2-2.6 56.71 23.98 69.33 40.04q.9.05 1.83.18 9.45 1.27 20.8 7.84l.49.28q1.92 1.14 3.77 2.35 2.28 1.15 4.66 2.5a97 97 0 0 1 21.35 16.96 95 95 0 0 1 15.4 21.82 97 97 0 0 1 8.31 23c-10.48-3.6-20.08-6.75-31.4-11.07a45 45 0 0 0-4.61-13.37 52 52 0 0 0-8.06-11.27c-4.2-4.46-11.4-9.91-17.74-5.98q-2.8 1.74-2.82 6.35 0 4.26 2.27 8.24a40 40 0 0 0 5.74 7.63q3.46 3.64 7.09 6.8l19.68 17.53q4.4 3.9 9.76 9.22a98 98 0 0 1 10.26 12.1 66 66 0 0 1 8.08 15.04zm-45.43 8.24a30 30 0 0 0 5.82 1.8q4.96.98 8.17-.9t3.22-7.3q0-1.98-.5-4.14a20 20 0 0 0-1.69-4.46 30 30 0 0 0-3.33-5.01 57 57 0 0 0-5.47-5.8l-29.44-26.97q-3.31-3-7.67-7.51-4.37-4.51-8.46-10.6a61 61 0 0 1-6.79-13.75 51 51 0 0 1-2.67-17.01c.02-6.22 1.04-11.3 3.05-14.92a60 60 0 0 0-13.1-10.15q-10.8-6.22-18.02-4.87-7.23 1.35-10.88 9.32-3.66 7.95-3.69 21.54a89 89 0 0 0 3.56 25.71c4.65 15.72 14.22 28.47 28.77 37.75a43 43 0 0 0 9.6 4.26 84 84 0 0 1-3.85-17.04l31.22 14.22a57 57 0 0 0 9.72 22.93 57 57 0 0 0 12.44 12.9m-97.71-47.51a98 98 0 0 0 17.21 17.03q-4.24-4.26-8.02-9.07a118 118 0 0 1-18.93-34.77 119 119 0 0 1-6.55-39.42q.05-20.28 6.75-31.74t19.06-12.85q3.8-.42 8.05.21c-6.4-2.47-12.18-3.44-17.25-2.87-7.75.88-13.82 4.97-18.03 12.17-4.26 7.28-6.43 17.55-6.47 30.52-.04 12.51 2.27 26.31 6.27 37.88a112 112 0 0 0 17.9 32.92m56.84-69.54q-1.42 1.3-2.44 3.17-2.79 4.98-2.82 13.77a46 46 0 0 0 2.39 15.43 55 55 0 0 0 6.06 12.32 72 72 0 0 0 7.78 9.75q4.23 4.38 7.42 7.28l2.77 2.53-2.36-2.4q-4.36-4.51-8.46-10.6a61 61 0 0 1-6.79-13.75 51 51 0 0 1-2.67-17q.04-13.14 5.82-18.5 5.4-5.03 14.17-4.22a40 40 0 0 0-6.64-1.51q-8.95-1.17-14.23 3.74m13.33 116.56a94 94 0 0 0 8.56 8.17l-.82-.87a100 100 0 0 1-16.58-24.26 86 86 0 0 1-7.94-25.81l-5.93-2.42q1.1 6.72 3.34 13.23a83 83 0 0 0 3.83 9.22 94 94 0 0 0 15.55 22.74m50.35 6.47q3.2-1.87 3.21-7.3 0-2-.5-4.15-.51-2.15-1.68-4.47a30 30 0 0 0-3.34-5.01 56 56 0 0 0-5.46-5.79l-4.83-4.42a51 51 0 0 1 2.82 3.21 36 36 0 0 1 4.06 6.13q1.5 2.95 2.18 5.79.63 2.68.62 5.15c0 4.45-1.36 7.49-4 9.03a11.3 11.3 0 0 1-5.86 1.4 28 28 0 0 0 4.62 1.31q4.95.97 8.17-.9M146.77 122a51 51 0 0 0-6.29-5.7 60 60 0 0 1 7.53 10.97 51 51 0 0 1 4.55 11.88l5.6 2.13a44 44 0 0 0-3.33-8 52 52 0 0 0-8.06-11.27" />
  <path fill="url(#z)"
    d="M180.27 193.85a50 50 0 0 1 3.15 18.14q-.03 10.5-3.88 16.12-3.84 5.63-10.31 7.02t-14.64-.8a70 70 0 0 1-16.83-7.17q-2.27-1.31-4.44-2.73a96.3 96.3 0 0 1-27.1-20.6q-3.25-3.52-6.11-7.27-10.69-.6-24.47-8.57-3.41-1.98-6.65-4.19a23 23 0 0 1-3.92-1.92 102 102 0 0 1-29.33-25.45 118 118 0 0 1-18.92-34.78 119 119 0 0 1-6.56-39.42q.06-20.28 6.76-31.74t19.05-12.85c23.2-2.6 56.71 23.98 69.33 40.04q.9.05 1.83.18 9.45 1.27 20.8 7.84l.49.28q1.92 1.14 3.77 2.35 2.28 1.15 4.66 2.5a97 97 0 0 1 21.35 16.96 95 95 0 0 1 15.4 21.82 97 97 0 0 1 8.31 23c-10.48-3.6-20.08-6.75-31.4-11.07a45 45 0 0 0-4.61-13.37 52 52 0 0 0-8.06-11.27c-4.2-4.46-11.4-9.91-17.74-5.98q-2.8 1.74-2.82 6.35 0 4.26 2.27 8.24a40 40 0 0 0 5.74 7.63q3.46 3.64 7.09 6.8l19.68 17.53q4.4 3.9 9.76 9.22a98 98 0 0 1 10.26 12.1 66 66 0 0 1 8.08 15.04zm-45.43 8.24a30 30 0 0 0 5.82 1.8q4.96.98 8.17-.9t3.22-7.3q0-1.98-.5-4.14a20 20 0 0 0-1.69-4.46 30 30 0 0 0-3.33-5.01 57 57 0 0 0-5.47-5.8l-29.44-26.97q-3.31-3-7.67-7.51-4.37-4.51-8.46-10.6a61 61 0 0 1-6.79-13.75 51 51 0 0 1-2.67-17.01c.02-6.22 1.04-11.3 3.05-14.92a60 60 0 0 0-13.1-10.15q-10.8-6.22-18.02-4.87-7.23 1.35-10.88 9.32-3.66 7.95-3.69 21.54a89 89 0 0 0 3.56 25.71c4.65 15.72 14.22 28.47 28.77 37.75a43 43 0 0 0 9.6 4.26 84 84 0 0 1-3.85-17.04l31.22 14.22a57 57 0 0 0 9.72 22.93 57 57 0 0 0 12.44 12.9m-97.71-47.51a98 98 0 0 0 17.21 17.03q-4.24-4.26-8.02-9.07a118 118 0 0 1-18.93-34.77 119 119 0 0 1-6.55-39.42q.05-20.28 6.75-31.74t19.06-12.85q3.8-.42 8.05.21c-6.4-2.47-12.18-3.44-17.25-2.87-7.75.88-13.82 4.97-18.03 12.17-4.26 7.28-6.43 17.55-6.47 30.52-.04 12.51 2.27 26.31 6.27 37.88a112 112 0 0 0 17.9 32.92m56.84-69.54q-1.42 1.3-2.44 3.17-2.79 4.98-2.82 13.77a46 46 0 0 0 2.39 15.43 55 55 0 0 0 6.06 12.32 72 72 0 0 0 7.78 9.75q4.23 4.38 7.42 7.28l2.77 2.53-2.36-2.4q-4.36-4.51-8.46-10.6a61 61 0 0 1-6.79-13.75 51 51 0 0 1-2.67-17q.04-13.14 5.82-18.5 5.4-5.03 14.17-4.22a40 40 0 0 0-6.64-1.51q-8.95-1.17-14.23 3.74m13.33 116.56a94 94 0 0 0 8.56 8.17l-.82-.87a100 100 0 0 1-16.58-24.26 86 86 0 0 1-7.94-25.81l-5.93-2.42q1.1 6.72 3.34 13.23a83 83 0 0 0 3.83 9.22 94 94 0 0 0 15.55 22.74m50.35 6.47q3.2-1.87 3.21-7.3 0-2-.5-4.15-.51-2.15-1.68-4.47a30 30 0 0 0-3.34-5.01 56 56 0 0 0-5.46-5.79l-4.83-4.42a51 51 0 0 1 2.82 3.21 36 36 0 0 1 4.06 6.13q1.5 2.95 2.18 5.79.63 2.68.62 5.15c0 4.45-1.36 7.49-4 9.03a11.3 11.3 0 0 1-5.86 1.4 28 28 0 0 0 4.62 1.31q4.95.97 8.17-.9M146.77 122a51 51 0 0 0-6.29-5.7 60 60 0 0 1 7.53 10.97 51 51 0 0 1 4.55 11.88l5.6 2.13a44 44 0 0 0-3.33-8 52 52 0 0 0-8.06-11.27" />
  <path fill="url(#A)"
    d="m142.75 55.38-43.08 25.2c6.14-2.26 25.74 3.12 41.73 13.37 17.71 11.34 40.1 44.07 40.1 57.88l34.95-19.6c0-5.41-.81-35.94-34.95-60.05-15.97-11.28-31.43-17.89-38.75-16.8" />
  <defs>
    <radialGradient id="a" cx="0" cy="0" r="1"
      gradientTransform="matrix(0 289.418 -416.589 0 188.17 146.9)" gradientUnits="userSpaceOnUse">
      <stop stop-color="#6822FF" stop-opacity="0" />
      <stop offset="1" stop-color="#fff" />
    </radialGradient>
    <radialGradient id="b" cx="0" cy="0" r="1"
      gradientTransform="matrix(0 289.418 -416.589 0 188.17 198.5)" gradientUnits="userSpaceOnUse">
      <stop stop-color="#6822FF" stop-opacity="0" />
      <stop offset="1" stop-color="#fff" />
    </radialGradient>
    <radialGradient id="c" cx="0" cy="0" r="1"
      gradientTransform="matrix(0 289.418 -416.589 0 188.17 250.12)" gradientUnits="userSpaceOnUse">
      <stop stop-color="#6822FF" stop-opacity="0" />
      <stop offset="1" stop-color="#fff" />
    </radialGradient>
    <radialGradient id="d" cx="0" cy="0" r="1"
      gradientTransform="matrix(0 289.418 -416.589 0 188.17 301.73)" gradientUnits="userSpaceOnUse">
      <stop stop-color="#6822FF" stop-opacity="0" />
      <stop offset="1" stop-color="#fff" />
    </radialGradient>
    <radialGradient id="e" cx="0" cy="0" r="1"
      gradientTransform="matrix(0 289.418 -416.589 0 188.17 353.34)" gradientUnits="userSpaceOnUse">
      <stop stop-color="#6822FF" stop-opacity="0" />
      <stop offset="1" stop-color="#fff" />
    </radialGradient>
    <radialGradient id="f" cx="0" cy="0" r="1"
      gradientTransform="matrix(0 289.418 -416.589 0 188.17 404.95)" gradientUnits="userSpaceOnUse">
      <stop stop-color="#6822FF" stop-opacity="0" />
      <stop offset="1" stop-color="#fff" />
    </radialGradient>
    <radialGradient id="g" cx="0" cy="0" r="1"
      gradientTransform="matrix(0 289.418 -416.589 0 188.17 456.55)" gradientUnits="userSpaceOnUse">
      <stop stop-color="#6822FF" stop-opacity="0" />
      <stop offset="1" stop-color="#fff" />
    </radialGradient>
    <radialGradient id="h" cx="0" cy="0" r="1"
      gradientTransform="matrix(0 289.418 -416.589 0 188.17 508.16)" gradientUnits="userSpaceOnUse">
      <stop stop-color="#6822FF" stop-opacity="0" />
      <stop offset="1" stop-color="#fff" />
    </radialGradient>
    <radialGradient id="i" cx="0" cy="0" r="1"
      gradientTransform="matrix(0 289.418 -416.589 0 188.17 559.77)" gradientUnits="userSpaceOnUse">
      <stop stop-color="#6822FF" stop-opacity="0" />
      <stop offset="1" stop-color="#fff" />
    </radialGradient>
    <radialGradient id="j" cx="0" cy="0" r="1"
      gradientTransform="matrix(0 289.418 -416.589 0 188.17 611.38)" gradientUnits="userSpaceOnUse">
      <stop stop-color="#6822FF" stop-opacity="0" />
      <stop offset="1" stop-color="#fff" />
    </radialGradient>
    <radialGradient id="k" cx="0" cy="0" r="1"
      gradientTransform="matrix(0 289.418 -416.589 0 188.17 663)" gradientUnits="userSpaceOnUse">
      <stop stop-color="#6822FF" stop-opacity="0" />
      <stop offset="1" stop-color="#fff" />
    </radialGradient>
    <radialGradient id="n" cx="0" cy="0" r="1"
      gradientTransform="rotate(67.66 45.08 223.85)scale(265.943 245.827)"
      gradientUnits="userSpaceOnUse">
      <stop stop-color="#00A3FF" stop-opacity=".87" />
      <stop offset=".83" stop-color="#6BAFFF" stop-opacity="0" />
    </radialGradient>
    <radialGradient id="o" cx="0" cy="0" r="1"
      gradientTransform="rotate(-154.5 245.3 2.17)scale(267.395 158.971)"
      gradientUnits="userSpaceOnUse">
      <stop stop-color="#2238FF" />
      <stop offset="1" stop-color="#0047FF" stop-opacity="0" />
    </radialGradient>
    <radialGradient id="y" cx="0" cy="0" r="1"
      gradientTransform="matrix(-58.5664 -388.433 255.385 21.4775 112.12 279.14)"
      gradientUnits="userSpaceOnUse">
      <stop stop-color="#00A3FF" stop-opacity=".87" />
      <stop offset=".72" stop-color="#6BAFFF" stop-opacity="0" />
    </radialGradient>
    <radialGradient id="z" cx="0" cy="0" r="1"
      gradientTransform="matrix(376.877 -217.637 -.58632 116.83 -110.38 176.4)"
      gradientUnits="userSpaceOnUse">
      <stop stop-color="#101A6F" />
      <stop offset="1" stop-color="#0047FF" stop-opacity="0" />
    </radialGradient>
    <linearGradient id="l" x1="270.39" x2="230.24" y1="129.49" y2="197.61"
      gradientUnits="userSpaceOnUse">
      <stop stop-color="#5F82FF" />
      <stop offset=".78" stop-color="#A8DBFF" />
    </linearGradient>
    <linearGradient id="m" x1="308.15" x2="274.65" y1="122.79" y2="179.75"
      gradientUnits="userSpaceOnUse">
      <stop stop-color="#5F82FF" />
      <stop offset=".78" stop-color="#A8DBFF" />
    </linearGradient>
    <linearGradient id="p" x1="198.63" x2="287" y1="51.26" y2="121.22"
      gradientUnits="userSpaceOnUse">
      <stop stop-color="#00A3FF" />
      <stop offset="1" stop-color="#D1E1FF" />
    </linearGradient>
    <linearGradient id="q" x1="284.46" x2="337.21" y1="95.57" y2="104.45"
      gradientUnits="userSpaceOnUse">
      <stop stop-color="#357CE6" />
      <stop offset="1" stop-color="#A8CFFB" />
    </linearGradient>
    <linearGradient id="r" x1="307.37" x2="178.5" y1="22.4" y2="36.26"
      gradientUnits="userSpaceOnUse">
      <stop stop-color="#5F82FF" />
      <stop offset=".78" stop-color="#A8DBFF" />
    </linearGradient>
    <linearGradient id="s" x1="394.88" x2="266.02" y1="-28.46" y2="-14.6"
      gradientUnits="userSpaceOnUse">
      <stop stop-color="#5F82FF" />
      <stop offset=".78" stop-color="#BDDEFF" />
    </linearGradient>
    <linearGradient id="t" x1="5.74" x2="164.38" y1="-20.06" y2="55.82"
      gradientUnits="userSpaceOnUse">
      <stop stop-color="#2238FF" />
      <stop offset="1" stop-color="#C0DDFF" />
    </linearGradient>
    <linearGradient id="u" x1="156.88" x2="142.01" y1="230.06" y2="164.72"
      gradientUnits="userSpaceOnUse">
      <stop stop-color="#00A3FF" />
      <stop offset=".48" stop-color="#099FFD" />
      <stop offset="1" stop-color="#D0E3FF" />
    </linearGradient>
    <linearGradient id="v" x1="2.43" x2="129.86" y1="15.02" y2="83.91"
      gradientUnits="userSpaceOnUse">
      <stop stop-color="#2238FF" />
      <stop offset="1" stop-color="#B0D4FF" />
    </linearGradient>
    <linearGradient id="w" x1="39.61" x2="140.6" y1="71.87" y2="180.36"
      gradientUnits="userSpaceOnUse">
      <stop stop-color="#2238FF" />
      <stop offset="1" stop-color="#C0DDFF" />
    </linearGradient>
    <linearGradient id="x" x1="192.34" x2="146.82" y1="268.07" y2="125.01"
      gradientUnits="userSpaceOnUse">
      <stop stop-color="#00A3FF" />
      <stop offset=".48" stop-color="#099FFD" />
      <stop offset="1" stop-color="#D0E3FF" />
    </linearGradient>
    <linearGradient id="A" x1="111.17" x2="180.97" y1="94.91" y2="151.6"
      gradientUnits="userSpaceOnUse">
      <stop stop-color="#5F82FF" />
      <stop offset=".78" stop-color="#8BCFFF" />
    </linearGradient>
  </defs>
</svg>
