<svg xmlns="http://www.w3.org/2000/svg" width="720" height="736" fill="none"><path fill="url(#a)" d="M1019.07 338.09c42.81 24.51 43.05 64.25.51 88.75L442.91 759.08c-42.54 24.51-111.74 24.51-154.56 0l-580.42-332.23c-42.81-24.51-43.05-64.25-.5-88.75L284.08 5.86c42.54-24.52 111.74-24.52 154.56 0l580.44 332.23z" opacity=".7"/><path stroke="#fff" stroke-linejoin="round" stroke-width="2.04" d="M354.94 479.42s-7.62-45.2-53.1-66.1c-45.49-20.92-50.54 7.76-43.12 27.83 7.42 20.06 37.6 48.76 54.92 64.1s12.62 38.1-7.42 26.23-21.77-39.1-21.77-39.1l-32.41-12.6s3.46 46.9 55.91 76.2c52.45 29.28 55.79-12.7 44.22-36.9-11.56-24.22-59.94-54.63-63.09-72.82-3.15-18.2 27.53-13.99 33.72 22.63l32.14 10.54Z"/><path stroke="#fff" stroke-linejoin="round" stroke-width="2.04" d="M276.25 403.23s-30.7-38.2-63.78-40-44.8 35.96-25.47 89.58c19.33 53.63 71.1 71.92 85.14 73.02"/><path stroke="#fff" stroke-linejoin="round" stroke-width="2.04" d="M260.54 411.75s-21.37-23.32-39.29-13.57-15.15 46.8 1.65 71.9c16.8 25.08 33.25 27.11 33.25 27.11M315.03 380.06s-19.58-22.99-41.78-34.08-34.4-6.1-34.4-6.1l-47.86 29.7M346.6 564.28l44.35-24.06s7-10.51 4.75-27.69c-2.83-21.52-24.42-41.8-24.42-41.8"/><path stroke="#fff" stroke-linejoin="round" stroke-width="2.04" d="M266.08 407.72 316 379.97s27.53 3.73 49.6 26.05S393.35 459 393.35 459l-38.4 20.44M252.04 479.77l24.2-11.84M284.45 492.39l9.87-5.16M425.13 544.39v-124.2l27.06-15.35 31.55 54.14 31.53-90.7 27.07-15.36V477.8l-27.42 15.77V439.2l-22.97 67.67-15.64 8.57-23.11-40.68V529z"/><path stroke="#fff" stroke-linejoin="round" stroke-width="2.04" d="m542.34 352.92-36.28-21.21-27.35 15.63 36.56 20.93M456.1 412.93l22.61-65.59M452.2 404.84l-36.29-21.21-27.35 15.62 36.56 20.94M389.22 445.84v-46.59M389.4 494.45v-32.93M425.13 544.39l-28.98-16.76M250.56 403.23s-5.23 19.33 8.16 37.92"/><path stroke="#fff" stroke-linejoin="round" stroke-width="2.04" d="M419.99 386a54 54 0 0 0 3.15-18.26 54 54 0 0 0-9.76-31.05L368.35 364l-45.7-26.22a54.3 54.3 0 0 0-7.63 42.3M377.82 421.38a55 55 0 0 0 12.97-3.94"/><path stroke="#fff" stroke-linejoin="round" stroke-width="2.04" d="m368.18 363.99 45.2-27.28c-24.8 46.34-35.87 67.55-40.8 77.26"/><path stroke="#fff" stroke-linejoin="round" stroke-width="2.04" d="M368.55 409.14c0-18.36-.36-25.87-.36-45.16l-45.65-26.22 31.66 58.03M368.38 306.2v44.19l-38.87-22.08zM368.4 306.2l38.88 22.11-38.89 22.08z"/><path stroke="#fff" stroke-linejoin="round" stroke-width="2.04" d="m368.4 269.04 38.88 59.28-38.89-22.17zM368.38 306.14l-38.9 22.18 38.9-59.32z"/><defs><radialGradient id="a" cx="0" cy="0" r="1" gradientTransform="matrix(0 -823.033 1184.15 0 341.5 516.83)" gradientUnits="userSpaceOnUse"><stop stop-color="#6822FF" stop-opacity="0"/><stop offset="1" stop-color="#fff"/></radialGradient></defs></svg>