<svg width="720" height="736" viewBox="0 0 720 736" fill="none" xmlns="http://www.w3.org/2000/svg">
<path opacity=".1" d="M-153.74 750.27c-33.52-19.2-33.7-50.34-.4-69.53l451.47-260.33c33.3-19.21 87.48-19.21 121 0l454.41 260.32c33.52 19.21 33.7 50.34.4 69.54l-451.47 260.32c-33.31 19.21-87.49 19.21-121 0l-454.42-260.32z" fill="url(#a)"/>
<path opacity=".5" d="M-19.57 840.03c-51-29.29-51.28-76.77-.6-106.05l687.06-397.02c50.68-29.29 133.13-29.29 184.14 0l691.57 397c51 29.29 51.28 76.77.6 106.05l-687.06 397.02c-50.68 29.29-133.13 29.29-184.14 0l-691.59-397z" fill="url(#b)"/>
<path opacity=".5" d="M494.46 3.83c33.89 19.42 34.07 50.91.4 70.33l-456.5 263.27c-33.68 19.42-87.76 19.42-121.65 0l-459.48-263.27c-33.89-19.42-34.07-50.91-.4-70.32l456.5-263.27c33.68-19.42 87.77-19.42 121.65 0l459.49 263.26z" fill="url(#c)"/>
<defs>
<radialGradient id="a" cx="0" cy="0" r="1" gradientUnits="userSpaceOnUse" gradientTransform="rotate(90 -116.75 493.47) scale(644.89 927.06)">
<stop stop-color="#6822FF" stop-opacity="0"/>
<stop offset="1" stop-color="#fff"/>
</radialGradient>
<radialGradient id="b" cx="0" cy="0" r="1" gradientUnits="userSpaceOnUse" gradientTransform="rotate(90 80.63 707.08) scale(983.48 1410.82)">
<stop stop-color="#6822FF" stop-opacity="0"/>
<stop offset="1" stop-color="#fff"/>
</radialGradient>
<radialGradient id="c" cx="0" cy="0" r="1" gradientUnits="userSpaceOnUse" gradientTransform="rotate(-90 51.78 93.69) scale(652.18 937.39)">
<stop stop-color="#6822FF" stop-opacity="0"/>
<stop offset="1" stop-color="#fff"/>
</radialGradient>
</defs>
</svg>
