<svg width="720" height="736" viewBox="0 0 720 736" fill="none" xmlns="http://www.w3.org/2000/svg">
<path opacity=".1" d="M-153.74 750.27c-33.52-19.2-33.7-50.34-.4-69.53l451.47-260.33c33.3-19.21 87.48-19.21 121 0l454.41 260.32c33.52 19.21 33.7 50.34.4 69.54l-451.47 260.32c-33.31 19.21-87.49 19.21-121 0l-454.42-260.32z" fill="url(#a)"/>
<path opacity=".7" d="M-332.74 538.63c-45.47-26.03-45.71-68.23-.54-94.25l612.44-352.86c45.18-26.03 118.68-26.03 164.14 0l616.44 352.84c45.47 26.03 45.71 68.23.54 94.25l-612.45 352.86c-45.17 26.03-118.67 26.03-164.14 0l-616.44-352.84z" fill="url(#b)"/>
<defs>
<radialGradient id="a" cx="0" cy="0" r="1" gradientUnits="userSpaceOnUse" gradientTransform="rotate(90 -116.75 493.47) scale(644.89 927.06)">
<stop stop-color="#6822FF" stop-opacity="0"/>
<stop offset="1" stop-color="#fff"/>
</radialGradient>
<radialGradient id="b" cx="0" cy="0" r="1" gradientUnits="userSpaceOnUse" gradientTransform="rotate(90 19.03 367.84) scale(874.09 1257.6)">
<stop stop-color="#6822FF" stop-opacity="0"/>
<stop offset="1" stop-color="#fff"/>
</radialGradient>
</defs>
</svg>
