<svg width="720" height="736" viewBox="0 0 720 736" fill="none" xmlns="http://www.w3.org/2000/svg">
<path opacity=".1" d="M-153.74 750.27c-33.52-19.2-33.7-50.34-.4-69.53l451.47-260.33c33.3-19.21 87.48-19.21 121 0l454.41 260.32c33.52 19.21 33.7 50.34.4 69.54l-451.47 260.32c-33.31 19.21-87.49 19.21-121 0l-454.42-260.32z" fill="url(#a)"/>
<path opacity=".7" d="M891.81 331.38c34.76 19.95 34.95 52.29.41 72.23l-468.24 270.43c-34.54 19.95-90.73 19.95-125.49 0l-471.49-270.41c-34.76-19.95-34.95-52.3-.41-72.24l468.24-270.43c34.54-19.95 90.73-19.95 125.49 0l471.5 270.42z" fill="url(#b)"/>
<defs>
<radialGradient id="a" cx="0" cy="0" r="1" gradientUnits="userSpaceOnUse" gradientTransform="rotate(90 -116.75 493.47) scale(644.89 927.06)">
<stop stop-color="#6822FF" stop-opacity="0"/>
<stop offset="1" stop-color="#fff"/>
</radialGradient>
<radialGradient id="b" cx="0" cy="0" r="1" gradientUnits="userSpaceOnUse" gradientTransform="rotate(-90 409.25 67.61) scale(669.89 961.49)">
<stop stop-color="#6822FF" stop-opacity="0"/>
<stop offset="1" stop-color="#fff"/>
</radialGradient>
</defs>
</svg>
