<svg width="52" height="52" viewBox="0 0 52 52" fill="none" xmlns="http://www.w3.org/2000/svg">
<path d="M7.41455 35.7359C6.20085 35.0533 6.19426 33.9467 7.40022 33.2645L23.7488 24.012C24.9548 23.3293 26.9167 23.3293 28.1304 24.012L44.5854 33.2641C45.7991 33.9467 45.8057 35.0533 44.5998 35.7355L28.2512 44.988C27.0452 45.6707 25.0833 45.6707 23.8696 44.988L7.41416 35.7359L7.41455 35.7359Z" fill="white"/>
<path d="M7.41455 35.7359C6.20085 35.0533 6.19426 33.9467 7.40022 33.2645L23.7488 24.012C24.9548 23.3293 26.9167 23.3293 28.1304 24.012L44.5854 33.2641C45.7991 33.9467 45.8057 35.0533 44.5998 35.7355L28.2512 44.988C27.0452 45.6707 25.0833 45.6707 23.8696 44.988L7.41416 35.7359L7.41455 35.7359Z" fill="url(#paint0_radial_16576_7404)"/>
<path d="M7.41455 27.0689C6.20085 26.3863 6.19426 25.2797 7.40022 24.5975L23.7488 15.345C24.9548 14.6624 26.9167 14.6624 28.1304 15.345L44.5854 24.5971C45.7991 25.2797 45.8057 26.3863 44.5998 27.0685L28.2512 36.321C27.0452 37.0037 25.0833 37.0037 23.8696 36.321L7.41416 27.0689L7.41455 27.0689Z" fill="white"/>
<path d="M7.41455 27.0689C6.20085 26.3863 6.19426 25.2797 7.40022 24.5975L23.7488 15.345C24.9548 14.6624 26.9167 14.6624 28.1304 15.345L44.5854 24.5971C45.7991 25.2797 45.8057 26.3863 44.5998 27.0685L28.2512 36.321C27.0452 37.0037 25.0833 37.0037 23.8696 36.321L7.41416 27.0689L7.41455 27.0689Z" fill="url(#paint1_radial_16576_7404)"/>
<path d="M7.41455 18.4029C6.20085 17.7203 6.19426 16.6137 7.40022 15.9315L23.7488 6.67897C24.9548 5.99634 26.9167 5.99634 28.1304 6.67897L44.5854 15.9311C45.7991 16.6137 45.8057 17.7203 44.5998 18.4025L28.2512 27.655C27.0452 28.3376 25.0833 28.3376 23.8696 27.655L7.41416 18.4029L7.41455 18.4029Z" fill="white"/>
<path d="M7.41455 18.4029C6.20085 17.7203 6.19426 16.6137 7.40022 15.9315L23.7488 6.67897C24.9548 5.99634 26.9167 5.99634 28.1304 6.67897L44.5854 15.9311C45.7991 16.6137 45.8057 17.7203 44.5998 18.4025L28.2512 27.655C27.0452 28.3376 25.0833 28.3376 23.8696 27.655L7.41416 18.4029L7.41455 18.4029Z" fill="url(#paint2_radial_16576_7404)"/>
<defs>
<radialGradient id="paint0_radial_16576_7404" cx="0" cy="0" r="1" gradientUnits="userSpaceOnUse" gradientTransform="translate(26.0001 26.9167) rotate(90) scale(18.9165 42.4213)">
<stop stop-color="#5C6BF8" stop-opacity="0.7"/>
<stop offset="0.955453" stop-color="#4254FF"/>
</radialGradient>
<radialGradient id="paint1_radial_16576_7404" cx="0" cy="0" r="1" gradientUnits="userSpaceOnUse" gradientTransform="translate(26.0001 18.2497) rotate(90) scale(18.9165 42.4213)">
<stop stop-color="#5C6BF8" stop-opacity="0.7"/>
<stop offset="0.955453" stop-color="#4254FF"/>
</radialGradient>
<radialGradient id="paint2_radial_16576_7404" cx="0" cy="0" r="1" gradientTransform="matrix(-3.60645e-06 -33.5833 95.3619 51.2004 26.0001 27.8337)" gradientUnits="userSpaceOnUse">
<stop stop-color="#8C57FF" stop-opacity="0.7"/>
<stop offset="0.955453" stop-color="#6822FF" stop-opacity="0.8"/>
</radialGradient>
</defs>
</svg>
