<svg width="64" height="64" viewBox="0 0 64 64" fill="none" xmlns="http://www.w3.org/2000/svg">
  <mask id="path-1-inside-1_14491_32770" fill="white">
    <path fill-rule="evenodd" clip-rule="evenodd"
      d="M30.6947 8.80912C31.7848 8.06241 33.2218 8.06224 34.3118 8.80912L38.2669 11.5191C38.7745 11.8669 39.3716 12.0606 39.9866 12.0777L44.7796 12.2105C46.1005 12.247 47.2634 13.0915 47.7064 14.3365L49.3128 18.854C49.5191 19.4338 49.8886 19.9415 50.3763 20.3169L54.1761 23.2417C55.2232 24.0477 55.6678 25.4146 55.2943 26.6822L53.9388 31.2808C53.7648 31.8711 53.7649 32.499 53.9388 33.0894L55.2943 37.689C55.6675 38.9565 55.2232 40.3236 54.1761 41.1294L50.3763 44.0533C49.8886 44.4286 49.5191 44.9364 49.3128 45.5161L47.7064 50.0337C47.2635 51.2788 46.1006 52.1232 44.7796 52.1597L39.9866 52.2925C39.3716 52.3096 38.7745 52.5034 38.2669 52.8511L34.3118 55.5611C33.2218 56.308 31.7848 56.3079 30.6947 55.5611L26.7396 52.8511C26.2319 52.5032 25.6341 52.3095 25.0189 52.2925L20.2259 52.1597C18.905 52.1231 17.742 51.2787 17.2991 50.0337L15.6927 45.5161C15.4864 44.9364 15.1169 44.4286 14.6292 44.0533L10.8294 41.1294C9.78231 40.3235 9.33888 38.9565 9.71223 37.689L11.0667 33.0894C11.2407 32.499 11.2407 31.8712 11.0667 31.2808L9.71223 26.6822C9.33876 25.4147 9.78246 24.0478 10.8294 23.2417L14.6292 20.3169C15.1169 19.9416 15.4864 19.4339 15.6927 18.854L17.2991 14.3365C17.7421 13.0915 18.905 12.247 20.2259 12.2105L25.0189 12.0777C25.6341 12.0606 26.2319 11.867 26.7396 11.5191L30.6947 8.80912ZM32.8538 19.2915C32.7021 19.0141 32.3033 19.0139 32.1517 19.2915L28.3763 26.2144C28.3188 26.3199 28.2171 26.3944 28.099 26.4165L20.348 27.8677C20.0369 27.9261 19.9138 28.3056 20.1312 28.5357L25.5482 34.2661C25.6307 34.3535 25.6701 34.4732 25.6546 34.5923L24.64 42.4117C24.5992 42.7257 24.9223 42.9605 25.2083 42.8247L32.3314 39.4429C32.4399 39.3914 32.5666 39.3914 32.6751 39.4429L39.7982 42.8247C40.0842 42.9605 40.4073 42.7257 40.3665 42.4117L39.3519 34.5923C39.3364 34.4733 39.3751 34.3534 39.4573 34.2661L44.8753 28.5357C45.0925 28.3057 44.9693 27.9262 44.6585 27.8677L36.9075 26.4165C36.7894 26.3944 36.6877 26.3199 36.6302 26.2144L32.8538 19.2915Z" />
  </mask>
  <path
    d="M30.6947 8.80912L30.2426 8.14911L30.2425 8.14917L30.6947 8.80912ZM34.3118 8.80912L33.8597 9.46906V9.46906L34.3118 8.80912ZM38.2669 11.5191L37.8147 12.179L37.8148 12.179L38.2669 11.5191ZM39.9866 12.0777L39.9644 12.8774L39.9645 12.8774L39.9866 12.0777ZM44.7796 12.2105L44.7575 13.0102L44.7575 13.0102L44.7796 12.2105ZM47.7064 14.3365L48.4601 14.0684L48.4601 14.0683L47.7064 14.3365ZM49.3128 18.854L48.5591 19.1221L48.5591 19.1222L49.3128 18.854ZM50.3763 20.3169L49.8883 20.9509L49.8883 20.9509L50.3763 20.3169ZM54.1761 23.2417L54.6641 22.6078L54.6641 22.6078L54.1761 23.2417ZM55.2943 26.6822L56.0616 26.9083L56.0616 26.9083L55.2943 26.6822ZM53.9388 31.2808L53.1714 31.0546L53.1714 31.0547L53.9388 31.2808ZM53.9388 33.0894L53.1714 33.3154L53.1714 33.3155L53.9388 33.0894ZM55.2943 37.689L56.0617 37.463L56.0616 37.4629L55.2943 37.689ZM54.1761 41.1294L54.664 41.7635L54.664 41.7634L54.1761 41.1294ZM50.3763 44.0533L49.8884 43.4192L49.8883 43.4193L50.3763 44.0533ZM49.3128 45.5161L48.5591 45.248L48.5591 45.2481L49.3128 45.5161ZM47.7064 50.0337L48.4601 50.3018L48.4601 50.3018L47.7064 50.0337ZM44.7796 52.1597L44.7575 51.36H44.7575L44.7796 52.1597ZM39.9866 52.2925L39.9645 51.4928L39.9644 51.4928L39.9866 52.2925ZM38.2669 52.8511L37.8148 52.1911L37.8147 52.1912L38.2669 52.8511ZM34.3118 55.5611L33.8597 54.9011V54.9011L34.3118 55.5611ZM30.6947 55.5611L30.2425 56.221L30.2425 56.2211L30.6947 55.5611ZM26.7396 52.8511L26.2874 53.5111L26.2874 53.5111L26.7396 52.8511ZM25.0189 52.2925L24.9967 53.0922H24.9967L25.0189 52.2925ZM20.2259 52.1597L20.2481 51.36H20.248L20.2259 52.1597ZM17.2991 50.0337L16.5454 50.3018L16.5454 50.3018L17.2991 50.0337ZM15.6927 45.5161L16.4465 45.2481L16.4464 45.2479L15.6927 45.5161ZM14.6292 44.0533L15.1171 43.4193L15.1171 43.4192L14.6292 44.0533ZM10.8294 41.1294L10.3415 41.7634L10.3416 41.7635L10.8294 41.1294ZM9.71223 37.689L10.4796 37.915L10.4796 37.915L9.71223 37.689ZM11.0667 33.0894L10.2993 32.8633L10.2993 32.8634L11.0667 33.0894ZM11.0667 31.2808L10.2993 31.5068L10.2993 31.5069L11.0667 31.2808ZM9.71223 26.6822L10.4796 26.4561L10.4796 26.456L9.71223 26.6822ZM10.8294 23.2417L10.3415 22.6078L10.3414 22.6078L10.8294 23.2417ZM14.6292 20.3169L14.1413 19.683L14.1413 19.683L14.6292 20.3169ZM15.6927 18.854L16.4464 19.1222L16.4465 19.1221L15.6927 18.854ZM17.2991 14.3365L16.5454 14.0683L16.5454 14.0684L17.2991 14.3365ZM20.2259 12.2105L20.248 13.0102L20.2481 13.0102L20.2259 12.2105ZM25.0189 12.0777L24.9967 11.278L24.9967 11.278L25.0189 12.0777ZM26.7396 11.5191L26.2874 10.8591V10.8591L26.7396 11.5191ZM32.8538 19.2915L33.5561 18.9084L33.5557 18.9076L32.8538 19.2915ZM32.1517 19.2915L31.4495 18.9082L31.4493 18.9085L32.1517 19.2915ZM28.3763 26.2144L29.0786 26.5974L29.0786 26.5974L28.3763 26.2144ZM28.099 26.4165L28.2462 27.2029L28.2462 27.2029L28.099 26.4165ZM20.348 27.8677L20.2008 27.0814L20.2003 27.0815L20.348 27.8677ZM20.1312 28.5357L19.5498 29.0852L19.5498 29.0852L20.1312 28.5357ZM25.5482 34.2661L26.1295 33.7166L26.1295 33.7166L25.5482 34.2661ZM25.6546 34.5923L26.448 34.6953V34.6953L25.6546 34.5923ZM24.64 42.4117L23.8466 42.3087V42.3087L24.64 42.4117ZM25.2083 42.8247L25.5514 43.5475L25.5514 43.5474L25.2083 42.8247ZM32.3314 39.4429L31.9883 38.7202L31.9883 38.7202L32.3314 39.4429ZM32.6751 39.4429L33.0182 38.7202L33.0182 38.7202L32.6751 39.4429ZM39.7982 42.8247L39.4551 43.5474L39.4551 43.5475L39.7982 42.8247ZM40.3665 42.4117L41.1599 42.3087V42.3087L40.3665 42.4117ZM39.3519 34.5923L38.5585 34.6953L38.5585 34.6953L39.3519 34.5923ZM39.4573 34.2661L38.876 33.7165L38.8753 33.7174L39.4573 34.2661ZM44.8753 28.5357L45.4566 29.0853L45.4569 29.085L44.8753 28.5357ZM44.6585 27.8677L44.8066 27.0815L44.8057 27.0814L44.6585 27.8677ZM36.9075 26.4165L36.7603 27.2029L36.7603 27.2029L36.9075 26.4165ZM36.6302 26.2144L37.3325 25.8314L37.3325 25.8313L36.6302 26.2144ZM30.6947 8.80912L31.1467 9.46912C31.9644 8.90902 33.0422 8.90898 33.8597 9.46906L34.3118 8.80912L34.764 8.14917C33.4014 7.21551 31.6051 7.2158 30.2426 8.14911L30.6947 8.80912ZM34.3118 8.80912L33.8597 9.46906L37.8147 12.179L38.2669 11.5191L38.7191 10.8591L34.764 8.14917L34.3118 8.80912ZM38.2669 11.5191L37.8148 12.179C38.4495 12.6139 39.1958 12.856 39.9644 12.8774L39.9866 12.0777L40.0089 11.278C39.5473 11.2652 39.0996 11.1198 38.7191 10.8591L38.2669 11.5191ZM39.9866 12.0777L39.9645 12.8774L44.7575 13.0102L44.7796 12.2105L44.8018 11.4108L40.0088 11.278L39.9866 12.0777ZM44.7796 12.2105L44.7575 13.0102C45.7483 13.0375 46.6205 13.671 46.9527 14.6046L47.7064 14.3365L48.4601 14.0683C47.9063 12.512 46.4527 11.4564 44.8017 11.4108L44.7796 12.2105ZM47.7064 14.3365L46.9526 14.6045L48.5591 19.1221L49.3128 18.854L50.0666 18.586L48.4601 14.0684L47.7064 14.3365ZM49.3128 18.854L48.5591 19.1222C48.8171 19.8474 49.2792 20.482 49.8883 20.9509L50.3763 20.3169L50.8643 19.683C50.4981 19.4011 50.2211 19.0203 50.0665 18.5859L49.3128 18.854ZM50.3763 20.3169L49.8883 20.9509L53.6881 23.8757L54.1761 23.2417L54.6641 22.6078L50.8643 19.683L50.3763 20.3169ZM54.1761 23.2417L53.6881 23.8757C54.4736 24.4803 54.8069 25.5056 54.5269 26.456L55.2943 26.6822L56.0616 26.9083C56.5286 25.3237 55.9727 23.6151 54.6641 22.6078L54.1761 23.2417ZM55.2943 26.6822L54.5269 26.456L53.1714 31.0546L53.9388 31.2808L54.7062 31.507L56.0616 26.9083L55.2943 26.6822ZM53.9388 31.2808L53.1714 31.0547C52.954 31.7927 52.954 32.5776 53.1714 33.3154L53.9388 33.0894L54.7062 32.8633C54.5757 32.4205 54.5757 31.9496 54.7062 31.5069L53.9388 31.2808ZM53.9388 33.0894L53.1714 33.3155L54.5269 37.9151L55.2943 37.689L56.0616 37.4629L54.7062 32.8633L53.9388 33.0894ZM55.2943 37.689L54.5269 37.915C54.8068 38.8656 54.4735 39.891 53.6882 40.4954L54.1761 41.1294L54.664 41.7634C55.9729 40.7561 56.5283 39.0474 56.0617 37.463L55.2943 37.689ZM54.1761 41.1294L53.6882 40.4954L49.8884 43.4192L50.3763 44.0533L50.8642 44.6873L54.664 41.7635L54.1761 41.1294ZM50.3763 44.0533L49.8883 43.4193C49.2791 43.8882 48.8171 44.5229 48.5591 45.248L49.3128 45.5161L50.0665 45.7843C50.2211 45.3499 50.4982 44.969 50.8642 44.6872L50.3763 44.0533ZM49.3128 45.5161L48.5591 45.2481L46.9526 49.7657L47.7064 50.0337L48.4601 50.3018L50.0666 45.7842L49.3128 45.5161ZM47.7064 50.0337L46.9526 49.7656C46.6205 50.6992 45.7485 51.3326 44.7575 51.36L44.7796 52.1597L44.8017 52.9594C46.4528 52.9138 47.9064 51.8584 48.4601 50.3018L47.7064 50.0337ZM44.7796 52.1597L44.7575 51.36L39.9645 51.4928L39.9866 52.2925L40.0088 53.0922L44.8018 52.9594L44.7796 52.1597ZM39.9866 52.2925L39.9644 51.4928C39.1959 51.5142 38.4494 51.7564 37.8148 52.1911L38.2669 52.8511L38.719 53.5111C39.0996 53.2504 39.5474 53.105 40.0088 53.0922L39.9866 52.2925ZM38.2669 52.8511L37.8147 52.1912L33.8597 54.9011L34.3118 55.5611L34.764 56.221L38.7191 53.5111L38.2669 52.8511ZM34.3118 55.5611L33.8597 54.9011C33.0422 55.4613 31.9644 55.4612 31.1468 54.9011L30.6947 55.5611L30.2425 56.2211C31.6051 57.1545 33.4014 57.1547 34.764 56.221L34.3118 55.5611ZM30.6947 55.5611L31.1468 54.9011L27.1918 52.1912L26.7396 52.8511L26.2874 53.5111L30.2425 56.221L30.6947 55.5611ZM26.7396 52.8511L27.1918 52.1912C26.5567 51.756 25.8096 51.5141 25.041 51.4928L25.0189 52.2925L24.9967 53.0922C25.4587 53.105 25.907 53.2504 26.2874 53.5111L26.7396 52.8511ZM25.0189 52.2925L25.041 51.4928L20.2481 51.36L20.2259 52.1597L20.2037 52.9594L24.9967 53.0922L25.0189 52.2925ZM20.2259 52.1597L20.248 51.36C19.2571 51.3326 18.385 50.6991 18.0529 49.7656L17.2991 50.0337L16.5454 50.3018C17.0991 51.8583 18.5529 52.9137 20.2038 52.9594L20.2259 52.1597ZM17.2991 50.0337L18.0529 49.7657L16.4465 45.2481L15.6927 45.5161L14.9389 45.7842L16.5454 50.3018L17.2991 50.0337ZM15.6927 45.5161L16.4464 45.2479C16.1884 44.5229 15.7265 43.8882 15.1171 43.4193L14.6292 44.0533L14.1413 44.6872C14.5074 44.969 14.7844 45.3499 14.939 45.7844L15.6927 45.5161ZM14.6292 44.0533L15.1171 43.4192L11.3173 40.4954L10.8294 41.1294L10.3416 41.7635L14.1414 44.6873L14.6292 44.0533ZM10.8294 41.1294L11.3174 40.4955C10.5323 39.8912 10.1995 38.866 10.4796 37.915L9.71223 37.689L8.94483 37.463C8.47824 39.047 9.03229 40.7558 10.3415 41.7634L10.8294 41.1294ZM9.71223 37.689L10.4796 37.915L11.8341 33.3154L11.0667 33.0894L10.2993 32.8634L8.94481 37.463L9.71223 37.689ZM11.0667 33.0894L11.8341 33.3155C12.0515 32.5775 12.0516 31.7927 11.8341 31.0547L11.0667 31.2808L10.2993 31.5069C10.4298 31.9496 10.4298 32.4205 10.2993 32.8633L11.0667 33.0894ZM11.0667 31.2808L11.8341 31.0548L10.4796 26.4561L9.71223 26.6822L8.94483 26.9082L10.2993 31.5068L11.0667 31.2808ZM9.71223 26.6822L10.4796 26.456C10.1995 25.5053 10.5324 24.48 11.3174 23.8756L10.8294 23.2417L10.3414 22.6078C9.03257 23.6155 8.47806 25.3241 8.94485 26.9083L9.71223 26.6822ZM10.8294 23.2417L11.3174 23.8757L15.1172 20.9509L14.6292 20.3169L14.1413 19.683L10.3415 22.6078L10.8294 23.2417ZM14.6292 20.3169L15.1172 20.9509C15.7264 20.482 16.1884 19.8474 16.4464 19.1222L15.6927 18.854L14.939 18.5859C14.7844 19.0203 14.5074 19.4011 14.1413 19.683L14.6292 20.3169ZM15.6927 18.854L16.4465 19.1221L18.0529 14.6045L17.2991 14.3365L16.5454 14.0684L14.9389 18.586L15.6927 18.854ZM17.2991 14.3365L18.0529 14.6046C18.385 13.6711 19.2572 13.0376 20.248 13.0102L20.2259 12.2105L20.2038 11.4108C18.5529 11.4565 17.0991 12.512 16.5454 14.0683L17.2991 14.3365ZM20.2259 12.2105L20.2481 13.0102L25.041 12.8774L25.0189 12.0777L24.9967 11.278L20.2037 11.4108L20.2259 12.2105ZM25.0189 12.0777L25.041 12.8774C25.8096 12.8561 26.5567 12.6142 27.1918 12.179L26.7396 11.5191L26.2874 10.8591C25.907 11.1198 25.4586 11.2652 24.9967 11.278L25.0189 12.0777ZM26.7396 11.5191L27.1918 12.179L31.1468 9.46906L30.6947 8.80912L30.2425 8.14917L26.2874 10.8591L26.7396 11.5191ZM32.8538 19.2915L33.5557 18.9076C33.101 18.0763 31.9049 18.0741 31.4495 18.9082L32.1517 19.2915L32.8539 19.6749C32.7016 19.9537 32.3032 19.9519 32.152 19.6755L32.8538 19.2915ZM32.1517 19.2915L31.4493 18.9085L27.6739 25.8314L28.3763 26.2144L29.0786 26.5974L32.854 19.6746L32.1517 19.2915ZM28.3763 26.2144L27.674 25.8314C27.7302 25.7282 27.831 25.6528 27.9517 25.6302L28.099 26.4165L28.2462 27.2029C28.6031 27.136 28.9073 26.9116 29.0786 26.5974L28.3763 26.2144ZM28.099 26.4165L27.9517 25.6302L20.2008 27.0814L20.348 27.8677L20.4952 28.654L28.2462 27.2029L28.099 26.4165ZM20.348 27.8677L20.2003 27.0815C19.2667 27.2568 18.8979 28.3954 19.5498 29.0852L20.1312 28.5357L20.7126 27.9862C20.9297 28.2159 20.8071 28.5955 20.4956 28.654L20.348 27.8677ZM20.1312 28.5357L19.5498 29.0852L24.9668 34.8157L25.5482 34.2661L26.1295 33.7166L20.7125 27.9861L20.1312 28.5357ZM25.5482 34.2661L24.9668 34.8157C24.8859 34.7301 24.8455 34.6108 24.8613 34.4894L25.6546 34.5923L26.448 34.6953C26.4946 34.3355 26.3755 33.9769 26.1295 33.7166L25.5482 34.2661ZM25.6546 34.5923L24.8613 34.4894L23.8466 42.3087L24.64 42.4117L25.4333 42.5146L26.448 34.6953L25.6546 34.5923ZM24.64 42.4117L23.8466 42.3087C23.7244 43.2502 24.6928 43.955 25.5514 43.5475L25.2083 42.8247L24.8653 42.102C25.1517 41.966 25.474 42.2011 25.4333 42.5146L24.64 42.4117ZM25.2083 42.8247L25.5514 43.5474L32.6745 40.1656L32.3314 39.4429L31.9883 38.7202L24.8652 42.1021L25.2083 42.8247ZM32.3314 39.4429L32.6744 40.1656C32.5659 40.2171 32.4406 40.2171 32.3321 40.1656L32.6751 39.4429L33.0182 38.7202C32.6925 38.5656 32.314 38.5656 31.9883 38.7202L32.3314 39.4429ZM32.6751 39.4429L32.332 40.1656L39.4551 43.5474L39.7982 42.8247L40.1413 42.1021L33.0182 38.7202L32.6751 39.4429ZM39.7982 42.8247L39.4551 43.5475C40.3137 43.955 41.282 43.2502 41.1599 42.3087L40.3665 42.4117L39.5732 42.5146C39.5325 42.2011 39.8548 41.966 40.1412 42.102L39.7982 42.8247ZM40.3665 42.4117L41.1599 42.3087L40.1452 34.4894L39.3519 34.5923L38.5585 34.6953L39.5732 42.5146L40.3665 42.4117ZM39.3519 34.5923L40.1452 34.4894C40.1605 34.6071 40.1226 34.7268 40.0394 34.8149L39.4573 34.2661L38.8753 33.7174C38.6275 33.9801 38.5124 34.3396 38.5585 34.6953L39.3519 34.5923ZM39.4573 34.2661L40.0387 34.8158L45.4566 29.0853L44.8753 28.5357L44.294 27.9861L38.876 33.7165L39.4573 34.2661ZM44.8753 28.5357L45.4569 29.085C46.1084 28.3951 45.7393 27.2572 44.8066 27.0815L44.6585 27.8677L44.5105 28.6539C44.1994 28.5953 44.0766 28.2163 44.2937 27.9864L44.8753 28.5357ZM44.6585 27.8677L44.8057 27.0814L37.0548 25.6302L36.9075 26.4165L36.7603 27.2029L44.5113 28.654L44.6585 27.8677ZM36.9075 26.4165L37.0548 25.6302C37.1755 25.6528 37.2763 25.7282 37.3325 25.8314L36.6302 26.2144L35.9279 26.5974C36.0992 26.9116 36.4034 27.136 36.7603 27.2029L36.9075 26.4165ZM36.6302 26.2144L37.3325 25.8313L33.5561 18.9084L32.8538 19.2915L32.1515 19.6746L35.9279 26.5975L36.6302 26.2144Z"
    fill="currentColor" mask="url(#path-1-inside-1_14491_32770)" />
</svg>
