<svg width="52" height="52" viewBox="0 0 52 52" fill="none" xmlns="http://www.w3.org/2000/svg">
  <path fill-rule="evenodd" clip-rule="evenodd"
    d="M24.1487 7.70012C25.5112 6.76656 27.3075 6.7667 28.6701 7.70012L30.7522 9.12687C31.3868 9.56171 32.1336 9.80381 32.9026 9.82512L35.426 9.89543C37.077 9.94117 38.5305 10.9966 39.0842 12.5527L39.9299 14.9306C40.1878 15.6555 40.6493 16.2904 41.259 16.7597L43.259 18.2997C44.5677 19.3072 45.1231 21.0153 44.6565 22.5995L43.9426 25.0204C43.7251 25.7585 43.7251 26.5441 43.9426 27.2821L44.6565 29.7021C45.1233 31.2865 44.5679 32.9954 43.259 34.0029L41.259 35.5419C40.6493 36.0112 40.1878 36.6471 39.9299 37.372L39.0842 39.7489C38.5306 41.3052 37.0771 42.3614 35.426 42.4072L32.9026 42.4765C32.1336 42.4978 31.3868 42.7409 30.7522 43.1757L28.6701 44.6025C27.3076 45.5358 25.5112 45.5359 24.1487 44.6025L22.0666 43.1757C21.4319 42.7408 20.6853 42.4977 19.9162 42.4765L17.3938 42.4072C15.7425 42.3616 14.2892 41.3053 13.7356 39.7489L12.8899 37.372C12.632 36.6471 12.1705 36.0112 11.5608 35.5419L9.56076 34.0029C8.25167 32.9954 7.6964 31.2866 8.1633 29.7021L8.87619 27.2821C9.09367 26.5441 9.09367 25.7585 8.87619 25.0204L8.1633 22.5995C7.69652 21.0151 8.25176 19.3071 9.56076 18.2997L11.5608 16.7597C12.1703 16.2905 12.6321 15.6553 12.8899 14.9306L13.7356 12.5527C14.2893 10.9965 15.7427 9.94102 17.3938 9.89543L19.9162 9.82512C20.6853 9.80388 21.4319 9.56169 22.0666 9.12687L24.1487 7.70012ZM26.8488 15.956C26.6594 15.6086 26.1605 15.6087 25.9709 15.956L23.0969 21.2265C23.025 21.3583 22.8969 21.4508 22.7492 21.4784L16.8488 22.5829C16.4602 22.6559 16.306 23.1303 16.5774 23.4179L20.7024 27.7802C20.8054 27.8893 20.8535 28.0395 20.8342 28.1884L20.0617 34.1415C20.0111 34.5338 20.4152 34.8268 20.7727 34.6571L26.1955 32.0829C26.3312 32.0187 26.4886 32.0186 26.6242 32.0829L32.0471 34.6571C32.4045 34.8268 32.8077 34.5338 32.7571 34.1415L31.9846 28.1884C31.9653 28.0394 32.0142 27.8893 32.1174 27.7802L36.2414 23.4179C36.5131 23.1303 36.3589 22.6558 35.9699 22.5829L30.0696 21.4784C29.9221 21.4508 29.7948 21.3582 29.7229 21.2265L26.8488 15.956Z"
    fill="url(#paint0_radial_16576_7386)" />
  <defs>
    <radialGradient id="paint0_radial_16576_7386" cx="0" cy="0" r="1"
      gradientTransform="matrix(24.5006 46.5 -108.954 57.4042 23.5004 10.6514)"
      gradientUnits="userSpaceOnUse">
      <stop stop-color="#C9ACFF" stop-opacity="0.7" />
      <stop offset="0.955453" stop-color="#6822FF" stop-opacity="0.8" />
    </radialGradient>
  </defs>
</svg>
