<svg width="24" height="24" viewBox="0 0 24 24" fill="currentColor" xmlns="http://www.w3.org/2000/svg">
<path fill-rule="evenodd" d="M2.55572 22.5C2.10337 22.4999 1.65915 22.3774 1.2684 22.1449C0.877652 21.9125 0.554375 21.5784 0.331573 21.1768C0.108771 20.7752 -0.0055754 20.3205 0.00020906 19.8591C0.00599352 19.3978 0.131701 18.9462 0.364497 18.5506L9.81738 2.76552C10.0445 2.37954 10.3657 2.06011 10.7497 1.83833C11.1337 1.61656 11.5675 1.5 12.0088 1.5C12.4501 1.5 12.8839 1.61656 13.2679 1.83833C13.6519 2.06011 13.9731 2.37954 14.2002 2.76552L23.6355 18.5506C23.8683 18.9462 23.994 19.3978 23.9998 19.8591C24.0056 20.3205 23.8912 20.7752 23.6684 21.1768C23.4456 21.5784 23.1223 21.9125 22.7316 22.1449C22.3409 22.3774 21.8966 22.4999 21.4443 22.5H2.55572ZM10.4059 8.49586C10.3449 7.55079 11.0794 6.75 12.0072 6.75C12.9362 6.75 13.6711 7.55275 13.6083 8.49891L13.0972 12.7034C13.0581 13.2925 12.5786 13.75 12.0001 13.75C11.4209 13.75 10.941 13.2913 10.903 12.7013L10.4059 8.49586ZM12.0088 15.5C11.062 15.5 10.2933 16.2835 10.2933 17.25C10.2933 18.2165 11.062 19 12.0088 19C12.9556 19 13.7243 18.2165 13.7243 17.25C13.7243 16.2835 12.9556 15.5 12.0088 15.5Z" />
</svg>
