<svg width="21" height="20" viewBox="0 0 21 20" fill="currentColor" xmlns="http://www.w3.org/2000/svg">
	<path d="M5.39329 17.0182C5.08974 17.0182 4.89648 16.6941 5.04205 16.4277C5.60765 15.3928 6.58406 13.614 6.64856 13.5495C6.84533 13.3536 9.65946 14.7913 9.83163 14.961C9.85443 14.9836 10.159 15.8503 10.3811 16.4877C10.4715 16.7473 10.2785 17.0182 10.0035 17.0182H5.39329Z" />
	<path d="M6.20148 10.5734C7.34015 13.693 11.1801 14.5705 13.5804 12.741C14.0434 12.385 14.0593 12.1808 13.5529 11.858C13.0512 11.5381 12.558 11.2142 12.0607 10.8875L12.0468 10.8784L10.5608 9.89876C10.5608 9.89876 10.9804 9.2558 11.005 9.21993C11.0546 9.17422 11.1168 9.14309 11.1844 9.13024C11.3805 9.07977 11.5488 8.95947 11.6546 8.79414C11.7604 8.62881 11.7956 8.43107 11.753 8.2417C11.7329 8.14838 11.6933 8.05986 11.6367 7.98133C11.5801 7.90281 11.5076 7.83586 11.4235 7.78444C11.3394 7.73302 11.2453 7.69816 11.1469 7.68191C11.0484 7.66566 10.9476 7.66834 10.8502 7.6898C10.4408 7.78639 10.2237 8.16443 10.2961 8.59353C10.3118 8.70123 10.2963 8.81099 10.2512 8.91087C10.1939 9.03279 10.1194 9.14548 10.046 9.25645C9.99901 9.32757 9.95246 9.39798 9.91121 9.46966C9.53861 9.2331 9.1763 9.00341 8.82003 8.77755C8.14148 8.34737 7.48484 7.93109 6.82073 7.50768C6.34472 7.20414 6.14939 7.28278 6.02641 7.83468C5.81535 8.74527 5.876 9.69404 6.20148 10.5734Z" />
	<path d="M12.3695 6.32975C11.9464 6.084 11.4524 5.97275 10.9587 6.01205C10.5493 6.04792 10.5319 6.07 10.6274 6.44667C10.6533 6.54884 10.7766 6.53405 10.96 6.51207C10.992 6.50823 11.0259 6.50417 11.0615 6.50047C11.4163 6.46075 11.775 6.53127 12.0845 6.70154C12.3939 6.87182 12.6374 7.13277 12.7789 7.44559C12.7984 7.48803 12.8154 7.52715 12.8308 7.56272C12.9092 7.74338 12.9478 7.83246 13.0784 7.80018L13.1637 7.77949C13.401 7.71878 13.4357 7.65393 13.3402 7.44283C13.3323 7.4267 13.3253 7.40972 13.3185 7.39322C13.3166 7.38855 13.3147 7.38393 13.3128 7.37936C13.1229 6.94303 12.7926 6.57549 12.3695 6.32975Z" />
	<path d="M14.1707 7.53114L14.3038 7.49802C14.6713 7.40144 14.7234 7.29796 14.573 6.95717C14.557 6.92267 14.544 6.88818 14.531 6.85369C14.2418 6.16249 13.7304 5.57648 13.0701 5.17984C12.4098 4.7832 11.6346 4.59634 10.856 4.64611C10.2194 4.69854 10.1933 4.73304 10.3453 5.33598C10.3872 5.49929 10.5791 5.47751 10.863 5.4453C10.9124 5.43968 10.9647 5.43375 11.0195 5.42842C11.5801 5.37284 12.1446 5.49222 12.628 5.76862C13.1114 6.04503 13.4878 6.46354 13.7005 6.96131C13.7262 7.02014 13.7492 7.07499 13.7704 7.12562C13.8985 7.4312 13.9622 7.58321 14.1707 7.53114Z" />
	<path d="M15.8042 7.12273L16.0068 7.07306V7.06892C16.2614 6.99994 16.3323 6.87576 16.2441 6.64259C15.8636 5.57881 15.2515 4.68475 14.3169 4.02109C13.0668 3.13393 11.6778 2.79865 10.1441 3.0746C9.89963 3.11737 9.82005 3.23603 9.87504 3.47334C9.89024 3.53963 9.9069 3.60385 9.92373 3.66877C9.94054 3.73355 9.95752 3.79903 9.97342 3.86794C10.0255 4.07352 10.1543 4.13699 10.367 4.10388C12.1437 3.83759 13.5471 4.43639 14.6033 5.81613C14.8299 6.1536 15.0194 6.51238 15.1691 6.8868C15.3051 7.1793 15.376 7.22897 15.6928 7.15033L15.8042 7.12273Z" />
</svg>
