<svg width="24" height="24" viewBox="0 0 24 24" fill="none" xmlns="http://www.w3.org/2000/svg">
<rect width="24" height="24" rx="12" fill="black"/>
<path d="M5 21C5 21 7.30206 16.5358 7.41565 16.4248C7.6504 16.1789 11.0429 17.9948 11.2549 18.2168C11.3004 18.2644 12.194 21 12.194 21H5ZM15.7531 15.3939C12.8679 17.7173 8.24106 16.6071 6.87042 12.6425C6.47666 11.5007 6.4085 10.343 6.65839 9.16943C6.80985 8.46372 7.0446 8.36857 7.61254 8.75711C8.83173 9.57383 10.0282 10.3747 11.3307 11.2469C11.4594 11.017 11.626 10.787 11.7396 10.5333C11.7926 10.4143 11.8153 10.2637 11.7926 10.1289C11.7093 9.58176 11.9743 9.106 12.459 8.97913C12.9437 8.86019 13.4282 9.16943 13.5494 9.68487C13.663 10.1844 13.3677 10.6443 12.8679 10.8108C12.7543 10.8505 12.6786 10.8822 12.6483 10.9218C12.618 10.9694 12.1107 11.7861 12.1107 11.7861C12.1107 11.7861 13.4661 12.7297 13.8978 13.0231C14.5036 13.4433 15.1018 13.8557 15.7076 14.268C16.2983 14.6645 16.2983 14.9341 15.7379 15.386L15.7531 15.3939ZM12.5953 6.85407C13.7993 6.74305 14.9958 7.47255 15.4274 8.59059C15.435 8.61438 15.4502 8.6461 15.4577 8.66989C15.5713 8.93948 15.5335 9.01877 15.2457 9.09807L15.1397 9.12186C14.9504 9.16943 14.9201 9.00292 14.7762 8.66989C14.4203 7.85317 13.6024 7.37741 12.7089 7.47255C12.4211 7.50427 12.2242 7.55185 12.1864 7.40119C12.0728 6.92543 12.0879 6.89371 12.5877 6.84614L12.5953 6.85407ZM16.6239 8.73332L16.4649 8.77297C16.1696 8.85226 16.1241 8.57473 15.897 8.0514C15.3366 6.74305 14.0492 5.96598 12.671 6.10871C12.2242 6.15629 11.9213 6.23558 11.8608 5.98977C11.679 5.22855 11.7093 5.18098 12.4741 5.10961C14.3445 4.9431 16.215 6.1325 16.8965 7.9166C16.9116 7.95625 16.9268 8.00382 16.9495 8.04347C17.1312 8.47165 17.0707 8.60645 16.6239 8.72539V8.73332ZM18.6761 8.19413C18.5928 8.21791 18.5171 8.23377 18.4338 8.25756C18.3883 8.26549 18.3429 8.28135 18.2974 8.28927C17.9188 8.39236 17.8279 8.32099 17.6689 7.95625C17.4644 7.48841 17.2827 6.99679 16.9874 6.60033C15.7152 4.84795 14.0189 4.08673 11.891 4.42769C11.6336 4.46734 11.4821 4.38805 11.414 4.12637C11.3761 3.95986 11.3307 3.79335 11.2928 3.62683C11.2247 3.32551 11.3231 3.17486 11.6184 3.11935C13.4661 2.77046 15.1397 3.19071 16.6391 4.32461C17.7674 5.16512 18.5019 6.29901 18.9563 7.647C19.0623 7.95625 18.979 8.11483 18.6685 8.20205L18.6761 8.19413Z" fill="white"/>
</svg>
