<svg width="24" height="24" viewBox="0 0 24 24" fill="none" xmlns="http://www.w3.org/2000/svg">
<path fill-rule="evenodd" clip-rule="evenodd" d="M18 12C18 15.3137 15.3137 18 12 18C8.68629 18 6 15.3137 6 12C6 8.68629 8.68629 6 12 6C15.3137 6 18 8.68629 18 12ZM11.999 8.84961C12.4132 8.84961 12.749 9.1854 12.749 9.59961V11.249H14.3996C14.8138 11.249 15.1496 11.5848 15.1496 11.999C15.1496 12.4132 14.8138 12.749 14.3996 12.749H12.749V14.3996C12.749 14.8138 12.4132 15.1496 11.999 15.1496C11.5848 15.1496 11.249 14.8138 11.249 14.3996V12.749H9.59961C9.1854 12.749 8.84961 12.4132 8.84961 11.999C8.84961 11.5848 9.1854 11.249 9.59961 11.249H11.249V9.59961C11.249 9.1854 11.5848 8.84961 11.999 8.84961Z" fill="#00A3FF"/>
</svg>
