<svg width="20" height="20" viewBox="0 0 20 20" fill="none" xmlns="http://www.w3.org/2000/svg">
<path d="M10 2C5.58172 2 2 5.58172 2 10C2 14.4183 5.58172 18 10 18C14.4183 18 18 14.4183 18 10C18 5.58172 14.4183 2 10 2ZM10 4C13.3137 4 16 6.68629 16 10C16 13.3137 13.3137 16 10 16C6.68629 16 4 13.3137 4 10C4 6.68629 6.68629 4 10 4ZM10 6C9.44772 6 9 6.44772 9 7V10.0858L11.2071 12.2929C11.5976 12.6834 12.2308 12.6834 12.6213 12.2929C13.0118 11.9024 13.0118 11.2692 12.6213 10.8787L11 9.25736V7C11 6.44772 10.5523 6 10 6Z" fill="currentColor"/>
</svg>