<svg width="21" height="20" viewBox="0 0 21 20" fill="none" stroke="currentColor" xmlns="http://www.w3.org/2000/svg">
	<path d="M9.9107 12.8737C7.38256 12.8871 4.82546 11.9085 2.34069 9.86071C4.7955 7.86257 7.33748 6.85763 9.86479 6.84428C12.3929 6.83091 14.95 7.80953 17.4348 9.85728C14.98 11.8554 12.438 12.8604 9.9107 12.8737Z" stroke-width="0.7" />
	<path d="M9.50586 13.2694V15.3035L6.98055 11.7601L9.50586 13.2694ZM10.2059 13.271L12.7845 11.7529L10.2059 15.3169V13.271ZM9.85717 12.1119L6.21635 10.0147L9.85809 4.25401L13.5548 10.0139L9.85717 12.1119Z" stroke-width="0.7" />
	<path d="M18.4773 9.40385L19.8043 8.38787M17.7682 8.60766L18.8795 7.54606M16.9429 7.89025L17.793 6.87012" stroke-width="0.7" stroke-linecap="round" />
</svg>
