<svg width="24" height="24" viewBox="0 0 24 24" fill="currentColor" xmlns="http://www.w3.org/2000/svg">
	<path fill-rule="evenodd" clip-rule="evenodd" d="M19.398 9.246C19.3887 9.16332 19.3706 9.08187 19.344 9.003V8.922C19.3008 8.82946 19.2431 8.7444 19.173 8.67L13.773 3.27C13.6986 3.19999 13.6136 3.14227 13.521 3.099H13.44L13.152 3H7.69805C6.20688 3 4.99805 4.20883 4.99805 5.7V18.3C4.99805 19.7912 6.20688 21 7.69805 21H16.698C18.1892 21 19.398 19.7912 19.398 18.3V9.3V9.246ZM13.998 6.06892L16.329 8.39992H13.998V6.06892ZM16.698 19.2C17.1951 19.2 17.598 18.7971 17.598 18.3V10.2H13.098C12.601 10.2 12.198 9.79706 12.198 9.3V4.8H7.69805C7.20099 4.8 6.79805 5.20294 6.79805 5.7V18.3C6.79805 18.7971 7.20099 19.2 7.69805 19.2H16.698Z" />
</svg>
