<svg width="21" height="20" viewBox="0 0 21 20" fill="none" xmlns="http://www.w3.org/2000/svg">
  <path d="M14.8086 12.1992L14.5449 12.3398L10.9521 14.2617L10.7168 14.3877L10.4814 14.2627L7.05762 12.4414L6.79004 12.2998L6.79199 11.9971L6.81348 7.94434L6.81543 7.65332L7.06934 7.51074L10.4717 5.6084L10.7031 5.47949L10.9395 5.59766L14.5322 7.39746L14.8086 7.53613V12.1992Z" stroke="currentColor"/>
  <path d="M16.999 6.43262V13.4541L10.7158 17.0596L4.60156 13.4541V6.43262L10.7158 2.93262L16.999 6.43262Z" stroke="currentColor"/>
  <path d="M16.5336 6.55664L16.5998 13.2722L14.309 11.9012V9.65807L10.7172 11.5214L10.7162 11.5165V11.5204L7.29337 9.71471V12.0057L5.00129 13.3569L4.95703 6.63994L10.7377 9.7235L10.7367 9.73424L10.7397 9.72545L16.5336 6.55664Z" fill="currentColor"/>
</svg>
