<svg width="24" height="24" viewBox="0 0 24 24" fill="none" xmlns="http://www.w3.org/2000/svg">
<rect width="24" height="24" rx="12" fill="#000A3D" fill-opacity="0.12"/>
<path d="M12.1591 2.09847L20.4753 6.73103L20.7905 6.90656V16.9159L20.4822 17.0929L12.1659 21.8649L11.8561 22.043L11.5485 21.8616L3.45544 17.0893L3.15332 16.9111V6.91136L3.46225 6.73449L11.5553 2.10193L11.8562 1.92969L12.1591 2.09847ZM4.38123 7.62332V16.2096L11.8045 20.5868V17.0627H11.9161V20.5924L19.5626 16.2048V7.6562L17.2458 8.96247L17.191 8.86524L19.4734 7.57834L11.8644 3.33983L4.38123 7.62332Z" fill="#090414"/>
<path d="M20.7906 6.90735H20.8185V6.89094L20.8042 6.88296L20.7906 6.90735ZM20.7906 16.9167L20.8045 16.9409L20.8185 16.9329V16.9167H20.7906ZM11.8562 22.0438L11.842 22.0678L11.856 22.0756L11.8701 22.0678L11.8562 22.0438ZM3.1534 16.9119H3.12549V16.9278L3.13922 16.9359L3.1534 16.9119ZM3.1534 6.91215L3.13955 6.88792L3.12549 6.89596V6.91215H3.1534ZM11.8563 1.93047L11.8699 1.90608L11.8561 1.89844L11.8424 1.90625L11.8563 1.93047ZM4.3813 7.62411L4.36746 7.59989L4.3534 7.60792V7.62411H4.3813ZM4.3813 16.2104H4.3534V16.2263L4.36713 16.2345L4.3813 16.2104ZM11.8046 20.5876L11.7904 20.6116L11.8325 20.6361V20.5876H11.8046ZM11.8046 17.0635V17.0356H11.7767V17.0635H11.8046ZM11.9162 17.0635H11.9441V17.0356H11.9162V17.0635ZM11.9162 20.5932H11.8883V20.6417L11.9301 20.6177L11.9162 20.5932ZM19.5627 16.2056L19.5766 16.2298L19.5906 16.2217V16.2056H19.5627ZM19.5627 7.65698H19.5906V7.60921L19.549 7.63265L19.5627 7.65698ZM17.2459 8.96325L17.2216 8.97698L17.2353 9.00126L17.2596 8.98759L17.2459 8.96325ZM17.1911 8.86603L17.1774 8.84169L17.1531 8.85542L17.1668 8.87976L17.1911 8.86603ZM19.4735 7.57913L19.4872 7.60346L19.5306 7.57901L19.4871 7.55473L19.4735 7.57913ZM11.8645 3.34061L11.8781 3.31622L11.8643 3.30857L11.8507 3.31639L11.8645 3.34061ZM12.1591 2.09925L12.1455 2.12359L20.4618 6.75615L20.4754 6.73181L20.489 6.70742L12.1727 2.07486L12.1591 2.09925ZM20.4754 6.73181L20.4618 6.75615L20.777 6.93174L20.7906 6.90735L20.8042 6.88296L20.489 6.70742L20.4754 6.73181ZM20.7906 6.90735H20.7627V16.9167H20.7906H20.8185V6.90735H20.7906ZM20.7906 16.9167L20.7767 16.8925L20.4683 17.0694L20.4822 17.0937L20.4961 17.1179L20.8045 16.9409L20.7906 16.9167ZM20.4822 17.0937L20.4683 17.0694L12.1521 21.8417L12.166 21.8657L12.1798 21.8897L20.4961 17.1179L20.4822 17.0937ZM12.166 21.8657L12.1521 21.8417L11.8423 22.0192L11.8562 22.0438L11.8701 22.0678L12.1798 21.8897L12.166 21.8657ZM11.8562 22.0438L11.8704 22.0192L11.5627 21.8378L11.5485 21.8624L11.5344 21.8864L11.842 22.0678L11.8562 22.0438ZM11.5485 21.8624L11.5627 21.8378L3.46969 17.066L3.45552 17.09L3.44134 17.114L11.5344 21.8864L11.5485 21.8624ZM3.45552 17.09L3.46969 17.066L3.16757 16.8878L3.1534 16.9119L3.13922 16.9359L3.44134 17.114L3.45552 17.09ZM3.1534 16.9119H3.1813V6.91215H3.1534H3.12549V16.9119H3.1534ZM3.1534 6.91215L3.16724 6.93637L3.47622 6.7595L3.46233 6.73527L3.44848 6.71105L3.13955 6.88792L3.1534 6.91215ZM3.46233 6.73527L3.47622 6.7595L11.5692 2.12694L11.5553 2.10272L11.5415 2.07849L3.44848 6.71105L3.46233 6.73527ZM11.5553 2.10272L11.5692 2.12694L11.8701 1.9547L11.8563 1.93047L11.8424 1.90625L11.5415 2.07849L11.5553 2.10272ZM11.8563 1.93047L11.8427 1.95486L12.1455 2.12359L12.1591 2.09925L12.1727 2.07486L11.8699 1.90608L11.8563 1.93047ZM4.3813 7.62411H4.3534V16.2104H4.3813H4.40921V7.62411H4.3813ZM4.3813 16.2104L4.36713 16.2345L11.7904 20.6116L11.8046 20.5876L11.8187 20.5636L4.39548 16.1864L4.3813 16.2104ZM11.8046 20.5876H11.8325V17.0635H11.8046H11.7767V20.5876H11.8046ZM11.8046 17.0635V17.0914H11.9162V17.0635V17.0356H11.8046V17.0635ZM11.9162 17.0635H11.8883V20.5932H11.9162H11.9441V17.0635H11.9162ZM11.9162 20.5932L11.9301 20.6177L19.5766 16.2298L19.5627 16.2056L19.5488 16.1813L11.9023 20.5692L11.9162 20.5932ZM19.5627 16.2056H19.5906V7.65698H19.5627H19.5348V16.2056H19.5627ZM19.5627 7.65698L19.549 7.63265L17.2322 8.93897L17.2459 8.96325L17.2596 8.98759L19.5764 7.68126L19.5627 7.65698ZM17.2459 8.96325L17.2703 8.94952L17.2154 8.8523L17.1911 8.86603L17.1668 8.87976L17.2216 8.97698L17.2459 8.96325ZM17.1911 8.86603L17.2048 8.89031L19.4872 7.60346L19.4735 7.57913L19.4598 7.55485L17.1774 8.84169L17.1911 8.86603ZM19.4735 7.57913L19.4871 7.55473L11.8781 3.31622L11.8645 3.34061L11.8509 3.365L19.4599 7.60351L19.4735 7.57913ZM11.8645 3.34061L11.8507 3.31639L4.36746 7.59989L4.3813 7.62411L4.39514 7.64833L11.8784 3.36483L11.8645 3.34061Z" fill="#090414"/>
<path d="M19.5349 16.1411L16.5737 14.553L16.6534 9.31954L19.4791 7.79688L19.5349 11.955V16.1411Z" stroke="black" stroke-width="0.111628"/>
<path d="M11.8604 20.7154V17.0317L16.6045 14.4922L19.6185 16.2224L15.7394 18.4271L11.8604 20.7154Z" fill="#757575"/>
<path d="M4.2417 16.1404L7.33937 14.4102L9.54402 15.7497L11.8603 17.0334V20.7171L8.03705 18.5404L4.2417 16.1404Z" fill="#464646"/>
<path d="M19.6189 16.226L16.605 14.4957V11.9004V9.41664L19.6189 7.54688V9.69571V10.7562V11.8166V16.226Z" fill="#FF6600"/>
<path d="M4.2417 16.1444L7.33937 14.5816V11.9863V9.30723L4.2417 7.63281V11.8468V16.1444Z" fill="#FF6600"/>
<path d="M11.8604 6.76515V3.30469L15.5839 5.44504L19.6185 7.5744L18.7813 8.02091L17.972 8.43957L16.5487 9.36045L14.065 7.96515L11.8604 6.76515Z" fill="#A19FA0"/>
<path d="M11.8603 3.30469V6.76515L9.4324 8.13259L7.36728 9.27678L5.79054 8.46748L4.2417 7.63027L7.99865 5.57185L11.8603 3.30469Z" fill="#757575"/>
<path d="M7.33936 9.30516L11.8603 6.76562L14.0928 7.96563L16.6045 9.41679L11.8603 11.6214L7.33936 9.30516Z" fill="white"/>
<path d="M11.8603 11.621L7.33936 9.30469V14.607L11.8603 17.0349V11.621Z" fill="#D9D9D9"/>
<path d="M11.8603 11.621L7.33936 9.30469V14.607L11.8603 17.0349V11.621Z" fill="#D9D9D9"/>
<path d="M11.8604 11.6226L16.6045 9.41797V14.497L14.1766 15.8087L11.8604 17.0366V11.6226Z" fill="#ECECEC"/>
<path d="M11.8897 11.6207L19.6629 7.57422L19.6096 9.97366L11.8604 13.9928L11.8897 11.6207Z" fill="#FF8C00"/>
<path d="M11.8875 11.6235L4.2417 7.63281V9.977L11.8596 13.9956L11.8875 11.6235Z" fill="#FF8C00"/>
</svg>
