<svg width="14" height="14" viewBox="0 0 14 14" fill="currentColor" xmlns="http://www.w3.org/2000/svg">
	<path fill-rule="evenodd" clip-rule="evenodd" d="M7.58317 3.49984C7.58317 3.17767 7.322 2.9165 6.99984 2.9165C6.67767 2.9165 6.4165 3.17767 6.4165 3.49984V6.4165H3.49984C3.17767 6.4165 2.9165 6.67767 2.9165 6.99984C2.9165 7.322 3.17767 7.58317 3.49984 7.58317H6.4165V10.4998C6.4165 10.822 6.67767 11.0832 6.99984 11.0832C7.322 11.0832 7.58317 10.822 7.58317 10.4998V7.58317H10.4998C10.822 7.58317 11.0832 7.322 11.0832 6.99984C11.0832 6.67767 10.822 6.4165 10.4998 6.4165H7.58317V3.49984Z" />
</svg>
