<svg width="24" height="24" viewBox="0 0 24 24" fill="none" xmlns="http://www.w3.org/2000/svg">
<rect width="24" height="24" rx="12" fill="black"/>
<path d="M19.3751 7.51404C19.3683 7.39108 19.3955 7.25445 19.4158 7.12467C19.4497 6.94022 19.4904 6.74894 19.4226 6.60549C19.3819 6.50985 19.253 6.42104 19.1172 6.33224C18.9816 6.2366 18.8187 6.13414 18.7169 5.98384C18.6219 5.85406 18.5812 5.68327 18.5405 5.52615C18.4997 5.35537 18.4591 5.19825 18.3641 5.10262C18.2691 5.00698 18.113 4.96599 17.9434 4.925C17.7873 4.88402 17.6177 4.84303 17.4887 4.74739C17.3395 4.6381 17.2377 4.48098 17.1427 4.34435C17.0544 4.20773 16.9662 4.07793 16.8713 4.03695C16.722 3.96863 16.532 4.00962 16.3556 4.04378C16.2266 4.0711 16.091 4.09843 15.9689 4.08477C15.867 4.07793 15.7653 4.05744 15.6703 4.04378C15.555 4.02328 15.4464 4.00962 15.3514 4.00962C15.2632 4.00962 15.1817 4.02328 15.1139 4.06427C15.0257 4.11892 14.9646 4.24871 14.9103 4.35801L14.1843 5.84039C14.8017 6.05899 15.4192 6.27076 16.0502 6.50302C16.4438 6.6738 16.7695 6.98804 16.9391 7.38425C17.0884 7.7668 17.2106 8.12202 17.353 8.49091L17.6448 9.31065L19.1037 8.58654C19.2258 8.5319 19.3412 8.46359 19.4022 8.36111C19.4837 8.23133 19.4497 8.03322 19.4158 7.80778C19.3955 7.71215 19.3819 7.60968 19.3751 7.51404Z" fill="white"/>
<path d="M10.3234 16.019C10.2352 15.7526 10.1606 15.5545 10.0724 15.3631C9.87559 14.9396 9.61775 14.5503 9.31241 14.195C8.9935 13.8398 8.61352 13.5461 8.19962 13.3411C8.01641 13.2523 7.79927 13.1772 7.53465 13.102C7.50751 13.0952 7.48036 13.0952 7.44644 13.0952C7.38537 13.0952 7.31751 13.1088 7.24966 13.1294C7.15467 13.1566 6.96468 13.2659 6.8629 13.3343C6.03509 13.874 5.5194 14.1882 4.66445 14.6527C4.66445 14.6527 4.65766 14.6596 4.65088 14.6596C4.67802 14.6596 4.69838 14.6664 4.72552 14.6664C4.8273 14.68 4.92229 14.6868 5.01728 14.6868C5.09871 14.6868 5.20049 14.6596 5.30227 14.6322C5.43119 14.5981 5.58047 14.5571 5.7501 14.5571C5.87224 14.5571 5.9808 14.5775 6.08937 14.6186C6.3065 14.721 6.42185 14.885 6.51685 15.0079L6.55077 15.0557C6.6322 15.1719 6.7204 15.3017 6.80861 15.3563C6.88326 15.4042 7.01896 15.4383 7.16146 15.4724L7.20216 15.4861C7.3718 15.5339 7.57536 15.5886 7.75857 15.7594C7.93498 15.9438 7.98927 16.1556 8.03677 16.3264L8.05033 16.3741C8.08427 16.5108 8.11819 16.6475 8.16568 16.7226C8.22676 16.8114 8.34889 16.9002 8.46424 16.9822L8.51174 17.0164C8.64066 17.1051 8.79673 17.2212 8.8985 17.433C9.01385 17.7472 8.946 18.0137 8.89172 18.2323C8.86458 18.3348 8.83743 18.4372 8.83743 18.5192C8.83743 18.6148 8.85101 18.7105 8.85779 18.8061C9.34633 17.9249 9.84845 17.0368 9.99094 16.7977C10.0859 16.6406 10.2556 16.3947 10.3166 16.2444C10.3506 16.1761 10.3438 16.0873 10.3234 16.019Z" fill="white"/>
<path d="M8.61958 19.5028C8.79599 19.3115 8.54494 18.7581 8.54494 18.5464C8.54494 18.3551 8.57209 18.1844 8.58565 18.0272C8.60601 17.8701 8.60601 17.7198 8.54494 17.6106C8.49066 17.5149 8.36173 17.4261 8.22603 17.3373C8.09033 17.2485 7.92748 17.1528 7.80534 16.9889C7.67642 16.8113 7.64928 16.6268 7.60857 16.4697C7.56785 16.3126 7.52036 16.1759 7.43893 16.1008C7.36429 16.0188 7.2218 15.971 7.07252 15.9301C6.91646 15.8822 6.74004 15.8549 6.55684 15.7319C6.39399 15.6022 6.29899 15.4451 6.21078 15.3084C6.06829 15.0898 6.03436 15.042 5.93937 14.9873C5.79688 14.9053 5.63403 14.9191 5.52546 14.9463C5.39655 14.9737 5.2337 15.001 5.0437 15.001C4.80622 15.001 4.22946 14.7414 4.05983 14.9122C3.8902 15.083 4.13447 15.6568 4.14125 15.8686C4.14125 16.0666 4.1209 16.2443 4.10054 16.3877C4.0734 16.497 4.05983 16.661 4.14125 16.8044C4.19554 16.9001 4.24982 16.9342 4.46017 17.0777C4.59587 17.1665 4.75872 17.2621 4.88085 17.4261C5.00978 17.6037 5.03692 17.7881 5.07763 17.9452C5.11835 18.1024 5.16584 18.239 5.24726 18.3141C5.3219 18.3961 5.4644 18.4439 5.61367 18.4849C5.76974 18.5327 5.94616 18.5601 6.12936 18.683C6.29221 18.8128 6.38721 18.9699 6.47541 19.1066C6.56362 19.2432 6.64505 19.373 6.74682 19.4276C6.85539 19.4891 7.00467 19.4891 7.16073 19.4686C7.31679 19.455 7.48642 19.414 7.67642 19.4276C7.95462 19.4344 8.44994 19.6872 8.61958 19.5028Z" fill="white"/>
<path d="M17.9769 11.3059C17.9702 11.1761 17.8683 10.978 17.8141 10.7935L17.0202 8.59389C16.8912 8.23184 16.7624 7.84928 16.6335 7.50772C16.4977 7.18666 16.2331 6.92024 15.9142 6.77678L13.7497 5.95703L12.664 5.54033C12.4808 5.47885 12.2976 5.37638 12.1415 5.36955C11.9787 5.35589 11.8091 5.41737 11.6869 5.54033C10.5741 6.62649 9.46133 7.71266 8.38246 8.82615C7.83963 9.37948 7.29681 9.93964 6.76755 10.5066L6.5572 10.7321C6.5572 10.7321 7.22217 10.9848 7.45287 11.0805C7.92106 11.2649 8.38246 11.4562 8.84386 11.6543C9.30526 11.8524 9.75988 12.0573 10.2213 12.2827C10.6895 12.515 11.0966 12.8907 11.3002 13.3621C11.0152 13 10.5673 12.7609 10.1127 12.5833C9.65132 12.4057 9.16277 12.2418 8.6878 12.0983C8.20604 11.9549 7.73107 11.8046 7.25609 11.6474C7.01861 11.5723 6.78112 11.4903 6.54363 11.4084C6.38756 11.3537 6.26543 11.381 6.15686 11.4767C6.05509 11.5723 6.00081 11.7021 6.02795 11.8387C6.03473 11.8524 6.03473 11.8729 6.04151 11.8934L6.06866 11.9822L6.25186 12.515C6.3265 12.7404 6.40114 12.9727 6.47578 13.1982C6.61827 13.1161 6.75397 13.041 6.89647 12.9658C6.99147 12.9112 7.12717 12.8429 7.26288 12.8225C7.39858 12.8019 7.52751 12.7951 7.67 12.8497C7.89392 12.9454 8.11783 13.041 8.33496 13.1503C8.76922 13.3689 9.16956 13.649 9.53596 13.9769C9.90237 14.3048 10.2145 14.701 10.4452 15.1451C10.5606 15.3636 10.6555 15.6027 10.737 15.8282C10.7913 15.9785 10.7913 16.1356 10.7505 16.2927C10.7302 16.361 10.6895 16.4498 10.6555 16.4976L10.5673 16.6547C10.4384 16.8665 10.3095 17.0782 10.1806 17.2832C10.4995 17.413 10.8252 17.5291 11.1509 17.6521C11.3341 17.7136 11.5105 17.8092 11.6937 17.8229C11.8837 17.8366 12.0737 17.7614 12.2094 17.6248C13.3018 16.5181 14.3671 15.3909 15.4324 14.2502C15.9617 13.6832 16.5045 13.123 17.0405 12.5629L17.8548 11.7294C17.9294 11.6065 17.9837 11.4562 17.9769 11.3059ZM13.8583 14.8103L11.999 16.8528L12.8947 13.3416L14.0075 12.9796L14.1839 11.3879L15.2696 11.1351L16.2738 7.55554L17.0813 11.2171L13.8583 14.8103Z" fill="white"/>
</svg>
